<svg xmlns="http://www.w3.org/2000/svg" width="176" height="72" viewBox="0 0 176 72">
    <defs>
        <style>
            .cls-1{fill:none}.cls-2{fill:#7cb83d}.cls-3{fill:#fbfdfa}
        </style>
    </defs>
    <g id="Group_335" data-name="Group 335" transform="translate(-466 -4084)">
        <path id="Rectangle_369" d="M0 0h176v72H0z" class="cls-1" data-name="Rectangle 369" transform="translate(466 4084)"/>
        <g id="Group_336" data-name="Group 336" transform="translate(834.089 3580.038)">
            <path id="Path_916" d="M-243.8 548.8c-1.1 2.754-2.091 5.321-3.144 7.863-1.6 3.865-5.394 5.584-9.07 4.153-3.616-1.408-5.2-5.3-3.795-9.213.292-.813 1.2-1.582.226-2.825-2.664 3.41-5.938 5.689-10.4 5.613-.9-.015-.8.627-.976 1.2-1.313 4.225-4.266 6.382-7.93 5.844-4.076-.6-6.274-3.424-6.29-8.088v-3.4c-1.577 2.223-2.051 4.3-2.833 6.234-1.43 3.526-3.968 5.374-7.221 5.172-3.294-.2-5.554-2.206-6.417-6.023-.293-1.3-.608-1.376-1.824-1.073a6.839 6.839 0 0 1-6.314-1.441c-.59-.5-.98-.91-1.93-.275-5.028 3.363-8.163 2.719-11.9-2.4-1.312 1.787-1.753 3.89-2.556 5.807-1.6 3.826-4.029 5.761-7.258 5.478-3.424-.3-6.332-2.695-6.52-6.225-.052-.973-.352-1.292-1.461-.97a6.813 6.813 0 0 1-6.765-1.483c-.77-.691-1.239-.533-1.951.061a6.974 6.974 0 0 1-8.183 1c-2.924-1.519-3.869-4.124-3.777-7.352.134-4.745.083-9.5.03-14.244a6.744 6.744 0 0 1 3.736-6.584 6.8 6.8 0 0 1 7.977.816 2.1 2.1 0 0 0 2.444.374c4.1-1.337 8.36-.566 12.532-.364 1.9.092 3.146 1.916 4.188 3.742 2.174-3.329 4.919-5.024 8.847-3.856.764.227 1.3-.286 1.9-.605a7.059 7.059 0 0 1 8.231.551 2.106 2.106 0 0 0 2.7.353 6.21 6.21 0 0 1 5.264-.364 3.189 3.189 0 0 0 2.253.111c3.975-1.319 6.9.123 9.07 3.732 2.436-3.819 5.64-5.264 9.894-3.419a1.869 1.869 0 0 0 1.709-.128 3.646 3.646 0 0 1 1.94-.622c5.071 1.046 10.466-1.388 15.354 1.437a1.441 1.441 0 0 0 1.428.021c5.918-2.448 7.394-2.108 11.139 2.536 1.534-2.476 3.55-4.194 6.63-4.107.87.024 1.14-.589 1.527-1.165 5.235-7.787 19.942-7.3 23.169 2.331.568 1.695 1.323.52 1.905.276a17.6 17.6 0 0 1 14.555.122 8.781 8.781 0 0 1 5.306 7.967 91.874 91.874 0 0 0 .919 11.042c1.039 5.608-3.691 9.32-9.062 7.472a4.785 4.785 0 0 0-3.2-.1c-4.18 1.268-8.216 1-11.731-1.87a1.749 1.749 0 0 0-2.446-.079c-7.419 4.483-13.906 3.544-19.919-3.033zm-31.111.744c7.877 2.177 12.629-.582 13.718-7.834.95-6.321-4.609-15-12.868-10.825-.95.48-1.355-.083-2.014-.487-2.483-1.522-5.348-.407-5.415 2.338-.179 7.333-.147 14.674-.019 22.009.035 2.011 1.542 3.042 3.576 2.9a2.94 2.94 0 0 0 3.017-3.192c.027-1.624.006-3.244.006-4.913zm41.987 1.281a10.125 10.125 0 0 0 9.53-5.524c1.659-3.44.988-6.545-1.783-9.158-.682-.644-.374-1.13-.068-1.8 2.219-4.851 1.353-8.208-2.554-10.123-4.649-2.279-11.051-.683-13.052 3.295-.9 1.791-.918 3.574.844 4.854 1.44 1.047 3.248.212 4.374-1.841.166-.3.3-.618.46-.926.687-1.365 1.91-1.4 3.12-1.09a2.079 2.079 0 0 1 1.537 2.394 2.345 2.345 0 0 1-2.22 2.153 17.362 17.362 0 0 0-3.018.6 2.352 2.352 0 0 0-1.517 2.707 2.178 2.178 0 0 0 2.064 1.968 22.347 22.347 0 0 0 2.82.345 2.773 2.773 0 0 1 2.963 2.639c.2 1.52-.094 2.956-1.648 3.744a3.177 3.177 0 0 1-4.164-.934c-.664-.778-1.111-1.738-1.705-2.581a2.894 2.894 0 0 0-3.852-1.11c-1.6.744-1.792 2.152-1.322 3.736a9.547 9.547 0 0 0 9.192 6.648zm30.427-10.555c0-1.6.082-2.733-.015-3.846-.318-3.621-2.023-5.645-5.378-6.355a15.745 15.745 0 0 0-6.932-.068 8.085 8.085 0 0 0-5.4 3.686c-.792 1.346-.922 2.923.415 4.006 1.25 1.014 2.618.508 3.783-.415.47-.372.825-.889 1.291-1.267a4.39 4.39 0 0 1 4.076-1.042c.687.185 1.409.448 1.446 1.262.045.974-.844.913-1.48 1.066-2.422.582-4.94.763-7.236 1.866a5.674 5.674 0 0 0-3.6 5.743 5.827 5.827 0 0 0 4.175 5.381 9.513 9.513 0 0 0 7.979-.846c.862-.456 1.493-.913 2.4.12a3.079 3.079 0 0 0 4.222.572c1.464-.952 1.393-2.461.977-3.953a17.442 17.442 0 0 1-.726-5.914zm-110.832-5.248c0-1.493.026-2.339-.005-3.184a3.079 3.079 0 0 0-3.317-3.229 3.077 3.077 0 0 0-3.342 3.221c-.08 5.265-.1 10.534-.011 15.8a3 3 0 0 0 3.329 3.179 3.042 3.042 0 0 0 3.32-3.187c.067-1.032.033-2.072.018-3.108a1.34 1.34 0 0 1 .807-1.467c.8-.283 1.008.454 1.308.935 1.048 1.685 2.04 3.405 3.116 5.072 1.091 1.69 2.646 2.347 4.413 1.214a2.912 2.912 0 0 0 .982-4.449c-.835-1.308-1.6-2.66-2.4-3.99-2.068-3.426-2.086-3.44.587-6.439 1.332-1.495 1.722-3.112.255-4.6-1.431-1.449-3.115-1.27-4.614.081-1.337 1.2-2.633 2.45-4.445 4.146zm-36.952 0l-.938-.609c-.034-.681-.078-1.362-.1-2.044-.073-2.237-1.16-3.606-3.441-3.706-2-.089-3.213 1.368-3.232 3.8-.038 5-.025 10-.029 14.994 0 2.057 1 3.28 3.078 3.384 2.189.111 3.376-1.076 3.563-3.217.1-1.112.045-2.238.066-3.358a1.2 1.2 0 0 1 .787-1.219c.643-.2.874.379 1.139.812 1.124 1.835 2.184 3.713 3.384 5.5a2.9 2.9 0 0 0 4.27.973 2.915 2.915 0 0 0 1.063-4.258c-.813-1.419-1.682-2.806-2.536-4.2-2.1-3.437-2.12-3.45.585-6.388 1.341-1.457 1.839-3.021.363-4.569-1.532-1.608-3.318-1.362-4.785.1a45.069 45.069 0 0 0-3.236 4zm19.23 6.154c-1.175-3.087-2.114-5.577-3.071-8.06-1.087-2.818-2.474-3.748-4.522-3.062-1.939.65-2.463 2.505-1.439 5.195 1.47 3.861 2.833 7.769 4.484 11.551a6.368 6.368 0 0 1-.034 6.091c-1.039 1.907-.563 3.665 1.491 4.469 1.976.774 3.489-.031 4.294-2.1 2.656-6.816 5.379-13.607 8.014-20.432.922-2.388.3-4.188-1.566-4.737-2.259-.665-3.587.424-4.354 2.508-.975 2.646-2.022 5.27-3.296 8.572zm79.21-.218c-1.226-3.16-2.245-5.872-3.33-8.557-.954-2.363-2.474-3.182-4.341-2.436s-2.4 2.348-1.5 4.752c1.607 4.276 3.179 8.567 4.915 12.791a5.189 5.189 0 0 1-.078 4.634c-1.259 2.616-.666 4.495 1.321 5.219 1.861.678 3.44-.3 4.437-2.824q3.843-9.741 7.636-19.5c1.029-2.648.564-4.334-1.316-5.039-2.011-.754-3.5.181-4.573 2.893-1.004 2.538-2.001 5.09-3.17 8.062zm-41.138.095c-1.2-3.131-2.219-5.852-3.3-8.549-.933-2.336-2.447-3.159-4.364-2.466-1.854.67-2.4 2.288-1.49 4.764 1.46 3.955 2.9 7.922 4.527 11.809.877 2.1 1.237 3.965.1 6.117-.936 1.767-.738 3.6 1.344 4.592 1.818.87 3.559-.011 4.455-2.274 2.692-6.8 5.31-13.629 8-20.43.789-1.993.515-3.6-1.51-4.532-1.825-.843-3.439.072-4.374 2.372-1.092 2.687-2.133 5.402-3.387 8.592z" class="cls-2" data-name="Path 916"/>
            <path id="Path_917" d="M-200.072 559.261c0 1.669.021 3.289-.005 4.908a2.94 2.94 0 0 1-3.017 3.192c-2.034.144-3.541-.888-3.576-2.9-.129-7.335-.161-14.676.019-22.009.067-2.745 2.932-3.86 5.415-2.338.658.4 1.064.966 2.014.487 8.259-4.171 13.818 4.5 12.868 10.825-1.089 7.253-5.841 10.012-13.718 7.835zm7.127-9.267c-.034-2.323-1.753-4.188-3.767-4.086-1.915.1-3.365 1.916-3.344 4.194.021 2.25 1.557 4.079 3.455 4.116 1.974.039 3.689-1.943 3.655-4.224z" class="cls-3" data-name="Path 917" transform="translate(-74.838 -9.721)"/>
            <path id="Path_918" d="M-121.561 554.461a9.547 9.547 0 0 1-9.19-6.653c-.47-1.584-.281-2.992 1.322-3.736a2.894 2.894 0 0 1 3.852 1.11c.594.843 1.041 1.8 1.705 2.581a3.177 3.177 0 0 0 4.164.934c1.554-.788 1.85-2.224 1.648-3.744a2.773 2.773 0 0 0-2.963-2.639 22.348 22.348 0 0 1-2.82-.345 2.178 2.178 0 0 1-2.064-1.969 2.352 2.352 0 0 1 1.517-2.707 17.356 17.356 0 0 1 3.018-.6 2.345 2.345 0 0 0 2.22-2.153 2.079 2.079 0 0 0-1.537-2.394c-1.21-.31-2.433-.275-3.12 1.09-.155.308-.294.624-.46.926-1.126 2.053-2.934 2.888-4.374 1.841-1.762-1.28-1.745-3.063-.844-4.854 2-3.978 8.4-5.574 13.052-3.295 3.907 1.915 4.773 5.272 2.554 10.123-.306.668-.615 1.154.068 1.8 2.771 2.613 3.442 5.718 1.783 9.158a10.125 10.125 0 0 1-9.531 5.526z" class="cls-3" data-name="Path 918" transform="translate(-111.362 -3.64)"/>
            <path id="Path_919" d="M-71.8 549.924a17.442 17.442 0 0 0 .717 5.912c.417 1.492.488 3-.977 3.953a3.079 3.079 0 0 1-4.222-.572c-.911-1.033-1.543-.576-2.4-.12a9.513 9.513 0 0 1-7.979.846 5.827 5.827 0 0 1-4.175-5.382 5.674 5.674 0 0 1 3.6-5.743c2.3-1.1 4.814-1.284 7.236-1.866.636-.153 1.525-.093 1.48-1.066-.037-.815-.759-1.077-1.446-1.262a4.39 4.39 0 0 0-4.076 1.042c-.466.378-.821.895-1.291 1.267-1.165.922-2.533 1.428-3.783.415-1.336-1.083-1.207-2.661-.415-4.006a8.085 8.085 0 0 1 5.4-3.686 15.744 15.744 0 0 1 6.932.068c3.355.709 5.06 2.734 5.378 6.355.102 1.111.021 2.24.021 3.845zm-9.8 5.313a3.246 3.246 0 0 0 3.077-2.732c.2-.932-.439-1.056-1.063-.813-1.5.584-3.762.015-4.221 2.181-.237 1.133 1.044 1.337 2.207 1.364z" class="cls-3" data-name="Path 919" transform="translate(-130.695 -9.658)"/>
            <path id="Path_920" d="M-274.244 543.711c1.813-1.7 3.108-2.946 4.445-4.15 1.5-1.351 3.184-1.53 4.614-.081 1.467 1.486 1.077 3.1-.255 4.6-2.673 3-2.656 3.013-.587 6.439.8 1.33 1.568 2.682 2.4 3.99a2.912 2.912 0 0 1-.982 4.449c-1.767 1.134-3.322.476-4.413-1.214-1.076-1.666-2.067-3.387-3.116-5.072-.3-.481-.506-1.218-1.308-.935a1.34 1.34 0 0 0-.807 1.467c.016 1.036.049 2.076-.018 3.108a3.042 3.042 0 0 1-3.32 3.187 3 3 0 0 1-3.329-3.179 498.317 498.317 0 0 1 .011-15.8 3.077 3.077 0 0 1 3.342-3.221 3.079 3.079 0 0 1 3.317 3.229c.032.844.006 1.69.006 3.183z" class="cls-3" data-name="Path 920" transform="translate(-39.084 -8.694)"/>
            <path id="Path_921" d="M-346.5 543.758a45.074 45.074 0 0 1 3.237-4c1.467-1.462 3.253-1.708 4.785-.1 1.476 1.548.979 3.112-.363 4.569-2.705 2.938-2.688 2.951-.586 6.388.853 1.4 1.722 2.783 2.536 4.2a2.915 2.915 0 0 1-1.063 4.258 2.9 2.9 0 0 1-4.27-.972c-1.2-1.785-2.26-3.663-3.384-5.5-.265-.433-.5-1.016-1.139-.812a1.2 1.2 0 0 0-.787 1.219c-.022 1.12.031 2.246-.066 3.358-.187 2.141-1.374 3.328-3.563 3.217-2.074-.1-3.079-1.327-3.078-3.385 0-5-.009-10 .029-14.994.019-2.435 1.228-3.892 3.232-3.8 2.281.1 3.368 1.469 3.441 3.706.022.682.066 1.363.1 2.044z" class="cls-3" data-name="Path 921" transform="translate(-3.784 -8.741)"/>
            <path id="Path_922" d="M-311.063 551.007c1.274-3.3 2.321-5.926 3.3-8.576.767-2.084 2.1-3.174 4.354-2.508 1.867.55 2.488 2.35 1.566 4.737-2.635 6.825-5.358 13.615-8.014 20.432-.806 2.068-2.318 2.873-4.294 2.1-2.054-.8-2.53-2.562-1.491-4.469a6.368 6.368 0 0 0 .034-6.091c-1.651-3.782-3.014-7.69-4.484-11.551-1.024-2.69-.5-4.545 1.439-5.195 2.048-.686 3.435.245 4.522 3.062.955 2.482 1.893 4.972 3.068 8.059z" class="cls-3" data-name="Path 922" transform="translate(-19.988 -9.836)"/>
            <path id="Path_923" d="M-158.24 550.659c1.169-2.972 2.166-5.524 3.176-8.07 1.075-2.712 2.562-3.647 4.573-2.893 1.879.7 2.345 2.391 1.316 5.039q-3.794 9.76-7.636 19.5c-1 2.527-2.577 3.5-4.437 2.824-1.987-.724-2.579-2.6-1.321-5.219a5.19 5.19 0 0 0 .078-4.634c-1.735-4.223-3.307-8.515-4.915-12.791-.9-2.4-.373-4 1.5-4.752s3.387.074 4.341 2.436c1.08 2.689 2.099 5.401 3.325 8.56z" class="cls-3" data-name="Path 923" transform="translate(-93.601 -9.706)"/>
            <path id="Path_924" d="M-237.621 550.826c1.254-3.19 2.295-5.9 3.39-8.6.935-2.3 2.549-3.214 4.374-2.372 2.025.934 2.3 2.539 1.51 4.532-2.691 6.8-5.309 13.63-8 20.43-.9 2.262-2.636 3.144-4.455 2.274-2.082-1-2.28-2.824-1.344-4.592 1.139-2.152.779-4.021-.1-6.117-1.627-3.887-3.067-7.854-4.527-11.809-.915-2.476-.364-4.094 1.49-4.764 1.917-.693 3.431.13 4.364 2.466 1.078 2.7 2.094 5.426 3.298 8.552z" class="cls-3" data-name="Path 924" transform="translate(-55.357 -9.778)"/>
            <path id="Path_925" d="M-186.7 556.016c.034 2.281-1.682 4.263-3.656 4.225-1.9-.037-3.434-1.866-3.455-4.116-.021-2.279 1.429-4.1 3.344-4.194 2.016-.103 3.736 1.762 3.767 4.085z" class="cls-2" data-name="Path 925" transform="translate(-81.086 -15.742)"/>
            <path id="Path_926" d="M-75.067 566.661c-1.167-.027-2.448-.23-2.207-1.364.459-2.166 2.725-1.6 4.221-2.181.623-.243 1.262-.119 1.063.813a3.246 3.246 0 0 1-3.077 2.732z" class="cls-2" data-name="Path 926" transform="translate(-137.224 -21.082)"/>
        </g>
    </g>
</svg>
