<svg xmlns="http://www.w3.org/2000/svg" width="176" height="72" viewBox="0 0 176 72">
    <defs>
        <style>
            .cls-1{fill:none}.cls-2{fill:#005aab}
        </style>
    </defs>
    <g id="Group_341" data-name="Group 341" transform="translate(-466 -4084)">
        <path id="Rectangle_369" d="M0 0h176v72H0z" class="cls-1" data-name="Rectangle 369" transform="translate(466 4084)"/>
        <g id="Group_342" data-name="Group 342" transform="translate(1429.902 4609.966)">
            <path id="Path_949" d="M-434.77-430.268c.205-1.139.411-2.239.6-3.342q.379-2.213.733-4.431a2.089 2.089 0 0 0-.009-.545 1.192 1.192 0 0 0-1.745-1.021 3.533 3.533 0 0 0-1.693 1.962 15 15 0 0 0-.918 3.656c-.214 1.128-.4 2.26-.623 3.386-.027.137-.191.349-.3.352-1.024.027-2.05.016-3.14.016.142-.8.273-1.55.411-2.3.322-1.75.665-3.5.955-5.25a2.8 2.8 0 0 0-.11-1.2 1.178 1.178 0 0 0-1.887-.46 4.307 4.307 0 0 0-1.724 2.525c-.328 1.169-.534 2.373-.772 3.566-.205 1.028-.381 2.063-.571 3.1h-3.372c.136-.739.269-1.447.4-2.155.41-2.258.825-4.516 1.226-6.776.159-.9.276-1.8.435-2.694.023-.13.176-.337.272-.339.9-.019 1.8 0 2.7.009.022 0 .043.032.068.053l-.175 1.743.073.048c.14-.161.277-.326.422-.484a4.68 4.68 0 0 1 4.509-1.575 2.389 2.389 0 0 1 1.949 1.771c.024.079.049.159.075.238 0 .009.024.011.02.009a17.264 17.264 0 0 1 1.478-1.292 4.459 4.459 0 0 1 3.528-.726 2.583 2.583 0 0 1 2.006 2.28 10.73 10.73 0 0 1-.287 3.628c-.349 1.912-.713 3.82-1.072 5.73-.031.165-.069.328-.11.52z" class="cls-2" data-name="Path 949" transform="translate(-467.582 -57.835)"/>
            <path id="Path_950" d="M-946.5-493.376c-.168.947-.315 1.858-.509 2.759-.022.1-.3.212-.467.214-1.379.017-2.758.008-4.137.011-.576 0-1.152 0-1.727.029a.42.42 0 0 0-.317.231c-.178.862-.328 1.731-.483 2.6-.007.037.013.079 0 .025.71 0 1.393-.019 2.075 0a5.52 5.52 0 0 1 3.649 1.3 4.112 4.112 0 0 1 1.368 2.807c.28 3.173-1.527 5.122-4.053 6.064a12.57 12.57 0 0 1-4.886.681c-1.164-.04-2.327-.117-3.49-.181a.835.835 0 0 1-.181-.061c.177-.972.347-1.931.528-2.888.41-2.172.829-4.342 1.238-6.514.423-2.242.847-4.483 1.247-6.729.055-.31.2-.354.449-.353q1.668.006 3.335 0 3.061-.009 6.121-.021c.056.002.111.012.24.026zm-9.243 14.056c.584 0 1.087.032 1.585-.006a3.742 3.742 0 0 0 2.977-1.508 2.489 2.489 0 0 0-1.353-3.93 6.544 6.544 0 0 0-1.336-.095c-.789-.008-.845.031-.987.773-.295 1.536-.572 3.076-.885 4.766z" class="cls-2" data-name="Path 950" transform="translate(0 -11.254)"/>
            <path id="Path_951" d="M138.075-498.032a3.828 3.828 0 0 0-.75-3.208 4.152 4.152 0 0 0-2.878-1.3c-1.042-.129-2.091-.2-3.2-.309v-2.85c.22.025.465.059.71.081 1.272.113 2.549.189 3.816.341a5.57 5.57 0 0 1 4.985 4.888 14.132 14.132 0 0 1-1.462 8.975 6.3 6.3 0 0 1-4.272 3.417 5.562 5.562 0 0 1-4.959-.874 4.241 4.241 0 0 1-1.489-2.794 7.83 7.83 0 0 1 1.172-5.434 5.931 5.931 0 0 1 4.1-2.9 3.758 3.758 0 0 1 3.1.556 6.888 6.888 0 0 1 .907 1.034 3.31 3.31 0 0 1 .22.377zm-5.932 5.134a4.739 4.739 0 0 0 0 .632 1.938 1.938 0 0 0 1.162 1.806 1.845 1.845 0 0 0 2.088-.6 6.113 6.113 0 0 0 1.508-3.926 3.758 3.758 0 0 0-.141-1.035 1.7 1.7 0 0 0-1.274-1.424 2 2 0 0 0-1.98.668 5.653 5.653 0 0 0-1.363 3.877z" class="cls-2" data-name="Path 951" transform="translate(-996.221)"/>
            <path id="Path_952" d="M-217.411-425.491c.18-.964.347-1.871.518-2.777q.568-3.014 1.139-6.027c.3-1.623.619-3.245.9-4.873.164-.952.283-1.912.4-2.871.041-.333.135-.471.515-.453.867.04 1.738.013 2.66.013l-.176 1.75.091.067a8.6 8.6 0 0 1 .673-.731 4.363 4.363 0 0 1 4.681-.971 3.688 3.688 0 0 1 2.27 3.344 8.584 8.584 0 0 1-1.5 6.03 6.347 6.347 0 0 1-5.426 2.883 10.521 10.521 0 0 1-1.97-.372c-.092-.019-.182-.052-.32-.091-.16.821-.318 1.612-.469 2.4s-.289 1.568-.44 2.351c-.034.177-.075.334-.339.33-1.043-.011-2.084-.002-3.207-.002zm10.079-12.2a2.2 2.2 0 0 0-.706-1.869 1.847 1.847 0 0 0-2.344.316 4.134 4.134 0 0 0-1.249 2.016c-.292 1.179-.477 2.384-.733 3.572a.423.423 0 0 0 .208.521 2.355 2.355 0 0 0 2.887-.187 6.165 6.165 0 0 0 1.937-4.365z" class="cls-2" data-name="Path 952" transform="translate(-679.543 -57.693)"/>
            <path id="Path_953" d="M-28.254-446.307v-1.039a1.717 1.717 0 0 0-1.364.5A5.134 5.134 0 0 0-31.147-444a5.041 5.041 0 0 0-.1 2.252 1.923 1.923 0 0 0 3.22 1.107 4.971 4.971 0 0 0 1.551-2.875c.127-.583.119-1.2.188-1.792a.9.9 0 0 1 .156-.386c.05-.073.164-.1.251-.148l2.749-1.441a4.09 4.09 0 0 1 .443 1.794 7.6 7.6 0 0 1-2.239 6.092 6.793 6.793 0 0 1-7.491 1.346 4.367 4.367 0 0 1-2.493-3.873 7.812 7.812 0 0 1 1.251-4.971 6.953 6.953 0 0 1 4.857-3.078l-.466-.8 7.048.683z" class="cls-2" data-name="Path 953" transform="translate(-846.606 -50.279)"/>
            <path id="Path_954" d="M440.655-427.206c.11-.637.2-1.2.305-1.762q.26-1.383.54-2.763c.05-.246.008-.374-.276-.373-1.027.005-2.055.005-3.082-.006-.284 0-.342.146-.384.386-.245 1.392-.505 2.781-.764 4.17a2.7 2.7 0 0 1-.107.331h-3.452c.169-.935.329-1.84.5-2.743q.541-2.89 1.089-5.779c.2-1.059.391-2.119.607-3.175a.416.416 0 0 1 .285-.271c1.053-.02 2.106-.012 3.25-.012l-.81 4.431h1.456c.647 0 1.295-.008 1.942 0 .235 0 .336-.053.382-.313.242-1.362.513-2.719.779-4.105h3.485c-.07.422-.126.813-.2 1.2q-.7 3.694-1.416 7.386c-.2 1.031-.392 2.063-.607 3.09-.024.114-.17.287-.262.288-1.057.026-2.109.02-3.26.02z" class="cls-2" data-name="Path 954" transform="translate(-1275.407 -60.872)"/>
            <path id="Path_955" d="M883.369-439.44c-.331 1.76-.66 3.449-.962 5.142-.157.882-.271 1.771-.394 2.658a2.362 2.362 0 0 0 .008.547 1.182 1.182 0 0 0 1.676 1.041 2.923 2.923 0 0 0 1.575-1.394 9.829 9.829 0 0 0 1.111-3.546c.254-1.377.512-2.753.783-4.127.024-.12.163-.308.251-.31 1.081-.021 2.162-.014 3.3-.014-.152.842-.288 1.621-.435 2.4-.326 1.719-.671 3.435-.984 5.156-.248 1.364-.456 2.736-.7 4.1-.022.127-.142.336-.221.338-.967.023-1.935.015-2.909.015l.183-1.933c-.283.278-.5.484-.707.7a4.768 4.768 0 0 1-3.412 1.525 2.719 2.719 0 0 1-3.115-2.561 11.184 11.184 0 0 1 .306-3.63c.333-1.888.716-3.767 1.052-5.655.067-.375.21-.474.581-.46.857.033 1.717.012 2.576.013z" class="cls-2" data-name="Path 955" transform="translate(-1682.75 -60.644)"/>
            <path id="Path_956" d="M300.57-433.432c.084.8.175 1.555.23 2.31.007.1-.142.258-.256.309a8.314 8.314 0 0 1-3.128.756 11.531 11.531 0 0 1-2.723-.129 4.257 4.257 0 0 1-3.509-4.135 7.76 7.76 0 0 1 1.924-5.965 6.527 6.527 0 0 1 5.019-2.277 4.31 4.31 0 0 1 3.154 1.072 3.5 3.5 0 0 1-.865 5.649 10.17 10.17 0 0 1-4.121.894c-.585.028-1.172 0-1.751 0a2.05 2.05 0 0 0 1.8 2.155 6.938 6.938 0 0 0 3.75-.459c.149-.048.29-.107.476-.18zm-5.655-4.039c.675-.031 1.35-.017 2.01-.108a6.335 6.335 0 0 0 1.52-.424.984.984 0 0 0 .58-1.146 1.049 1.049 0 0 0-.9-.828 2.856 2.856 0 0 0-3.21 2.506z" class="cls-2" data-name="Path 956" transform="translate(-1145.144 -57.796)"/>
            <path id="Path_957" d="M607.612-439.452l-1.112 4.527c.576-.254 1.067-.521 1.59-.691a4.342 4.342 0 0 1 3.36.124 2.911 2.911 0 0 1 1.682 2.621 5.274 5.274 0 0 1-4.061 5.31 8.876 8.876 0 0 1-4.655.127 2.64 2.64 0 0 1-2.072-3.287c.464-2.445 1.03-4.87 1.552-7.3.082-.383.149-.77.253-1.148.03-.108.161-.267.249-.268 1.037-.021 2.076-.015 3.214-.015zm-.457 9.78a2.5 2.5 0 0 0 2.51-1.845 1.432 1.432 0 0 0-1.408-1.9 2.708 2.708 0 0 0-2.479 2.294c-.067.99.372 1.455 1.377 1.451z" class="cls-2" data-name="Path 957" transform="translate(-1429.986 -60.645)"/>
            <path id="Path_958" d="M-782.623-439.3l-1.151 4.6.374-.219a4.714 4.714 0 0 1 4.46-.469 2.657 2.657 0 0 1 1.607 2.306 4.893 4.893 0 0 1-2.642 5.05 7.54 7.54 0 0 1-6.224.613 2.48 2.48 0 0 1-1.682-3.056c.532-2.817 1.155-5.617 1.732-8.426a.427.427 0 0 1 .5-.408c.983.023 1.965.009 3.026.009zm-.525 9.766a2.343 2.343 0 0 0 2.414-2.567 1.329 1.329 0 0 0-1.638-1.152 2.481 2.481 0 0 0-2.028 2c-.267 1.082.22 1.725 1.252 1.721z" class="cls-2" data-name="Path 958" transform="translate(-157.206 -60.779)"/>
            <path id="Path_959" d="M747.338-439.274l-.364-2.306a7.7 7.7 0 0 1 2.563-.744 7.178 7.178 0 0 1 3.127.164 2.887 2.887 0 0 1 2.086 2.169 3.169 3.169 0 0 1-1 3.249 9.837 9.837 0 0 1-2.8 1.608c-.539.235-1.068.5-1.585.776a2.281 2.281 0 0 0-.585.477.79.79 0 0 0 .471 1.385 4.711 4.711 0 0 0 1.577-.05c.758-.171 1.487-.467 2.245-.715.11.668.236 1.381.334 2.1a.436.436 0 0 1-.155.368 8.577 8.577 0 0 1-6.3.545c-2.586-.836-2.442-4.028-1.123-5.287a11.188 11.188 0 0 1 3.38-1.924 24.086 24.086 0 0 0 1.7-.835.815.815 0 0 0 .52-.841c-.064-.4-.383-.565-.739-.661a4.207 4.207 0 0 0-2.158.137c-.393.097-.77.245-1.194.385z" class="cls-2" data-name="Path 959" transform="translate(-1560.564 -57.929)"/>
            <path id="Path_960" d="M-562.111-439.29a4.446 4.446 0 0 0-3.032 0 4.133 4.133 0 0 0-2.622 3.35 4.451 4.451 0 0 0 .033 1.663 2.135 2.135 0 0 0 2.232 1.677 22.585 22.585 0 0 0 2.441-.34c0 .735.01 1.554-.014 2.372 0 .1-.179.229-.3.278a8.754 8.754 0 0 1-3.686.465 4.69 4.69 0 0 1-2.894-1.11 4.355 4.355 0 0 1-1.5-2.922 7.338 7.338 0 0 1 1.617-5.7 7.473 7.473 0 0 1 5.225-2.732 9.624 9.624 0 0 1 2.926.18c.341.067.474.191.332.569-.275.731-.502 1.479-.758 2.25z" class="cls-2" data-name="Path 960" transform="translate(-355.353 -58.008)"/>
            <path id="Path_961" d="M-656.582-427.272c.257-1.331.507-2.619.755-3.908.5-2.583 1-5.166 1.488-7.752.043-.229.1-.351.361-.349 1.1.009 2.193 0 3.361 0-.1.6-.195 1.171-.3 1.738q-.873 4.556-1.754 9.11c-.013.068-.041.134-.057.2-.212.954-.212.954-1.2.954z" class="cls-2" data-name="Path 961" transform="translate(-277.472 -60.802)"/>
            <path id="Path_962" d="M877.959-210.277l.379-2.137c.022-.124.046-.248.057-.373.022-.256.049-.534-.253-.646s-.538.067-.718.3a4.479 4.479 0 0 0-.6 1.947c-.062.3-.117.6-.177.91h-1.094l.422-2.319c.015-.083.063-.176.04-.246-.065-.2-.116-.513-.253-.563a.658.658 0 0 0-.613.169 7.073 7.073 0 0 0-.6 1.406 7.459 7.459 0 0 0-.244 1.277c-.032.241-.139.306-.359.3-.25-.012-.5 0-.807 0l.722-4h.915l.043.506c1.167-.876 1.855-.865 2.344-.02a6.3 6.3 0 0 1 1.165-.576.94.94 0 0 1 1.233 1.117c-.125.984-.3 1.96-.461 2.955z" class="cls-2" data-name="Path 962" transform="translate(-1677.964 -266.679)"/>
            <path id="Path_963" d="M260.065-211.058c.294-.565.63-1.113.87-1.7a.926.926 0 0 1 1.134-.7 4.536 4.536 0 0 0 .749.007l-.526 3.987h-1.057l.417-2.8-.074-.027-.953 1.862c-.051.1-.1.2-.155.3-.369.694-.369.694-1.218.577l-.273-2.772h-.079c-.175.735-.341 1.471-.526 2.2-.2.783-.273.819-1.168.638.333-1.255.6-2.531 1.029-3.75.178-.507.823-.126 1.247-.2.08-.014.262.152.281.256.062.344.066.7.1 1.047s.081.708.122 1.062z" class="cls-2" data-name="Path 963" transform="translate(-1114.066 -267.502)"/>
            <path id="Path_964" d="M426.149-233.979a1.057 1.057 0 0 0-.783-1.2 3.141 3.141 0 0 0-.993-.16c-.452.024-.555-.2-.561-.568v-.474a15.827 15.827 0 0 1 2.12.379 1.731 1.731 0 0 1 1.137 1.714 4.072 4.072 0 0 1-1.148 3.547 1.839 1.839 0 0 1-2.886-.487c-.5-1.5.55-3.308 2.11-3.156a3.833 3.833 0 0 1 1.004.405zm-.317 1.325c-.086-.405-.148-.765-.554-.886a.7.7 0 0 0-.853.456 4.52 4.52 0 0 0-.312 1.326.55.55 0 0 0 .516.617.955.955 0 0 0 .7-.339 6.5 6.5 0 0 0 .503-1.175z" class="cls-2" data-name="Path 964" transform="translate(-1265.771 -246.558)"/>
            <path id="Path_965" d="M648.947-210.224c-.086.447-.16.916-.277 1.374a.456.456 0 0 1-.306.277 6.44 6.44 0 0 1-.883.013l1.062-5.76h.968l-.026.549.284-.224a1.348 1.348 0 0 1 2.313.809 2.592 2.592 0 0 1-1.741 2.946 6.126 6.126 0 0 1-1.394.016zm.847-.806a1.589 1.589 0 0 0 .372-.133 2.009 2.009 0 0 0 .71-1.79c-.145-.544-.582-.659-1.022-.283a2.533 2.533 0 0 0-.646 1.645c-.083.425.036.552.586.561z" class="cls-2" data-name="Path 965" transform="translate(-1471.372 -266.687)"/>
            <path id="Path_966" d="M601.07-209.525h-1.026v-.7a5.5 5.5 0 0 1-.408.445 1.365 1.365 0 0 1-1.449.28 1.208 1.208 0 0 1-.75-1.215 2.639 2.639 0 0 1 2.129-2.827 9.109 9.109 0 0 1 1.837.018c.216.005.269.09.223.325a95.33 95.33 0 0 0-.489 2.851c-.037.262-.044.529-.067.823zm-2.522-1.46c.152.21.267.529.468.6.182.064.475-.116.688-.241a.678.678 0 0 0 .249-.377c.134-.452.256-.909.352-1.371.076-.367-.057-.473-.431-.39a2.023 2.023 0 0 0-1.326 1.78z" class="cls-2" data-name="Path 966" transform="translate(-1425.556 -267.429)"/>
            <path id="Path_967" d="M823.437-213.713l-.629 4.025h-.93l-.046-.689c-.17.179-.291.321-.427.448a1.334 1.334 0 0 1-1.442.281 1.25 1.25 0 0 1-.726-1.217 2.651 2.651 0 0 1 2.126-2.83 12.694 12.694 0 0 1 2.074-.018zm-3.09 2.555c.154.219.262.519.472.639.3.17.544-.083.736-.318a.641.641 0 0 0 .131-.212c.148-.519.3-1.037.425-1.562.072-.3-.13-.353-.377-.316a1.942 1.942 0 0 0-1.387 1.769z" class="cls-2" data-name="Path 967" transform="translate(-1628.616 -267.281)"/>
            <path id="Path_968" d="M152.656-213.941l-.642 3.932h-.944v-.613l-.134-.153a.917.917 0 0 1-.1.307 1.414 1.414 0 0 1-1.726.474 1.543 1.543 0 0 1-.645-1.646 2.645 2.645 0 0 1 1.75-2.274 4.439 4.439 0 0 1 2.441-.027zm-3.106 2.469c.162.218.284.538.5.622.168.066.485-.117.671-.269a1.2 1.2 0 0 0 .329-.571 10.186 10.186 0 0 0 .253-1.14c.071-.4-.05-.5-.441-.4a2.064 2.064 0 0 0-1.312 1.759z" class="cls-2" data-name="Path 968" transform="translate(-1014.489 -266.961)"/>
            <path id="Path_969" d="M476.871-211.677a2.386 2.386 0 0 1 2.75-2.451 1.492 1.492 0 0 1 1.319 1.181 2.438 2.438 0 0 1-1.787 2.955 1.739 1.739 0 0 1-1.92-.514 4.959 4.959 0 0 1-.467-1.128zm3.05-.789c-.189-.285-.3-.608-.522-.735a.8.8 0 0 0-.726.1 1.748 1.748 0 0 0-.591 1.662.967.967 0 0 0 .491.595.582.582 0 0 0 .761-.278c.221-.411.376-.853.587-1.344z" class="cls-2" data-name="Path 969" transform="translate(-1315.078 -266.909)"/>
            <path id="Path_970" d="M710.267-210.164c.146-.855.308-1.664.405-2.48.026-.222-.143-.467-.222-.7-.246.094-.6.118-.715.3a4.779 4.779 0 0 0-.548 1.293c-.14.5-.194 1.015-.291 1.559h-1.15c.168-.921.333-1.823.5-2.726.033-.179.065-.357.1-.535.169-.814.225-.849 1.079-.671l.03.43a5.831 5.831 0 0 1 1.057-.547c.8-.228 1.49.183 1.369 1.083-.127.942-.282 1.88-.44 2.818a.311.311 0 0 1-.234.173c-.307.016-.612.003-.94.003z" class="cls-2" data-name="Path 970" transform="translate(-1526.546 -266.771)"/>
            <path id="Path_971" d="M209.616-213.15l-.525 2.768c-.031.165-.05.333-.085.5-.179.828-.18.828-1.079.728l-.043-.536c-.115.094-.2.159-.275.225a1.689 1.689 0 0 1-1.15.44c-.615-.009-1.016-.334-.976-.95a21.468 21.468 0 0 1 .312-2.241c.178-1.033.191-1.031 1.308-.881-.124.669-.253 1.335-.368 2a3.284 3.284 0 0 0-.06.709.416.416 0 0 0 .657.365 1.573 1.573 0 0 0 .746-1.162c.124-.545.246-1.093.322-1.647.036-.263.141-.33.375-.32.264.01.525.002.841.002z" class="cls-2" data-name="Path 971" transform="translate(-1066.71 -267.809)"/>
            <path id="Path_972" d="M763.338-208.889H762.2l.558-3.1c-.172-.021-.293-.037-.414-.049-.364-.037-.6.034-.647.485a6.187 6.187 0 0 1-.359 1.419 1.82 1.82 0 0 1-1.774 1.336c-.038-.233-.089-.461-.107-.692-.006-.077.052-.216.108-.231.83-.235.886-.973 1.056-1.624.109-.418.152-.853.258-1.273.027-.108.179-.26.276-.262.954-.02 1.909-.012 2.939-.012z" class="cls-2" data-name="Path 972" transform="translate(-1573.887 -268.067)"/>
            <path id="Path_973" d="M332-212.638h1.118l-.333 1.419c.37-.088.7-.2 1.04-.242a1.072 1.072 0 0 1 1.1 1.432 1.992 1.992 0 0 1-1.971 1.47c-1.41.042-1.757-.356-1.484-1.728.145-.727.315-1.449.475-2.174.019-.053.038-.105.055-.177zm1.826 2.449a.467.467 0 0 0-.488-.464.9.9 0 0 0-.813.869c0 .305.193.42.463.425a.841.841 0 0 0 .841-.83z" class="cls-2" data-name="Path 973" transform="translate(-1181.985 -268.299)"/>
            <path id="Path_974" d="M959.987-212.952l-.365 1.5c.224-.091.38-.166.544-.219a1.214 1.214 0 0 1 1.423.292 1.31 1.31 0 0 1 .043 1.466 2 2 0 0 1-1.749 1.063h-.042c-1.432.052-1.77-.333-1.5-1.736.127-.658.3-1.309.415-1.969.056-.316.2-.427.506-.4.223.021.448.003.725.003zm.7 2.5c-.037-.32-.188-.511-.518-.5a.889.889 0 0 0-.777.852c0 .332.186.449.48.444a.852.852 0 0 0 .814-.795z" class="cls-2" data-name="Path 974" transform="translate(-1755.895 -268.003)"/>
            <path id="Path_975" d="M98.029-209.487l.257-.642a13.344 13.344 0 0 0 1.582.1c.16-.007.308-.284.461-.438a4.814 4.814 0 0 0-.5-.416c-.083-.053-.22-.023-.332-.03-.2-.011-.451.067-.432-.287.016-.3.076-.525.458-.484a1.02 1.02 0 0 0 .539-.046c.163-.083.272-.272.4-.414-.152-.123-.3-.342-.456-.349a7.112 7.112 0 0 0-1.126.113c-.29-.562-.256-.714.374-.815a5.667 5.667 0 0 1 1.581-.018.89.89 0 0 1 .875.871.926.926 0 0 1-.7.9c-.074.029-.145.063-.266.116l.289.157a.936.936 0 0 1 .065 1.676 3.038 3.038 0 0 1-2.479.231 5.616 5.616 0 0 1-.59-.225z" class="cls-2" data-name="Path 975" transform="translate(-968.336 -267.732)"/>
            <path id="Path_976" d="M548.248-211.08c-.051-.675-.041-.688.594-.714.523-.021.794-.187.767-.469s-.328-.415-.826-.36a2.965 2.965 0 0 0-.368.079 5.665 5.665 0 0 0-.357.1c-.311-.605-.273-.758.356-.863a5.385 5.385 0 0 1 1.541-.036.945.945 0 0 1 .9.9c.024.37-.242.7-.745.917-.049.021-.1.031-.2.061a1.541 1.541 0 0 0 .216.154.877.877 0 0 1 .59.92 1.025 1.025 0 0 1-.653.9 3.263 3.263 0 0 1-2.862-.149l.274-.694a6.621 6.621 0 0 0 .973.237 1.813 1.813 0 0 0 .77-.114.475.475 0 0 0 .247-.374.487.487 0 0 0-.287-.347 6.527 6.527 0 0 0-.93-.148z" class="cls-2" data-name="Path 976" transform="translate(-1379.564 -267.614)"/>
            <path id="Path_977" d="M377.269-209.285h-1.214c.187-.987.368-1.944.551-2.9.01-.055.036-.107.046-.161.2-1.064.2-1.064 1.368-.893z" class="cls-2" data-name="Path 977" transform="translate(-1222.875 -267.67)"/>
            <path id="Path_978" d="M1004.856-212.938c-.144.766-.272 1.464-.406 2.16-.1.507-.227 1.009-.293 1.52-.036.279-.147.359-.4.347s-.528 0-.865 0c.077-.453.139-.858.216-1.261.16-.836.319-1.672.5-2.5a.411.411 0 0 1 .285-.249 8.6 8.6 0 0 1 .963-.017z" class="cls-2" data-name="Path 978" transform="translate(-1796.758 -268.018)"/>
            <path id="Path_979" d="M223.432-233.373c.333-.044.633-.16.794.288.1.29.44.293.572-.01.191-.439.494-.354.825-.3a1.081 1.081 0 0 1-1.21 1c-.671-.005-.913-.231-.981-.978z" class="cls-2" data-name="Path 979" transform="translate(-1083.146 -249.254)"/>
        </g>
    </g>
</svg>
