<svg xmlns="http://www.w3.org/2000/svg" width="96" height="96" viewBox="0 0 96 96">
    <defs>
        <style>
            .prefix__cls-1,.prefix__cls-2{fill:#fff}.prefix__cls-1{stroke:#fa0000}.prefix__cls-1,.prefix__cls-2{stroke-linecap:round;stroke-linejoin:round}.prefix__cls-1{stroke-width:2px}.prefix__cls-3{fill:none}.prefix__cls-6,.prefix__cls-7{stroke:none}.prefix__cls-7{fill:#fa0000}
        </style>
    </defs>
    <g id="prefix__Group_317" data-name="Group 317" transform="translate(-426 -42)">
        <g id="prefix__Group_315" data-name="Group 315" transform="translate(-627 6.5)">
            <g id="prefix__Group_10" data-name="Group 10" transform="translate(1081.13 68)">
                <g id="prefix__Ellipse_4" class="prefix__cls-1" data-name="Ellipse 4" transform="translate(3.796)">
                    <circle cx="4.556" cy="4.556" r="4.556" class="prefix__cls-6"/>
                    <circle cx="4.556" cy="4.556" r="3.556" class="prefix__cls-3"/>
                </g>
                <g id="prefix__Path_78" class="prefix__cls-2" data-name="Path 78">
                    <path d="M8.352 9.63c-2.054 0-4.032-.266-5.427-.728C1.737 8.509 1 7.978 1 7.516 1 3.923 4.298 1 8.352 1s7.352 2.923 7.352 6.516c0 .462-.737.993-1.924 1.386-1.396.462-3.374.728-5.428.728z" class="prefix__cls-6" transform="translate(0 9.87)"/>
                    <path d="M8.352 2c-3.438 0-6.246 2.384-6.35 5.348.191.169.746.506 1.904.798 1.24.312 2.818.484 4.446.484 1.628 0 3.207-.172 4.446-.484 1.159-.292 1.713-.63 1.903-.798C14.6 4.384 11.79 2 8.352 2m0-2c4.613 0 8.352 3.365 8.352 7.516 0 2.076-4.176 3.114-8.352 3.114S0 9.592 0 7.516C0 3.366 3.74 0 8.352 0z" class="prefix__cls-7" transform="translate(0 9.87)"/>
                </g>
            </g>
            <path id="prefix__Rectangle_50" d="M0 0H21V20H0z" class="prefix__cls-3" data-name="Rectangle 50" transform="translate(1079 68.5)"/>
        </g>
        <g id="prefix__Group_316" data-name="Group 316" transform="translate(-603 6.5)">
            <g id="prefix__Group_10-2" data-name="Group 10" transform="translate(1081.13 68)">
                <g id="prefix__Ellipse_4-2" class="prefix__cls-1" data-name="Ellipse 4" transform="translate(3.796)">
                    <circle cx="4.556" cy="4.556" r="4.556" class="prefix__cls-6"/>
                    <circle cx="4.556" cy="4.556" r="3.556" class="prefix__cls-3"/>
                </g>
                <g id="prefix__Path_78-2" class="prefix__cls-2" data-name="Path 78">
                    <path d="M8.352 9.63c-2.054 0-4.032-.266-5.427-.728C1.737 8.509 1 7.978 1 7.516 1 3.923 4.298 1 8.352 1s7.352 2.923 7.352 6.516c0 .462-.737.993-1.924 1.386-1.396.462-3.374.728-5.428.728z" class="prefix__cls-6" transform="translate(0 9.87)"/>
                    <path d="M8.352 2c-3.438 0-6.246 2.384-6.35 5.348.191.169.746.506 1.904.798 1.24.312 2.818.484 4.446.484 1.628 0 3.207-.172 4.446-.484 1.159-.292 1.713-.63 1.903-.798C14.6 4.384 11.79 2 8.352 2m0-2c4.613 0 8.352 3.365 8.352 7.516 0 2.076-4.176 3.114-8.352 3.114S0 9.592 0 7.516C0 3.366 3.74 0 8.352 0z" class="prefix__cls-7" transform="translate(0 9.87)"/>
                </g>
            </g>
            <path id="prefix__Rectangle_50-2" d="M0 0H21V20H0z" class="prefix__cls-3" data-name="Rectangle 50" transform="translate(1079 68.5)"/>
        </g>
        <path id="prefix__Rectangle_359" d="M0 0H96V96H0z" class="prefix__cls-3" data-name="Rectangle 359" transform="translate(426 42)"/>
        <path id="prefix__Path_824" d="M3381 2877.8l33.033-15.549 33.6 15.549s1.1 38.365-3.318 45.743-30.279 24.776-30.279 24.776-27.738-16.472-30.987-24.776S3381 2877.8 3381 2877.8z" data-name="Path 824" transform="translate(-2940.547 -2816.83)" style="stroke:#d8d8d8;fill:#fff"/>
        <g id="prefix__Group_300" data-name="Group 300" transform="translate(-617 5)">
            <g id="prefix__Group_10-3" data-name="Group 10" transform="translate(1081.494 68)">
                <g id="prefix__Ellipse_4-3" data-name="Ellipse 4" transform="translate(4.445)" style="stroke:#58af32;stroke-width:2px;stroke-linecap:round;stroke-linejoin:round;fill:#fff">
                    <circle cx="5.333" cy="5.333" r="5.333" class="prefix__cls-6"/>
                    <circle cx="5.333" cy="5.333" r="4.333" class="prefix__cls-3"/>
                </g>
                <g id="prefix__Path_78-3" class="prefix__cls-2" data-name="Path 78">
                    <path d="M9.778 11.444C4.528 11.444 1 10.077 1 8.8 1 4.499 4.938 1 9.778 1s8.778 3.499 8.778 7.8c0 1.277-3.527 2.644-8.778 2.644z" class="prefix__cls-6" transform="translate(0 11.556)"/>
                    <path d="M9.778 2C5.514 2 2.04 5.016 2 8.736c.134.18.747.663 2.278 1.076 1.51.408 3.464.632 5.5.632s3.99-.224 5.5-.632c1.531-.413 2.144-.896 2.278-1.076C17.516 5.016 14.043 2 9.778 2m0-2c5.4 0 9.778 3.94 9.778 8.8 0 2.43-4.889 3.644-9.778 3.644S0 11.23 0 8.8C0 3.94 4.378 0 9.778 0z" style="fill:#58af32;stroke:none" transform="translate(0 11.556)"/>
                </g>
            </g>
            <path id="prefix__Rectangle_50-3" d="M0 0H24V24H0z" class="prefix__cls-3" data-name="Rectangle 50" transform="translate(1079 68)"/>
        </g>
    </g>
</svg>
