<svg xmlns="http://www.w3.org/2000/svg" width="176" height="72" viewBox="0 0 176 72">
    <defs>
        <style>
            .cls-1{fill:none}.cls-2,.cls-6{fill:#191000}.cls-3{fill:#c2c9cd}.cls-3,.cls-5,.cls-6{fill-rule:evenodd}.cls-4{fill:#fff}.cls-5{fill:#ffe01a}
        </style>
    </defs>
    <g id="Group_346" data-name="Group 346" transform="translate(-466 -4084)">
        <path id="Rectangle_369" d="M0 0h176v72H0z" class="cls-1" data-name="Rectangle 369" transform="translate(466 4084)"/>
        <g id="Group_347" data-name="Group 347" transform="translate(324.628 4039.159)">
            <path id="Path_980" d="M258.572 82.429c.188-.3.381-.586.583-.877h.118V88.1h2.975V76.983h-2.975l-3.331 5.071q-.281.435-.56.84c-.186.274-.374.564-.558.865h-.124v-6.776h-2.974V88.1h2.974q.841-1.161 1.642-2.375t1.619-2.4c.218-.3.42-.6.606-.9" class="cls-2" data-name="Path 980" transform="translate(-31.46 -6.739)"/>
            <path id="Path_981" d="M273.732 83.486h4.425V88.1h2.976V76.983h-2.976v4.23h-4.425v-4.23h-2.974V88.1h2.974v-4.614" class="cls-2" data-name="Path 981" transform="translate(-37.165 -6.739)"/>
            <path id="Path_982" d="M299.06 84.534a3.2 3.2 0 0 0-1.182-2.652 4.961 4.961 0 0 0-3.174-.944h-2.144v-3.955h-2.976V88.1h5.25a5.056 5.056 0 0 0 3.074-.852 3.153 3.153 0 0 0 1.152-2.715m-3.415 1.021a1.958 1.958 0 0 1-1.165.319h-1.92v-2.728h1.9a1.909 1.909 0 0 1 1.189.342 1.217 1.217 0 0 1 .44 1.024 1.2 1.2 0 0 1-.44 1.045" class="cls-2" data-name="Path 982" transform="translate(-42.809 -6.739)"/>
            <path id="Path_983" d="M352.253 84.766a5.455 5.455 0 0 0 1.238-1.795 5.966 5.966 0 0 0 .456-2.389 5.655 5.655 0 0 0-.445-2.272 5.294 5.294 0 0 0-1.225-1.762 5.675 5.675 0 0 0-1.866-1.159 7.61 7.61 0 0 0-2.344-.489v-4.182l-2.793 1.071V74.9a7.228 7.228 0 0 0-2.329.512 6.214 6.214 0 0 0-1.886 1.183 5.331 5.331 0 0 0-1.708 3.988 6.449 6.449 0 0 0 .422 2.4 5.158 5.158 0 0 0 1.207 1.817 5.473 5.473 0 0 0 1.872 1.185 7.847 7.847 0 0 0 2.423.486v4.711l2.815-1.07V86.45a7.21 7.21 0 0 0 2.309-.5 5.712 5.712 0 0 0 1.853-1.185m-6.978-.5a3.571 3.571 0 0 1-1.192-.3 2.974 2.974 0 0 1-.985-.707 3.335 3.335 0 0 1-.667-1.1 4.208 4.208 0 0 1-.246-1.512 3.74 3.74 0 0 1 .809-2.444 3.115 3.115 0 0 1 2.281-1.1zm3.943-.265a3.326 3.326 0 0 1-1.149.295V77.1a3.046 3.046 0 0 1 2.254 1.1 3.8 3.8 0 0 1 .791 2.444 4.164 4.164 0 0 1-.258 1.524 3.445 3.445 0 0 1-.674 1.114 2.985 2.985 0 0 1-.964.705" class="cls-2" data-name="Path 983" transform="translate(-57.731 -4.861)"/>
            <path id="Path_984" d="M376.569 82.973a5.944 5.944 0 0 0 .454-2.39 5.644 5.644 0 0 0-.443-2.272 5.249 5.249 0 0 0-1.225-1.762 5.661 5.661 0 0 0-1.866-1.159 7.6 7.6 0 0 0-2.344-.489v-4.182l-2.789 1.069V74.9a7.192 7.192 0 0 0-2.332.512 6.184 6.184 0 0 0-1.886 1.183 5.318 5.318 0 0 0-1.708 3.987 6.386 6.386 0 0 0 .422 2.4 5.142 5.142 0 0 0 1.205 1.818 5.474 5.474 0 0 0 1.874 1.184 7.859 7.859 0 0 0 2.424.487v4.71l2.813-1.068v-3.662a7.263 7.263 0 0 0 2.309-.5 5.753 5.753 0 0 0 1.854-1.185 5.448 5.448 0 0 0 1.238-1.795m-8.214 1.3a3.586 3.586 0 0 1-1.2-.3 2.99 2.99 0 0 1-.983-.706 3.345 3.345 0 0 1-.669-1.1 4.245 4.245 0 0 1-.244-1.512 3.745 3.745 0 0 1 .807-2.445 3.121 3.121 0 0 1 2.285-1.1zm5.578-2.092a3.52 3.52 0 0 1-.674 1.114 3.026 3.026 0 0 1-.965.705 3.338 3.338 0 0 1-1.15.295v-7.188a3.051 3.051 0 0 1 2.255 1.1 3.8 3.8 0 0 1 .788 2.445 4.171 4.171 0 0 1-.254 1.524" class="cls-2" data-name="Path 984" transform="translate(-64.651 -4.861)"/>
            <path id="Path_985" d="M234.517 72.822h4.331V86.09h3.093V72.822h4.186v-2.589h-11.61v2.589" class="cls-2" data-name="Path 985" transform="translate(-26.298 -4.715)"/>
            <path id="Path_986" d="M316.375 77.042h-3.392L309 81.766v-4.783h-2.951v11.131H309V82.7l3.891 5.413h3.509l-4.376-5.956 4.354-5.115" class="cls-2" data-name="Path 986" transform="translate(-47.745 -6.739)"/>
            <path id="Path_987" d="M330.956 78.254a4.742 4.742 0 0 0-1.717-1.149 6.273 6.273 0 0 0-4.392 0 4.974 4.974 0 0 0-1.732 1.137 5.1 5.1 0 0 0-1.121 1.82 7.654 7.654 0 0 0-.011 4.833 5.194 5.194 0 0 0 1.087 1.818 4.805 4.805 0 0 0 1.7 1.161 5.818 5.818 0 0 0 2.231.408 5.946 5.946 0 0 0 2.2-.4 4.877 4.877 0 0 0 1.729-1.148 5.292 5.292 0 0 0 1.132-1.83 7.419 7.419 0 0 0 .012-4.832 5.259 5.259 0 0 0-1.11-1.82m-1.631 5.571a3.7 3.7 0 0 1-.469 1.081 2.25 2.25 0 0 1-.766.727 2.073 2.073 0 0 1-1.047.262 2.119 2.119 0 0 1-1.836-.9 4.344 4.344 0 0 1-.636-2.537 4.4 4.4 0 0 1 .612-2.408 2 2 0 0 1 1.788-.956 2.128 2.128 0 0 1 1.883.945 4.332 4.332 0 0 1 .634 2.468 5.066 5.066 0 0 1-.164 1.317" class="cls-2" data-name="Path 987" transform="translate(-52.408 -6.657)"/>
            <path id="Path_988" d="M245.088 106.009a3.922 3.922 0 0 1 2.584.781 2.893 2.893 0 0 1 .939 2.359 2.974 2.974 0 0 1-.914 2.343 3.719 3.719 0 0 1-2.559.814H240.7V101.49h6.9v1.147h-5.683v3.372h3.173m2.293 3.133a1.926 1.926 0 0 0-.59-1.5 2.341 2.341 0 0 0-1.637-.538h-3.24v4.054h3.24a2.4 2.4 0 0 0 1.645-.513 1.9 1.9 0 0 0 .58-1.504z" class="cls-2" data-name="Path 988" transform="translate(-28.153 -14.087)"/>
            <path id="Path_989" d="M257.282 105.145a3.213 3.213 0 0 1 2.168.656 2.469 2.469 0 0 1 .755 1.969v5.63h-1.179v-.8h-.034a3.335 3.335 0 0 1-1.288.765 4.444 4.444 0 0 1-1.221.183 3.417 3.417 0 0 1-.963-.141 2.556 2.556 0 0 1-.872-.447 2.275 2.275 0 0 1-.632-.786 2.609 2.609 0 0 1-.241-1.176 2.519 2.519 0 0 1 .224-1.076 2.345 2.345 0 0 1 .632-.82 2.883 2.883 0 0 1 .963-.522 3.9 3.9 0 0 1 1.221-.182 5.545 5.545 0 0 1 1.072.106 4.014 4.014 0 0 1 1.138.433v-1.005a1.759 1.759 0 0 0-.472-1.365 2.047 2.047 0 0 0-1.415-.427 3.957 3.957 0 0 0-1.108.149 6.522 6.522 0 0 0-1.026.4l-.4-.924a7 7 0 0 1 1.229-.449 5.659 5.659 0 0 1 1.445-.172m1.745 4.785a5.6 5.6 0 0 0-.994-.449 3.775 3.775 0 0 0-1.191-.166 2.118 2.118 0 0 0-1.34.424 1.453 1.453 0 0 0-.546 1.221 1.544 1.544 0 0 0 .463 1.213 1.944 1.944 0 0 0 1.341.416 2.894 2.894 0 0 0 1.233-.349 4.385 4.385 0 0 0 1.034-.764z" class="cls-2" data-name="Path 989" transform="translate(-32.073 -15.183)"/>
            <path id="Path_990" d="M271 113.459v-3.738h-4.254v3.738h-1.176v-8.124h1.179v3.356H271v-3.356h1.18v8.124H271" class="cls-2" data-name="Path 990" transform="translate(-35.609 -15.24)"/>
            <path id="Path_991" d="M283.59 105.382l-3.672 3.738 3.772 4.353h-1.412l-3.523-4.137v4.137h-1.18v-8.091h1.18v3.588l3.489-3.588h1.346" class="cls-2" data-name="Path 991" transform="translate(-39.209 -15.254)"/>
            <path id="Path_992" d="M164.042 94.9c.717-.57 1.309-.854 1.281-2.229-1.076.549-4.131.52-5.405-1.236-.361-.5.024-.75.373-.357.872.99 2.489.541 3.08.255a2.333 2.333 0 0 0-.576-.973c.221-.218.845-.541.974-1.1a7.816 7.816 0 0 0-1.631-.311 1.117 1.117 0 0 0 .314-1.221 3.721 3.721 0 0 1-3.33-.636c-.365-.481.008-.933.314-.615.66.694 3.91 1.487 5.12.282a1.8 1.8 0 0 1-1.035-.773 2.119 2.119 0 0 0 2.085-1.6 4.98 4.98 0 0 1-2.185-.344 1.374 1.374 0 0 0 1.044-.993c-2.047-.124-2.209-1.644-2.219-1.9 1.332.769 3.678.429 3.072-1.465-1.107-.06-2.226-1.853.823-3.5 2.771-1.5 5.923-3.116 5.646-5.779-.183-1.7-2.988-2.866-3.344-3.728-1.171.557-1.408 1.2-.879 2.288 0 0-2.607.26-2.813-1.346a2.459 2.459 0 0 1 .907-1.909c-.292 0-2.258-.526-2.85 1.075-1.1-.752-2.045-.725-2.787.069 1.185.7 1.918 3.115 3.877 3.827-1.393.756-3.646.438-4.961-1.881-1.243 1.874-1.959 3.73.708 5.711-4.855 2.21-4.82 6.431-9.042 8.444.429 1.15 1.332 1.15 2.482.97-1.826 2.373-.27 4.854-3.159 5.87.269.967.812 1.738 1.879 1.456-.3.473-.5.463-.975.983 1.58.995 3.453.274 3.878-2.918.076-.569.861-.213.589.345-1.8 3.725 2.753 6.526 1.142 9.258a5.684 5.684 0 0 0 3.1-.65 3.07 3.07 0 0 1 .4 1.7 1.243 1.243 0 0 0 1.124-1.155c.515 1.5 2.353 3.1 5.3 3.1-1.561-2.222-.108-4.478-2.312-7.02m-2.9 2.745l-.63 1.068a13.707 13.707 0 0 0-.895-1.952 1.924 1.924 0 0 1-2.071 1.068c.169-2.493-2.961-5-1.585-7.845a1.157 1.157 0 0 0-.5-1.563c-2.1-1.067-1.128 3.359-3.227 3.492a5.561 5.561 0 0 0 .613-1.644c-.446.116-1.516.8-2-.076a3.459 3.459 0 0 0 1.772-2.681 10.3 10.3 0 0 1 .6-2.392 13.38 13.38 0 0 1 1.559-2.2c-.21.032-2.573.529-3.1.281 4.084-2.509 3.163-5.7 9.393-8.541-1.633-1.213-3.3-2.18-2.106-4.5 1.707 2.05 4.949 1.34 6.7.388-1.731-.346-3.96-1.869-4.491-3.567.653-.1 1.5.606 1.984.936.234-.626.327-1.355 1.086-1.513-1.012 2.168.989 3.3 2.9 3.3.295 0 1.529-.123 1.529-.123-.2-.406-.994-1.514-.413-1.963a19.09 19.09 0 0 0 1.529 1.176c3.71 2.871-1.764 5.533-4 6.741-3.514 1.9-2.574 4.157-1.106 4.735-.006.256-.164.369-.408.448-1.026.343-1.991-.389-2.809-.859.05 1.417-.047 2.779 1.519 3.559l-1.08.395a4.065 4.065 0 0 0 2.329 1.224 5.075 5.075 0 0 1-1.725.3 4.119 4.119 0 0 0 .549 1.274c-2.288.272-3.2-1.034-3.91-.98-1.509.112-1.415 2.953 2.3 2.957l-.385.635a4.23 4.23 0 0 0 1.348.49c-.246.2-.485.468-.692.675l.593.51c-1.516.272-1.945-1.341-2.928-.562-1.5 1.188 1.806 3.7 4.977 3.322a10.325 10.325 0 0 1-1.333 1.1c2.584 2.441 1.309 4.738 2.372 6.421a4.679 4.679 0 0 1-4.263-3.551" class="cls-3" data-name="Path 992" transform="translate(-.935 -3.337)"/>
            <path id="Path_993" d="M158.636 90.982c.536.559 1.187.617 2.42.538-1.356-.163-2.115-.493-2.588-1.393a13.257 13.257 0 0 1-.137-1.491 10.343 10.343 0 0 1 1.414-4.983 3.483 3.483 0 0 0 2.981 3.306 3.667 3.667 0 0 1-2.351-4.4c.387-.618.823-1.255 1.309-1.9.245-.313.482-.614.715-.895-.249.9.842 1.833 1.571 1.988-.4-.385-1.244-1.64.716-3.735a8.938 8.938 0 0 0-1.61.983c3.561-3.848 6.486-3.955 7.831-5.891-1.948 1.331-7.1 2.049-9.419 1.421 1.278.855 4.36.776 5.113.618-2.512 2.443-8 4.965-8.948 7.21a6.4 6.4 0 0 1 3.357-2.113 22.252 22.252 0 0 0-2.3 3.943c-1.459 3.17-3.411 3.21-3.539 5.825.666-2.027 2.016-2.54 2.953-3.871a13.08 13.08 0 0 0-.213 2.88 8.974 8.974 0 0 0 .646 3.151 6.345 6.345 0 0 0 1.5 4.957 6.693 6.693 0 0 1-1.134-4.154c1.159 2.238 4.468 5.329 6.066 7.407-1.6-2.672-5.518-5.794-6.358-9.4" class="cls-3" data-name="Path 993" transform="translate(-2.509 -5.576)"/>
            <path id="Path_994" d="M208.16 80.24a6.409 6.409 0 0 1 3.356 2.113c-.948-2.245-6.438-4.768-8.951-7.211.756.159 3.836.238 5.115-.617-2.314.629-7.472-.09-9.42-1.421 1.346 1.935 4.27 2.044 7.832 5.891a8.866 8.866 0 0 0-1.61-.983c1.958 2.1 1.112 3.348.715 3.735.73-.155 1.82-1.085 1.571-1.988.234.281.473.582.716.895.49.647.923 1.284 1.309 1.9a3.67 3.67 0 0 1-2.348 4.4 3.478 3.478 0 0 0 2.978-3.306 10.3 10.3 0 0 1 1.413 4.983 13.109 13.109 0 0 1-.134 1.491c-.474.9-1.234 1.23-2.585 1.393 1.232.078 1.878.021 2.42-.538-.842 3.6-4.76 6.723-6.36 9.4 1.6-2.078 4.9-5.169 6.066-7.407a6.693 6.693 0 0 1-1.131 4.154 6.358 6.358 0 0 0 1.5-4.958 9.062 9.062 0 0 0 .644-3.15 12.75 12.75 0 0 0-.213-2.88c.938 1.331 2.288 1.844 2.955 3.871-.126-2.616-2.079-2.655-3.541-5.825a22.062 22.062 0 0 0-2.294-3.943" class="cls-3" data-name="Path 994" transform="translate(-15.427 -5.576)"/>
            <path id="Path_995" d="M213.455 83.934c1.149.179 2.053.179 2.481-.972-4.222-2.012-4.187-6.232-9.042-8.443 2.668-1.981 1.949-3.836.711-5.711-1.314 2.32-3.574 2.638-4.96 1.882 1.956-.712 2.691-3.123 3.875-3.827-.74-.793-1.687-.821-2.787-.069-.6-1.6-2.558-1.075-2.853-1.075a2.465 2.465 0 0 1 .907 1.909c-.2 1.606-2.812 1.346-2.812 1.346.525-1.085.292-1.732-.879-2.289-.358.863-3.161 2.026-3.341 3.728-.281 2.664 2.873 4.282 5.643 5.78 3.049 1.65 1.93 3.444.825 3.5-.613 1.894 1.736 2.234 3.069 1.465-.006.252-.174 1.772-2.221 1.9a1.384 1.384 0 0 0 1.047.994 5.016 5.016 0 0 1-2.187.343 2.122 2.122 0 0 0 2.087 1.594 1.8 1.8 0 0 1-1.035.775c1.209 1.2 4.458.412 5.12-.282.3-.317.674.134.314.615a3.723 3.723 0 0 1-3.331.636 1.127 1.127 0 0 0 .311 1.221 7.8 7.8 0 0 0-1.629.311c.126.557.755.879.974 1.1a2.345 2.345 0 0 0-.575.973c.593.286 2.211.734 3.077-.255.354-.393.737-.142.379.357-1.279 1.757-4.331 1.785-5.409 1.237-.03 1.374.564 1.659 1.281 2.23-2.2 2.54-.749 4.8-2.31 7.019 2.939 0 4.779-1.6 5.294-3.1a1.246 1.246 0 0 0 1.124 1.155 3.109 3.109 0 0 1 .4-1.7 5.707 5.707 0 0 0 3.1.65c-1.609-2.732 2.946-5.533 1.141-9.258-.268-.559.516-.914.592-.345.422 3.191 2.3 3.913 3.879 2.918-.477-.52-.672-.51-.975-.983 1.064.282 1.607-.489 1.88-1.456-2.89-1.015-1.335-3.5-3.162-5.87m.243 6.339a5.394 5.394 0 0 0 .607 1.645c-2.1-.134-1.125-4.561-3.226-3.494a1.155 1.155 0 0 0-.494 1.563c1.374 2.844-1.757 5.351-1.582 7.845a1.929 1.929 0 0 1-2.079-1.068 13.871 13.871 0 0 0-.893 1.952l-.629-1.068a4.685 4.685 0 0 1-4.263 3.551c1.057-1.683-.212-3.98 2.371-6.421a10.11 10.11 0 0 1-1.333-1.1c3.172.375 6.479-2.134 4.976-3.322-.981-.779-1.414.835-2.925.562l.592-.51c-.207-.207-.449-.474-.693-.675a4.207 4.207 0 0 0 1.348-.49l-.385-.635c3.715 0 3.8-2.845 2.3-2.957-.706-.054-1.625 1.253-3.911.982a4.3 4.3 0 0 0 .55-1.276 5.081 5.081 0 0 1-1.725-.3 4.067 4.067 0 0 0 2.327-1.224l-1.076-.395c1.563-.78 1.468-2.143 1.514-3.559-.815.471-1.783 1.2-2.806.859-.244-.079-.4-.192-.409-.448 1.468-.578 2.4-2.836-1.106-4.735-2.238-1.208-7.714-3.87-4-6.741.506-.388 1.059-.737 1.527-1.176.582.449-.214 1.556-.413 1.963 0 0 1.234.124 1.526.124 1.913-.01 3.917-1.139 2.9-3.306.759.158.849.887 1.08 1.513.488-.33 1.334-1.037 1.988-.936-.531 1.7-2.758 3.221-4.491 3.567 1.75.952 4.994 1.662 6.7-.388 1.2 2.318-.47 3.285-2.105 4.5 6.229 2.842 5.311 6.031 9.4 8.54-.528.248-2.9-.251-3.107-.281a13.21 13.21 0 0 1 1.565 2.2 10.406 10.406 0 0 1 .6 2.392 3.472 3.472 0 0 0 1.773 2.68c-.48.872-1.549.193-1.99.076" class="cls-3" data-name="Path 995" transform="translate(-14.371 -3.337)"/>
            <path id="Path_996" d="M179.228 107.864l.889-.753-.136-.272c-.1-.191-.045-.206.059-.281l.466-.349a.372.372 0 0 1 .358-.046l1.405.33h-1.484a.569.569 0 0 0-.566.408l-.1.21-.383.784a.888.888 0 0 0 .144 1.038l.27.319-.547 1.109h.461l.378-.771a2.5 2.5 0 0 0 .706-1.066c-.16-.13-.275-.222-.186-.407l.172-.366c.055-.123.076-.173.239-.139l1.479.32a.512.512 0 0 0 .651-.166c.2-.31.23-.276.7-.228l.754.079a3.973 3.973 0 0 0 2.461-.478 9.626 9.626 0 0 0 .549.814c.048.092-.031.223-.1.384l-.846 2.023h1.305l.739-1.848a1.051 1.051 0 0 1 .246-.384l-.424 2.233h1.265l.337-2.213c.074-.489.03-.649-.205-.849-.529-.445-.517-1.382-.688-1.951a.512.512 0 0 1 .319-.063c.277.028.484.732.809 1.185.646.911 1.535 1.917 2.549.5a3.292 3.292 0 0 0-.329-.45l-.282-.33c-.165-.184-.951-1.082-1.276-1.406a1.907 1.907 0 0 0-2.34-.272 3.51 3.51 0 0 0-2.374.007l-1.774-.106a.353.353 0 0 1-.289-.171l.328-.108a3.012 3.012 0 0 0-2.439-2.544s-.079-.406-.285-.485l-.4.478a1.322 1.322 0 0 0-.341.095l-1.729-.643 1.3 1.311s-.674.954-.865 1.148a.35.35 0 0 0 .027.49l.253.33c.131.169.272.165.48.057l.285-.148c.122-.1.541.1.718-.062a5.2 5.2 0 0 0-.2 1.018l-1.165-.141a.592.592 0 0 0-.527.122l-.993.765a.862.862 0 0 0-.225 1.1l.4.84m9.626.221l-.789 1.946h-.491l.788-1.884c.082-.242-.073-.357-.27-.624a5.749 5.749 0 0 0 .858.41.949.949 0 0 0-.1.152m-7.612-4.217l-.227.12c-.155.09-.235.131-.37-.04l-.1-.123a.257.257 0 0 1 .036-.314l.968-1.131-.893-.732 1.138.419.416-.519c.122.105.079.4.079.4a2.31 2.31 0 0 1 1.85 2.33 1.107 1.107 0 0 0 .688.471l1.971.119a2.641 2.641 0 0 1 2.193-.034 2.116 2.116 0 0 1 .842-.321 2.555 2.555 0 0 1 2.113 1.225c.37.47.878 1.19.878 1.19-.218.259-.434.347-.613.281a.906.906 0 0 1-.449-.664 2.146 2.146 0 0 0-.671-.9 4.179 4.179 0 0 1 .305 1.031c-.77-.761-.917-1.694-1.454-1.82a.79.79 0 0 0-.774.341c.272.629.259 1.36.537 1.848.211.365.254.4.35.478.228.163.1.455.063.669l-.292 1.83h-.491l.323-1.792c.1-.545-1.433-.545-2.217-1.585-.669.78-2.543.585-3.352.463a.721.721 0 0 0-.828.295c-.1.182-.281.127-.389.1l-1.478-.319a.354.354 0 0 0-.487.23l-.3.613a.275.275 0 0 0 .055.362l.141.151a1.214 1.214 0 0 1-.351.518l-.323-.363a.643.643 0 0 1-.039-.71l.478-1a.384.384 0 0 1 .36-.23l1.83-.03-.561-.912c-.418-.685.274-1.9.172-2.481-.052.773-.984.419-1.13.525m-1.988 2.3l.868-.66a.539.539 0 0 1 .431-.168l1.223.16a1.993 1.993 0 0 0 .262.581l-1.3-.274a.449.449 0 0 0-.412.111l-.615.466a.306.306 0 0 0-.056.395l.1.216-.432.326-.162-.309c-.168-.333-.179-.633.1-.843" class="cls-3" data-name="Path 996" transform="translate(-9.57 -13.95)"/>
            <path id="Path_997" d="M184.635 74.585a9.049 9.049 0 0 0 1.314.678V74.7L184.1 74s0 .225.534.587" class="cls-3" data-name="Path 997" transform="translate(-11.182 -5.844)"/>
            <path id="Path_998" d="M185.842 73.316v-.553l-2.1-.75a5.132 5.132 0 0 0 .784.632 8.9 8.9 0 0 0 1.314.671" class="cls-3" data-name="Path 998" transform="translate(-11.075 -5.249)"/>
            <path id="Path_999" d="M185.757 71.471v-.56l-2.3-.844s.448.364.982.727a9.05 9.05 0 0 0 1.314.678" class="cls-3" data-name="Path 999" transform="translate(-10.99 -4.665)"/>
            <path id="Path_1000" d="M195.947 82.64h2.353a1.089 1.089 0 0 0-1.148-.683 1.321 1.321 0 0 0-1.2.683" class="cls-3" data-name="Path 1000" transform="translate(-14.734 -8.23)"/>
            <path id="Path_1001" d="M191.459 70.066l-2.291.844v.56a8.847 8.847 0 0 0 1.311-.678c.535-.363.98-.727.98-.727" class="cls-3" data-name="Path 1001" transform="translate(-12.701 -4.665)"/>
            <path id="Path_1002" d="M191.014 74l-1.846.706v.559a9.063 9.063 0 0 0 1.312-.678c.534-.362.534-.587.534-.587" class="cls-3" data-name="Path 1002" transform="translate(-12.701 -5.844)"/>
            <path id="Path_1003" d="M191.262 72.013l-2.094.75v.553a8.81 8.81 0 0 0 1.312-.671 5.062 5.062 0 0 0 .782-.632" class="cls-3" data-name="Path 1003" transform="translate(-12.701 -5.249)"/>
            <path id="Path_1004" d="M177.745 81.957a1.084 1.084 0 0 0-1.145.683h2.348a1.326 1.326 0 0 0-1.2-.683" class="cls-3" data-name="Path 1004" transform="translate(-8.933 -8.23)"/>
            <path id="Path_1005" d="M188.018 66.851c0-1.321-2.218-2.5-4.664-2.5s-4.666 1.183-4.666 2.5l.052.321.973 5.608-4.624 2.7a2.766 2.766 0 0 0-1.189 1.88h.844a1.877 1.877 0 0 1 1.954-1.633 2.976 2.976 0 0 1 2.326 1.633l.162.246.233.366h-6.8a7.348 7.348 0 0 1 .975 3.221v14.141c0 3.637 2.8 5.37 5.822 5.37 2.336 0 2.651-.105 3.941 1.183 1.286-1.288 1.6-1.183 3.941-1.183 3.025 0 5.821-1.732 5.821-5.37V81.193a7.333 7.333 0 0 1 .971-3.221h-6.8l.236-.366.162-.246a2.969 2.969 0 0 1 2.325-1.633 1.876 1.876 0 0 1 1.951 1.633h.844a2.764 2.764 0 0 0-1.185-1.886l-4.624-2.7.975-5.608.048-.321m-8.382.642l3.45 1.173v5.4l-2.54-1.337zm.846 11.457a3.394 3.394 0 0 0 2.061 1.262 1.775 1.775 0 0 0 .6.975 1.738 1.738 0 0 0 1.309 2.1 1.363 1.363 0 0 0 .925 1.039l-.723.833a1.055 1.055 0 0 1-.933.385l-3.223-.366c.139-.359-.232-.774-1.251-.6l1.267-3.541-.774-1.645-1.464 1.25-.108 3.716-.621-.307c-.821-.351-1.059 1.127-.281 1.132h.308a.348.348 0 0 0 .146.371.253.253 0 0 0-.006.435.3.3 0 0 0-.061.491.671.671 0 0 0 .377 1.014c.46.123.751-.377.847-.665l5.013 1.552a1.706 1.706 0 0 0 1.806-.427l1.3-1.126a1.359 1.359 0 0 0 .674 1.645 6.742 6.742 0 0 0-.055.973h-13.048v-8.247a6.518 6.518 0 0 0-.487-2.243zm5.393 3.129a1.7 1.7 0 0 0 .076 1.684l-.215.211c-.94-.116-1.311-1.519-1.311-1.519a2.309 2.309 0 0 0-.028.373 1.312 1.312 0 0 1-.868-1.358 2.2 2.2 0 0 0 .69.243l.064-.412a1.435 1.435 0 0 1-1.19-1.01l-.087-.015c.116.011.232.02.351.02a3.93 3.93 0 0 0 1.106-.162 1.813 1.813 0 0 0 1.244.721 1.99 1.99 0 0 0 .167 1.223m1.393 3.712a1.413 1.413 0 0 0-.221.433l-.524.482a2.528 2.528 0 0 0-.881-2.044l.559-.548.109.111a1.289 1.289 0 0 0 .958 1.565m-2.533-.242l.431-.423a2.356 2.356 0 0 1 .831 2.064l-.471.429a1.627 1.627 0 0 1-.3.228 2.568 2.568 0 0 0-.5-2.291m-.93.358h.014a.9.9 0 0 0 .476-.066 2.361 2.361 0 0 1 .191 2.21 2.363 2.363 0 0 1-.648-.094l-.163-.049a2.838 2.838 0 0 0 .13-2m-1.091-.135l.61.077a2.984 2.984 0 0 1-.29 1.878l-.709-.207a2.907 2.907 0 0 0 .389-1.748m-1.269-.155l.739.088a2.925 2.925 0 0 1-.344 1.679l-.752-.218a2.422 2.422 0 0 0 .358-1.549m-2.988-.2a.334.334 0 0 1-.48-.347 1.157 1.157 0 0 1 1.171.039c.182.114.331.438.576.642a5.472 5.472 0 0 1-.225.944.719.719 0 0 1-.466-1.155.463.463 0 0 0-.576-.122m-.482 1.345a1.622 1.622 0 0 0 .465.108.268.268 0 0 1-.315.24.251.251 0 0 1-.15-.348m-.679-1.973a.2.2 0 0 1 .1-.363c.207.006.483.241.758.358a2.644 2.644 0 0 1-.854 0m.7 1.433c.146.144.594.089.594.089l.018.089c-.2.26-.737.144-.611-.178m.6-.3c-.32.13-.646-.045-.545-.253.148.137.562.069.562.069zm.469-3.713l-.609 2.229.208-3.593.947-.809.489 1.068-1.218 3.488.321-2.348c.031-.165-.1-.182-.13-.023m.046 2.7a3.9 3.9 0 0 1 .871.039c.143.06.046.3-.136.272a3.869 3.869 0 0 1-.735-.311m1.066.543l.741.092a2.447 2.447 0 0 1-.316 1.477l-.717-.208a4.588 4.588 0 0 0 .291-1.361m11.96 9.877a4.075 4.075 0 0 1-2.116 3.752l.475-.964h-.459l-.608 1.234a5.992 5.992 0 0 1-2.135.369c-2.413 0-3.051.1-3.941.988-.9-.889-1.533-.988-3.941-.988a6.08 6.08 0 0 1-2.127-.363h.018l.607-1.24h-.459l-.534 1.084a3.572 3.572 0 0 1-.37-.2l.44-.889h-.454l-.327.662a4.117 4.117 0 0 1-1.641-3.45v-5.406h17.569zm.489-16.384a6.38 6.38 0 0 0-.492 2.243v8.248h-.959a5.6 5.6 0 0 1-.8-1.83 2.289 2.289 0 0 0 .291 1.83h-1.236a7.245 7.245 0 0 1-.571-1.878c-.37.421-.135 1.562.094 1.878h-.82a4.123 4.123 0 0 1 .115-1.224c-.428-.079-.885-.306-.884-.784a.64.64 0 0 0 .606.2l.349-.275c-1.159.036-1.211-1.232-.3-1.827-.915.029-1.6-.515-1.266-1.491a1.341 1.341 0 0 1-.4-1.925 1.644 1.644 0 0 1-.184-1.629 1.811 1.811 0 0 1-1.272-.5.52.52 0 0 1-.073.026 3.217 3.217 0 0 0 1.4-1.057zm-3.5-3.97c-.953.166-1.771 1.332-2.442 2.381l-.076.122h-.715v.124a2.328 2.328 0 0 1-2.544 1.911 2.781 2.781 0 0 1-1.782-.568 2.085 2.085 0 0 1-.681-.977 1.684 1.684 0 0 1-.077-.366l-.006-.124h-.71l-.078-.122c-.675-1.048-1.493-2.215-2.441-2.381l2.593-1.5 3.184 1.731 3.181-1.731zm-2.971-2.252l-2.543 1.337v-5.4l3.453-1.173zm-2.807-4.653l-3.77-1.489c.319-.758 1.8-1.4 3.77-1.4s3.448.646 3.768 1.4z" class="cls-3" data-name="Path 1005" transform="translate(-7.74 -2.95)"/>
            <path id="Path_1006" d="M199.23 91.986v-.414c-1.267-.029-1.56-1.528-1.56-1.528a1.526 1.526 0 0 0 1.555 1.942" class="cls-3" data-name="Path 1006" transform="translate(-15.228 -10.655)"/>
            <path id="Path_1007" d="M196.857 95.652l-.129-.392c-1.08.277-1.638-1.437-1.638-1.437a1.459 1.459 0 0 0 1.767 1.83" class="cls-3" data-name="Path 1007" transform="translate(-14.459 -11.788)"/>
            <path id="Path_1008" d="M197.922 93.609c-1.292.205-1.823-1.3-1.823-1.3a1.462 1.462 0 0 0 1.242 1.737A1.132 1.132 0 0 0 199 95.282l-.124-.371a.839.839 0 0 1-.954-1.3" class="cls-3" data-name="Path 1008" transform="translate(-14.773 -11.334)"/>
            <path id="Path_1009" d="M196.909 87.2l.01-.413c-1.7-.353-1.561-1.526-1.561-1.526a1.522 1.522 0 0 0 1.551 1.939" class="cls-3" data-name="Path 1009" transform="translate(-14.533 -9.222)"/>
            <path id="Path_1010" d="M181.907 112.585l-.613 1.24h.461l.611-1.24h-.459" class="cls-3" data-name="Path 1010" transform="translate(-10.341 -17.414)"/>
            <path id="Path_1011" d="M183.223 112.585l-.61 1.24h.463l.6-1.24h-.458" class="cls-3" data-name="Path 1011" transform="translate(-10.736 -17.414)"/>
            <path id="Path_1012" d="M188.5 112.585l-.608 1.24h.457l.611-1.24h-.46" class="cls-3" data-name="Path 1012" transform="translate(-12.319 -17.414)"/>
            <path id="Path_1013" d="M189.821 112.585l-.615 1.24h.462l.608-1.24h-.455" class="cls-3" data-name="Path 1013" transform="translate(-12.713 -17.414)"/>
            <path id="Path_1014" d="M187.182 112.585l-.613 1.24h.461l.61-1.24h-.458" class="cls-3" data-name="Path 1014" transform="translate(-11.922 -17.414)"/>
            <path id="Path_1015" d="M195.148 113.825h.459l.611-1.24h-.46l-.609 1.24" class="cls-3" data-name="Path 1015" transform="translate(-14.494 -17.414)"/>
            <path id="Path_1016" d="M184.543 112.585l-.608 1.24h.46l.609-1.24h-.461" class="cls-3" data-name="Path 1016" transform="translate(-11.132 -17.414)"/>
            <path id="Path_1017" d="M185.859 112.585l-.609 1.24h.462l.609-1.24h-.462" class="cls-3" data-name="Path 1017" transform="translate(-11.527 -17.414)"/>
            <path id="Path_1018" d="M183.069 103.074a.177.177 0 0 0-.157.19.161.161 0 1 0 .319 0 .177.177 0 0 0-.162-.19" class="cls-3" data-name="Path 1018" transform="translate(-10.826 -14.562)"/>
            <path id="Path_1019" d="M185.666 61.557a6.94 6.94 0 0 1 4.247 1.3 8.482 8.482 0 0 1 1.1-2.824l-1.525.172-.8-1.7-1.535.8-1.487-1.477-1.487 1.477-1.538-.8-.8 1.7-1.524-.172a8.411 8.411 0 0 1 1.1 2.824 6.939 6.939 0 0 1 4.25-1.3m-3.561-.675l.725-1.541 1.349.716 1.486-1.468 1.489 1.468 1.346-.716.721 1.541.893-.139a7.05 7.05 0 0 0-.562 1.334 7.977 7.977 0 0 0-7.774 0 6.965 6.965 0 0 0-.564-1.334z" class="cls-3" data-name="Path 1019" transform="translate(-10.048 -.997)"/>
            <path id="Path_1020" d="M190.021 58.309a.406.406 0 0 0 .437-.37 2.521 2.521 0 0 0-.3-.811s-.485.521-.5.744a.406.406 0 0 0 .365.436" class="cls-3" data-name="Path 1020" transform="translate(-12.847 -.786)"/>
            <path id="Path_1021" d="M193.656 59.667a.4.4 0 0 0 .545-.17 2.493 2.493 0 0 0 .037-.862s-.646.288-.751.487a.409.409 0 0 0 .168.545" class="cls-3" data-name="Path 1021" transform="translate(-13.983 -1.238)"/>
            <path id="Path_1022" d="M185.539 58.309a.4.4 0 0 0 .368-.436c-.02-.223-.5-.744-.5-.744a2.538 2.538 0 0 0-.3.811.4.4 0 0 0 .433.37" class="cls-3" data-name="Path 1022" transform="translate(-11.483 -.786)"/>
            <path id="Path_1023" d="M181.9 59.667a.4.4 0 0 0 .166-.545c-.1-.2-.748-.487-.748-.487a2.479 2.479 0 0 0 .041.862.4.4 0 0 0 .542.17" class="cls-3" data-name="Path 1023" transform="translate(-10.342 -1.238)"/>
            <path id="Path_1024" d="M221.725 76.624a2.164 2.164 0 0 0 1.149-1.167c-1.354-.2-4.954-1.706-7.911-.477 1.108-1.052 2.1-1.187 2.2-2.7a1.07 1.07 0 0 0 1.674-.272c-.3-.9-1.077-.172-1.183-.42-.152-.343.972.109 1.213-1.063-.874-.3-1.135.413-1.29.248s.555-.458.04-1.4c-.91.531-.436 1.131-.627 1.2-.235.094-.051-.639-1.055-.6-.1 1.078.945 1.114.772 1.286-.2.21-.477-.621-1.236-.2a1.121 1.121 0 0 0 1.447 1.144c-.118 1.657-1.636 1.348-2.768 3.212 2.4 1.229 3.478 3.372 4.953 4.851a8.477 8.477 0 0 0 1.321-1.881 1.935 1.935 0 0 0 2.718 0c-.55-.561-.57-.989-1.411-1.755m-2.324.3a2.7 2.7 0 0 1-.29 2.61 10.924 10.924 0 0 0-3.1-3.956c-.217-.139.118-.389.727-.469 1.845-.349 4 .433 5.032.705a2.658 2.658 0 0 1-1.356.58 8.292 8.292 0 0 1 1.678 1.746c-.726.181-1.131-.278-2.69-1.216" class="cls-3" data-name="Path 1024" transform="translate(-20.19 -4.457)"/>
            <path id="Path_1025" d="M191.74 118.741v-2.021a18.522 18.522 0 0 1-6.108 1.528l-.117.722c.218.03.492.057.861.081a20.955 20.955 0 0 1-5.689 0c.366-.023.64-.05.858-.081l-.116-.722a18.5 18.5 0 0 1-6.109-1.528v2.021l-2.119.87a25.688 25.688 0 0 0 5.463 2.022l-.246.847a18.84 18.84 0 0 0 10.222 0l-.247-.847a25.686 25.686 0 0 0 5.466-2.022l-2.121-.87m-17.407.92l1.431-.576v-1.65a23.968 23.968 0 0 0 3.854 1.08l-.81 2.644a23.612 23.612 0 0 1-4.475-1.5m9.2 3.044a19.308 19.308 0 0 1-4.538-.572l.858-2.77a22.28 22.28 0 0 0 7.359 0l.859 2.77a19.386 19.386 0 0 1-4.539.572m4.723-1.545l-.812-2.644a24 24 0 0 0 3.854-1.08v1.65l1.427.576a23.342 23.342 0 0 1-4.469 1.5" class="cls-3" data-name="Path 1025" transform="translate(-7.914 -18.653)"/>
            <path id="Path_1026" d="M151.639 78.374a8.5 8.5 0 0 0 1.318 1.881c1.476-1.479 2.561-3.622 4.954-4.851-1.133-1.865-2.654-1.552-2.764-3.211a1.124 1.124 0 0 0 1.446-1.145c-.762-.417-1.033.412-1.239.2-.171-.175.872-.207.772-1.285-1.005-.031-.819.7-1.057.6-.188-.068.284-.667-.628-1.2-.513.948.188 1.243.043 1.4s-.418-.548-1.288-.248c.235 1.171 1.362.72 1.209 1.063-.106.249-.877-.481-1.179.422a1.066 1.066 0 0 0 1.669.272c.1 1.518 1.089 1.643 2.2 2.7-2.958-1.23-6.558.279-7.916.478a2.155 2.155 0 0 0 1.15 1.161c-.837.774-.857 1.2-1.408 1.759a1.934 1.934 0 0 0 2.718 0m-1.675-.232a8.131 8.131 0 0 1 1.68-1.744 2.684 2.684 0 0 1-1.36-.583c1.029-.272 3.194-1.054 5.036-.705.606.08.948.33.726.469a10.927 10.927 0 0 0-3.1 3.955 2.708 2.708 0 0 1-.286-2.608c-1.556.938-1.963 1.4-2.691 1.216" class="cls-3" data-name="Path 1026" transform="translate(-.634 -4.457)"/>
            <path id="Path_1027" d="M186.1 80.621v.89a1.117 1.117 0 0 1 .9-.3v1.281a1.917 1.917 0 0 1-.244.906h1.283a1.929 1.929 0 0 1-.244-.906v-1.279a1.112 1.112 0 0 1 .9.3v-.89H186.1" class="cls-3" data-name="Path 1027" transform="translate(-11.782 -7.83)"/>
            <path id="Path_1028" d="M203.713 73.174a2.858 2.858 0 0 1-.378-.508c-.067-.1-.139-.213-.222-.333a3.51 3.51 0 0 0 .557-.889l.573-1.306-1.411-.2c-.239-.036-.622-.137-1.07-.254a21.068 21.068 0 0 0-3.188-.645 2.157 2.157 0 0 0 1.01-.951l.232-.418s-.062-.587-.29-.77a2.559 2.559 0 0 0 .2-.6l.191-.935-.9-.309a2.514 2.514 0 0 0-.419-.106 2.856 2.856 0 0 0-.23-.543l-.536-.982-.966.566a2.594 2.594 0 0 0-.608.482 2.538 2.538 0 0 0-.46-.041 2.859 2.859 0 0 0-1.161.16l-.779-.807-.921-.985a2.84 2.84 0 0 0-3.221-.741 3.06 3.06 0 0 0-2.264-.83 6.57 6.57 0 0 0-.893.071 5.417 5.417 0 0 0-2.367 1.085l-1.033-.492a3.68 3.68 0 0 1-1.877 1.436 2.571 2.571 0 0 0-.416-.888l.068-.385a7.372 7.372 0 0 1 .941-2.415l1.232-1.918-1.746.2a4.882 4.882 0 0 0-.028-.621l-.156-1.493-1.369.618a6.467 6.467 0 0 0-.4.2l-.27-.576-.627.326a4.866 4.866 0 0 0-.254-.531l-.723-1.324-1.026 1.106a4.793 4.793 0 0 0-.271.319l-.622-.619-.626.622a7.01 7.01 0 0 0-.269-.318l-1.02-1.125-.725 1.331a5.238 5.238 0 0 0-.253.531l-.625-.325-.272.576a6.192 6.192 0 0 0-.4-.2l-1.374-.618-.152 1.5a4.79 4.79 0 0 0-.027.616l-1.749-.2 1.236 1.92a7.327 7.327 0 0 1 .94 2.41l.064.385a2.582 2.582 0 0 0-.417.891 5.317 5.317 0 0 1-1.867-1.437l-1.055.5a5.333 5.333 0 0 0-3.245-1.165 2.942 2.942 0 0 0-2.263.829 2.838 2.838 0 0 0-3.217.742s-.565.614-.923.985a4.775 4.775 0 0 1-.884.681 3.835 3.835 0 0 0-1.518.009 2.606 2.606 0 0 0-.613-.486l-.968-.564-.533.987a2.766 2.766 0 0 0-.225.538 2.515 2.515 0 0 0-.419.106l-.9.309.188.93a2.446 2.446 0 0 0 .2.606 2.194 2.194 0 0 0-.136.317l-.152.452.23.418a2.147 2.147 0 0 0 1.008.952 21.06 21.06 0 0 0-3.19.646c-.445.118-.831.218-1.069.254l-1.418.2.322.73.258.58a3.642 3.642 0 0 0 .56.882 9.7 9.7 0 0 1-.6.839l-.716.73.688.758a2.979 2.979 0 0 0 2.1.9 3.034 3.034 0 0 0 1.015-.178 5.072 5.072 0 0 0 1.096 1.316 7.3 7.3 0 0 1-2.491 1.966l-.9.427.385 1.025a2.51 2.51 0 0 0 1.685 1.558 10.682 10.682 0 0 0-.386 1.69c-.2 1.214-.288 1.717-1.357 2.092l-.96.336.274.979a3.593 3.593 0 0 0 .914 1.672l-.637.7a7.086 7.086 0 0 0 3 1.274 2.431 2.431 0 0 0 1.855-.641 14.15 14.15 0 0 0 .918 2.266c.671 1.41 1.027 2.246.578 3.008l-1.013 1.719 1.994-.083a12.242 12.242 0 0 0 2.378-.263.918.918 0 0 1-.006.11L157.764 98l1.747-.368a2.719 2.719 0 0 0 .514-.212 6.944 6.944 0 0 0 5.4 2.252h.144l-2.847 1.169 2.073 1.079a25.194 25.194 0 0 0 4.612 1.811l-.241.829 1.041.3a19.853 19.853 0 0 0 10.83 0l1.039-.3-.242-.828a25.214 25.214 0 0 0 4.616-1.812l2.074-1.079-2.85-1.169h.144a6.94 6.94 0 0 0 5.394-2.252 2.894 2.894 0 0 0 .513.212l1.746.368-.16-1.475c0-.036-.006-.072-.006-.111a12.349 12.349 0 0 0 2.378.261l1.991.083-1.01-1.718c-.45-.762-.092-1.6.577-3.008a14.081 14.081 0 0 0 .914-2.266 3.069 3.069 0 0 0 1.208.559 2.794 2.794 0 0 0 .625.1 2.969 2.969 0 0 0 1.928-.606l1.1-.692-.643-.7a3.592 3.592 0 0 0 .914-1.667l.277-.982-.962-.336c-1.071-.375-1.154-.878-1.358-2.091a10.594 10.594 0 0 0-.386-1.69 2.519 2.519 0 0 0 1.685-1.558l.384-1.026-.9-.426a7.293 7.293 0 0 1-2.492-1.966 5.129 5.129 0 0 0 1.091-1.305 3.043 3.043 0 0 0 1.013.178 2.973 2.973 0 0 0 2.1-.9l.688-.757-.714-.732" class="cls-4" data-name="Path 1028"/>
            <path id="Path_1029" d="M175.2 95.7v-8.243a6.465 6.465 0 0 0-.488-2.242h6.4a3.736 3.736 0 0 0 5.743 0h6.4a6.358 6.358 0 0 0-.49 2.242V95.7H175.2m8.784 11.269c-.9-.89-1.533-.988-3.945-.988-2.88 0-4.839-1.689-4.839-4.389v-5.405h17.565v5.407c0 2.7-1.954 4.389-4.841 4.389-2.413 0-3.051.1-3.941.988" class="cls-5" data-name="Path 1029" transform="translate(-8.368 -9.207)"/>
            <path id="Path_1030" d="M176.252 117.745v1.647l-1.429.576a23.507 23.507 0 0 0 4.471 1.5l.811-2.641a24.3 24.3 0 0 1-3.854-1.08" class="cls-4" data-name="Path 1030" transform="translate(-8.4 -18.961)"/>
            <path id="Path_1031" d="M186.013 120.8a19.211 19.211 0 0 1-3.679-.307l-.857 2.771a18.276 18.276 0 0 0 9.074 0l-.86-2.771a19.209 19.209 0 0 1-3.677.307" class="cls-4" data-name="Path 1031" transform="translate(-10.395 -19.785)"/>
            <path id="Path_1032" d="M197.394 117.745a24.308 24.308 0 0 1-3.853 1.08l.813 2.641a23.347 23.347 0 0 0 4.468-1.5l-1.428-.576v-1.647" class="cls-4" data-name="Path 1032" transform="translate(-14.013 -18.961)"/>
            <path id="Path_1033" d="M166.193 75.9c2.238-1.208 7.71-3.868 4-6.738-.506-.389-1.061-.739-1.53-1.176-.579.447.218 1.554.416 1.96 0 0-1.234.125-1.531.125-1.907-.008-3.908-1.138-2.9-3.3-.76.157-.853.886-1.085 1.512-.487-.329-1.332-1.037-1.984-.937.53 1.7 2.76 3.222 4.489 3.568-1.75.953-4.992 1.661-6.7-.389-1.2 2.316.471 3.285 2.1 4.5-6.225 2.841-5.307 6.028-9.391 8.536.53.249 2.892-.251 3.1-.281a13.533 13.533 0 0 0-1.56 2.194 10.417 10.417 0 0 0-.6 2.393 3.458 3.458 0 0 1-1.77 2.681c.48.87 1.549.19 1.995.074a5.625 5.625 0 0 1-.612 1.645c2.1-.135 1.127-4.558 3.226-3.493a1.159 1.159 0 0 1 .5 1.564c-1.378 2.843 1.755 5.35 1.584 7.842a1.925 1.925 0 0 0 2.072-1.067 14.089 14.089 0 0 1 .895 1.951l.628-1.068a4.674 4.674 0 0 0 4.263 3.548c-1.063-1.681.21-3.978-2.371-6.419a10.177 10.177 0 0 0 1.331-1.1c-3.169.372-6.475-2.134-4.975-3.324.982-.776 1.411.836 2.926.565l-.592-.512c.208-.205.445-.474.691-.675a4.187 4.187 0 0 1-1.346-.49l.384-.634c-3.712 0-3.807-2.843-2.3-2.957.709-.052 1.624 1.253 3.91.982a4.092 4.092 0 0 1-.547-1.278 5 5 0 0 0 1.722-.3 4.06 4.06 0 0 1-2.327-1.222l1.08-.4c-1.565-.78-1.469-2.141-1.519-3.559.819.471 1.782 1.2 2.808.861.244-.082.4-.195.407-.449-1.468-.578-2.406-2.836 1.106-4.735m-2.676.223c-1.96 2.1-1.112 3.349-.716 3.736-.73-.158-1.819-1.087-1.571-1.988-.232.279-.469.58-.715.892a27.498 27.498 0 0 0-1.308 1.9 3.663 3.663 0 0 0 2.349 4.4 3.479 3.479 0 0 1-2.979-3.3 10.329 10.329 0 0 0-1.412 4.982 13.036 13.036 0 0 0 .134 1.491c.473.9 1.233 1.228 2.586 1.392-1.231.078-1.881.021-2.418-.54.84 3.6 4.757 6.722 6.353 9.394-1.6-2.077-4.9-5.168-6.062-7.4a6.679 6.679 0 0 0 1.132 4.153 6.349 6.349 0 0 1-1.5-4.955 8.977 8.977 0 0 1-.645-3.151 13.06 13.06 0 0 1 .212-2.877c-.936 1.33-2.287 1.843-2.953 3.868.129-2.613 2.08-2.653 3.539-5.822a22.318 22.318 0 0 1 2.3-3.943 6.405 6.405 0 0 0-3.355 2.112c.949-2.244 6.432-4.766 8.944-7.208-.753.159-3.833.237-5.111-.616 2.317.628 7.471-.09 9.418-1.421-1.344 1.933-4.269 2.042-7.83 5.887a9.168 9.168 0 0 1 1.611-.982" class="cls-4" data-name="Path 1033" transform="translate(-1.335 -3.675)"/>
            <path id="Path_1034" d="M214.231 87.859a10.442 10.442 0 0 0-.6-2.392 13.124 13.124 0 0 0-1.564-2.2c.211.03 2.578.529 3.107.281-4.084-2.509-3.166-5.7-9.393-8.536 1.636-1.213 3.3-2.182 2.107-4.5-1.706 2.05-4.95 1.342-6.7.389 1.733-.346 3.959-1.872 4.489-3.568-.655-.1-1.5.608-1.986.936-.232-.625-.322-1.355-1.082-1.513 1.015 2.168-.989 3.3-2.9 3.306-.292 0-1.525-.125-1.525-.125.2-.406.993-1.514.412-1.96-.467.437-1.019.787-1.527 1.176-3.71 2.869 1.766 5.531 4 6.738 3.507 1.9 2.573 4.156 1.106 4.735 0 .254.164.367.408.449 1.022.34 1.989-.39 2.8-.861-.047 1.416.051 2.779-1.514 3.559l1.077.4a4.059 4.059 0 0 1-2.325 1.222 5.029 5.029 0 0 0 1.722.3 4.3 4.3 0 0 1-.55 1.276c2.287.271 3.205-1.034 3.91-.982 1.5.113 1.414 2.953-2.3 2.957l.385.636a4.184 4.184 0 0 1-1.348.489c.245.2.487.469.694.675l-.593.512c1.512.271 1.944-1.342 2.925-.565 1.5 1.19-1.8 3.7-4.975 3.324a10.29 10.29 0 0 0 1.334 1.1c-2.584 2.439-1.315 4.737-2.371 6.42a4.689 4.689 0 0 0 4.263-3.55l.627 1.068a14.344 14.344 0 0 1 .893-1.951 1.927 1.927 0 0 0 2.077 1.067c-.175-2.492 2.956-5 1.582-7.842a1.158 1.158 0 0 1 .494-1.564c2.1-1.065 1.127 3.358 3.226 3.493a5.445 5.445 0 0 1-.608-1.645c.444.116 1.51.8 1.991-.075a3.472 3.472 0 0 1-1.771-2.68m-3.928-3.614a12.768 12.768 0 0 1 .212 2.877 9.056 9.056 0 0 1-.645 3.151 6.345 6.345 0 0 1-1.5 4.955 6.71 6.71 0 0 0 1.133-4.153c-1.164 2.237-4.467 5.328-6.066 7.4 1.6-2.672 5.517-5.793 6.358-9.394-.541.561-1.187.618-2.42.541 1.352-.165 2.11-.494 2.584-1.393a13.031 13.031 0 0 0 .136-1.492 10.323 10.323 0 0 0-1.412-4.982 3.475 3.475 0 0 1-2.979 3.3 3.667 3.667 0 0 0 2.348-4.4 25.708 25.708 0 0 0-1.307-1.9 33.52 33.52 0 0 0-.715-.892c.247.9-.842 1.83-1.572 1.988.4-.387 1.243-1.64-.715-3.736a9.041 9.041 0 0 1 1.611.982c-3.56-3.845-6.482-3.953-7.832-5.887 1.95 1.331 7.105 2.049 9.419 1.421-1.277.854-4.359.775-5.113.616 2.511 2.442 8 4.964 8.946 7.208a6.41 6.41 0 0 0-3.353-2.11 22.182 22.182 0 0 1 2.292 3.941c1.462 3.17 3.413 3.21 3.541 5.824-.666-2.027-2.017-2.539-2.954-3.868" class="cls-4" data-name="Path 1034" transform="translate(-14.693 -3.674)"/>
            <path id="Path_1035" d="M188.014 85.215a3.539 3.539 0 0 1-2.869 1.346 4.211 4.211 0 0 1-.816-.082 1.711 1.711 0 0 0 .6.971 1.736 1.736 0 0 0 1.308 2.1 1.364 1.364 0 0 0 .926 1.039l-.721.833a1.069 1.069 0 0 1-.933.384l-3.221-.367c.139-.358-.233-.772-1.253-.594l1.265-3.542-.771-1.643-1.462 1.25-.108 3.715-.629-.307c-.811-.353-1.05 1.126-.278 1.132h.312a.354.354 0 0 0 .148.375.249.249 0 0 0-.008.43.307.307 0 0 0-.061.491.673.673 0 0 0 .375 1.015c.465.122.756-.377.85-.666l5.015 1.553a1.709 1.709 0 0 0 1.8-.428l1.308-1.144a1.358 1.358 0 0 0 .674 1.645 5.794 5.794 0 0 0-.055.97h4.515v-8.233a6.362 6.362 0 0 1 .49-2.243h-6.4" class="cls-4" data-name="Path 1035" transform="translate(-9.526 -9.207)"/>
            <path id="Path_1036" d="M181.1 104.054l.1.123c.136.167.215.127.371.038l.228-.12c.143-.107 1.075.248 1.129-.527.1.579-.586 1.8-.172 2.479l.559.917-1.829.026a.383.383 0 0 0-.359.23l-.479.992a.651.651 0 0 0 .042.715l.323.364a1.25 1.25 0 0 0 .351-.519l-.144-.148a.276.276 0 0 1-.053-.363l.294-.611a.354.354 0 0 1 .489-.231l1.478.319c.109.026.284.079.389-.1a.719.719 0 0 1 .826-.293c.811.122 2.684.316 3.352-.464.784 1.041 2.318 1.041 2.217 1.586l-.323 1.79h.487l.3-1.83c.034-.214.165-.507-.065-.669-.094-.074-.137-.111-.351-.478-.279-.488-.264-1.218-.534-1.846a.8.8 0 0 1 .772-.347c.54.132.687 1.064 1.454 1.825a4.056 4.056 0 0 0-.306-1.031 2.138 2.138 0 0 1 .67.9.919.919 0 0 0 .449.664c.181.066.4-.022.612-.281 0 0-.506-.719-.877-1.19a2.534 2.534 0 0 0-2.112-1.22 2.038 2.038 0 0 0-.841.316 2.638 2.638 0 0 0-2.192.035l-1.967-.118a1.119 1.119 0 0 1-.692-.473 2.307 2.307 0 0 0-1.849-2.329s.043-.3-.078-.4l-.412.515-1.141-.416.894.732-.97 1.129a.261.261 0 0 0-.035.317" class="cls-4" data-name="Path 1036" transform="translate(-10.121 -14.173)"/>
            <path id="Path_1037" d="M179.393 108.014c-.274.213-.263.51-.1.842l.165.307.43-.327-.1-.211a.306.306 0 0 1 .055-.395l.615-.465a.431.431 0 0 1 .412-.113l1.3.274a1.983 1.983 0 0 1-.263-.579l-1.225-.162a.549.549 0 0 0-.43.167l-.866.662" class="cls-4" data-name="Path 1037" transform="translate(-9.706 -15.793)"/>
            <path id="Path_1038" d="M191.365 112.812h.491l.788-1.945a1.332 1.332 0 0 1 .1-.153 5.73 5.73 0 0 1-.857-.409c.2.265.353.379.271.624l-.788 1.883" class="cls-4" data-name="Path 1038" transform="translate(-13.36 -16.73)"/>
            <path id="Path_1039" d="M190.873 74.09l.91-5.235-3.45 1.172v5.4l2.54-1.337m-1.955-3.532l2.291-.844s-.447.363-.979.727a8.849 8.849 0 0 1-1.312.676zm0 1.267l2.094-.748a5.209 5.209 0 0 1-.782.63 9.13 9.13 0 0 1-1.312.674zm0 1.349l1.844-.708s0 .226-.532.587a8.955 8.955 0 0 1-1.312.677z" class="cls-4" data-name="Path 1039" transform="translate(-12.451 -4.302)"/>
            <path id="Path_1040" d="M182.146 81.283l.077.12h.71l.008.124a1.6 1.6 0 0 0 .075.365 2.1 2.1 0 0 0 .681.979 2.78 2.78 0 0 0 1.782.567 2.323 2.323 0 0 0 2.542-1.911v-.124h.713l.076-.12c.671-1.05 1.489-2.215 2.441-2.381l-2.595-1.5-3.181 1.73L182.3 77.4l-2.592 1.5c.948.166 1.767 1.332 2.441 2.381" class="cls-4" data-name="Path 1040" transform="translate(-9.864 -6.863)"/>
            <path id="Path_1041" d="M186.092 75.426v-5.4l-3.446-1.173.907 5.236 2.54 1.337m-.58-1.7a9.052 9.052 0 0 1-1.311-.676c-.536-.361-.536-.588-.536-.588l1.846.708zm0-3.172v.559a8.826 8.826 0 0 1-1.311-.676c-.536-.365-.984-.727-.984-.727zm0 1.267v.557a8.952 8.952 0 0 1-1.311-.674 5.132 5.132 0 0 1-.784-.63z" class="cls-4" data-name="Path 1041" transform="translate(-10.746 -4.302)"/>
            <path id="Path_1042" d="M186.34 65.556c-1.972 0-3.449.646-3.77 1.4l3.77 1.489 3.767-1.489c-.32-.757-1.8-1.4-3.767-1.4" class="cls-4" data-name="Path 1042" transform="translate(-10.723 -3.313)"/>
            <path id="Path_1043" d="M186.049 61.409a8.088 8.088 0 0 1 3.885 1.011 6.732 6.732 0 0 1 .562-1.332l-.893.137-.721-1.542-1.348.717-1.485-1.468-1.487 1.468-1.346-.717-.727 1.542-.891-.137a6.863 6.863 0 0 1 .565 1.332 8.088 8.088 0 0 1 3.887-1.011" class="cls-4" data-name="Path 1043" transform="translate(-10.431 -1.327)"/>
            <path id="Path_1044" d="M221.175 78.83a2.681 2.681 0 0 0 1.356-.582c-1.029-.274-3.187-1.053-5.029-.7-.61.08-.947.327-.73.468a10.912 10.912 0 0 1 3.1 3.954 2.7 2.7 0 0 0 .29-2.608c1.558.939 1.965 1.4 2.689 1.217a8.132 8.132 0 0 0-1.677-1.745" class="cls-4" data-name="Path 1044" transform="translate(-20.958 -6.881)"/>
            <path id="Path_1045" d="M153.4 81.966a10.9 10.9 0 0 1 3.1-3.954c.221-.141-.121-.388-.726-.468-1.844-.349-4.006.43-5.036.7a2.7 2.7 0 0 0 1.359.582 8.1 8.1 0 0 0-1.677 1.745c.727.179 1.132-.278 2.688-1.218a2.715 2.715 0 0 0 .288 2.609" class="cls-4" data-name="Path 1045" transform="translate(-1.085 -6.881)"/>
            <path id="Path_1046" d="M164.048 94.913c.718-.569 1.311-.854 1.281-2.229-1.076.55-4.129.522-5.4-1.234-.361-.5.025-.751.372-.358.872.99 2.491.542 3.08.256a2.306 2.306 0 0 0-.576-.973c.221-.218.846-.541.973-1.1a7.79 7.79 0 0 0-1.629-.311 1.12 1.12 0 0 0 .312-1.22 3.723 3.723 0 0 1-3.329-.636c-.365-.482.007-.933.315-.613.658.691 3.908 1.485 5.117.28a1.79 1.79 0 0 1-1.036-.775 2.12 2.12 0 0 0 2.084-1.595 4.99 4.99 0 0 1-2.187-.344 1.373 1.373 0 0 0 1.045-.993c-2.045-.124-2.208-1.643-2.219-1.9 1.332.769 3.678.427 3.072-1.465-1.108-.06-2.225-1.853.823-3.5 2.772-1.5 5.922-3.119 5.643-5.779-.181-1.7-2.986-2.866-3.342-3.728-1.171.557-1.406 1.2-.878 2.288 0 0-2.608.258-2.814-1.346a2.457 2.457 0 0 1 .908-1.907c-.293 0-2.258-.526-2.85 1.075-1.1-.753-2.043-.724-2.785.069 1.183.7 1.917 3.114 3.874 3.825-1.393.755-3.644.439-4.958-1.88-1.243 1.872-1.959 3.728.707 5.708-4.854 2.209-4.819 6.431-9.039 8.442.428 1.149 1.331 1.149 2.481.969-1.825 2.371-.27 4.854-3.16 5.868.272.967.814 1.74 1.879 1.457-.3.472-.5.463-.975.982 1.58.995 3.453.274 3.878-2.917.075-.57.86-.214.589.346-1.8 3.722 2.752 6.523 1.142 9.254a5.693 5.693 0 0 0 3.094-.649 3.049 3.049 0 0 1 .4 1.7 1.241 1.241 0 0 0 1.124-1.157c.515 1.5 2.353 3.1 5.293 3.1-1.56-2.222-.107-4.479-2.311-7.019m-2.9 2.744l-.628 1.068a14.088 14.088 0 0 0-.895-1.951 1.924 1.924 0 0 1-2.072 1.067c.171-2.492-2.962-5-1.584-7.842a1.159 1.159 0 0 0-.5-1.564c-2.1-1.065-1.129 3.358-3.226 3.493a5.625 5.625 0 0 0 .612-1.645c-.446.116-1.514.8-1.995-.074a3.461 3.461 0 0 0 1.771-2.681 10.349 10.349 0 0 1 .6-2.392 13.462 13.462 0 0 1 1.56-2.2c-.21.03-2.572.529-3.1.281 4.085-2.509 3.166-5.7 9.392-8.536-1.633-1.213-3.3-2.182-2.1-4.5 1.706 2.049 4.948 1.342 6.7.389-1.729-.346-3.959-1.872-4.489-3.568.651-.1 1.5.608 1.982.937.234-.627.326-1.355 1.086-1.512-1.013 2.166.988 3.3 2.9 3.3.3 0 1.531-.125 1.531-.125-.2-.406-.995-1.514-.416-1.96.468.437 1.024.787 1.53 1.176 3.709 2.869-1.764 5.531-4 6.738-3.511 1.9-2.572 4.157-1.1 4.735-.006.254-.162.367-.407.449-1.026.34-1.989-.391-2.808-.861.05 1.418-.048 2.779 1.519 3.559l-1.08.394a4.051 4.051 0 0 0 2.327 1.224 5.025 5.025 0 0 1-1.722.3 4.115 4.115 0 0 0 .547 1.276c-2.285.271-3.2-1.034-3.91-.982-1.508.113-1.413 2.953 2.3 2.957l-.385.636a4.2 4.2 0 0 0 1.348.489c-.246.2-.483.47-.691.675l.592.512c-1.516.271-1.944-1.342-2.927-.565-1.5 1.19 1.806 3.7 4.975 3.324a10.3 10.3 0 0 1-1.331 1.1c2.581 2.439 1.308 4.737 2.37 6.42a4.68 4.68 0 0 1-4.262-3.55" class="cls-6" data-name="Path 1046" transform="translate(-.938 -3.342)"/>
            <path id="Path_1047" d="M158.645 90.991c.536.561 1.187.618 2.418.541-1.353-.165-2.113-.494-2.587-1.393a13.373 13.373 0 0 1-.133-1.491 10.329 10.329 0 0 1 1.412-4.982 3.481 3.481 0 0 0 2.979 3.3 3.664 3.664 0 0 1-2.349-4.4c.386-.616.821-1.253 1.308-1.9.244-.312.482-.612.715-.892-.248.9.841 1.83 1.569 1.986-.394-.386-1.243-1.639.716-3.735a9.206 9.206 0 0 0-1.61.982c3.559-3.845 6.486-3.953 7.83-5.887-1.947 1.331-7.1 2.049-9.418 1.421 1.278.854 4.359.775 5.111.616-2.512 2.442-8 4.964-8.945 7.208a6.393 6.393 0 0 1 3.356-2.111 22.338 22.338 0 0 0-2.3 3.942c-1.458 3.169-3.41 3.209-3.539 5.823.666-2.026 2.016-2.54 2.953-3.868a13.1 13.1 0 0 0-.213 2.877 8.993 8.993 0 0 0 .646 3.151 6.349 6.349 0 0 0 1.5 4.955 6.679 6.679 0 0 1-1.132-4.153c1.159 2.237 4.466 5.328 6.063 7.4-1.6-2.672-5.515-5.792-6.354-9.394" class="cls-6" data-name="Path 1047" transform="translate(-2.512 -5.581)"/>
            <path id="Path_1048" d="M208.157 80.254a6.406 6.406 0 0 1 3.352 2.111c-.946-2.244-6.436-4.766-8.947-7.208.754.158 3.836.237 5.113-.616-2.314.629-7.469-.09-9.418-1.421 1.346 1.934 4.27 2.042 7.831 5.887a9.041 9.041 0 0 0-1.611-.982c1.958 2.1 1.112 3.349.715 3.736.73-.158 1.819-1.088 1.572-1.988.234.28.472.58.715.892.49.648.922 1.285 1.307 1.9a3.668 3.668 0 0 1-2.347 4.4 3.472 3.472 0 0 0 2.976-3.3 10.311 10.311 0 0 1 1.414 4.982 13.366 13.366 0 0 1-.134 1.491c-.475.9-1.236 1.228-2.586 1.393 1.234.077 1.879.02 2.42-.541-.841 3.6-4.758 6.722-6.358 9.394 1.6-2.077 4.9-5.168 6.066-7.4a6.694 6.694 0 0 1-1.133 4.153 6.342 6.342 0 0 0 1.5-4.957 9.042 9.042 0 0 0 .645-3.149 12.77 12.77 0 0 0-.212-2.877c.938 1.33 2.287 1.843 2.954 3.868-.128-2.614-2.08-2.654-3.541-5.823a22.173 22.173 0 0 0-2.291-3.942" class="cls-6" data-name="Path 1048" transform="translate(-15.427 -5.581)"/>
            <path id="Path_1049" d="M213.447 83.945c1.149.18 2.053.18 2.481-.968-4.223-2.011-4.186-6.233-9.039-8.442 2.668-1.98 1.948-3.836.709-5.708-1.312 2.319-3.571 2.635-4.957 1.88 1.953-.711 2.69-3.123 3.873-3.826-.74-.793-1.685-.821-2.788-.069-.6-1.6-2.557-1.073-2.851-1.073a2.454 2.454 0 0 1 .909 1.907c-.2 1.6-2.813 1.346-2.813 1.346.527-1.084.293-1.731-.879-2.288-.358.862-3.158 2.023-3.341 3.727-.281 2.662 2.873 4.279 5.642 5.781 3.047 1.647 1.93 3.44.825 3.5-.612 1.893 1.734 2.234 3.07 1.465-.006.252-.176 1.771-2.222 1.9a1.382 1.382 0 0 0 1.046.992 4.987 4.987 0 0 1-2.185.344A2.121 2.121 0 0 0 203.015 86a1.8 1.8 0 0 1-1.033.774c1.208 1.2 4.457.411 5.119-.28.3-.319.671.132.312.613a3.723 3.723 0 0 1-3.33.636 1.122 1.122 0 0 0 .312 1.22 7.715 7.715 0 0 0-1.63.311c.126.557.754.88.975 1.1a2.321 2.321 0 0 0-.577.973c.594.286 2.211.733 3.079-.256.352-.393.735-.142.376.357-1.276 1.757-4.329 1.785-5.407 1.235-.03 1.376.565 1.659 1.281 2.229-2.207 2.54-.749 4.8-2.308 7.019 2.938 0 4.775-1.6 5.291-3.1a1.246 1.246 0 0 0 1.124 1.157 3.1 3.1 0 0 1 .4-1.7 5.714 5.714 0 0 0 3.1.649c-1.608-2.731 2.944-5.532 1.139-9.254-.267-.559.517-.915.592-.346.422 3.191 2.3 3.912 3.878 2.917-.475-.519-.671-.51-.975-.982 1.064.283 1.606-.49 1.879-1.457-2.888-1.014-1.332-3.5-3.161-5.869m.242 6.338a5.466 5.466 0 0 0 .608 1.645c-2.1-.135-1.126-4.558-3.226-3.493a1.158 1.158 0 0 0-.498 1.564c1.373 2.843-1.757 5.35-1.581 7.842a1.926 1.926 0 0 1-2.077-1.067 14.284 14.284 0 0 0-.894 1.951l-.628-1.067a4.687 4.687 0 0 1-4.262 3.55c1.057-1.683-.214-3.98 2.372-6.42a10.158 10.158 0 0 1-1.335-1.1c3.171.372 6.476-2.134 4.975-3.324-.982-.776-1.413.836-2.925.565l.593-.512c-.207-.205-.449-.474-.694-.675a4.184 4.184 0 0 0 1.348-.489l-.385-.636c3.713 0 3.8-2.843 2.3-2.957-.705-.052-1.623 1.253-3.91.982a4.3 4.3 0 0 0 .55-1.276 5.043 5.043 0 0 1-1.724-.3 4.058 4.058 0 0 0 2.326-1.222l-1.075-.4c1.564-.78 1.466-2.141 1.514-3.559-.816.471-1.784 1.2-2.806.861-.244-.082-.4-.195-.408-.449 1.468-.578 2.4-2.836-1.1-4.735-2.237-1.207-7.713-3.868-4-6.738.508-.389 1.059-.739 1.526-1.176.583.447-.213 1.554-.41 1.96 0 0 1.233.125 1.525.125 1.913-.008 3.916-1.138 2.9-3.306.76.158.85.888 1.082 1.513.487-.328 1.332-1.036 1.986-.936-.531 1.7-2.758 3.222-4.489 3.568 1.748.953 4.993 1.661 6.7-.389 1.2 2.317-.471 3.285-2.107 4.5 6.227 2.84 5.308 6.028 9.393 8.536-.529.249-2.9-.251-3.107-.281a13.125 13.125 0 0 1 1.564 2.2 10.444 10.444 0 0 1 .6 2.392 3.472 3.472 0 0 0 1.771 2.681c-.481.872-1.547.19-1.991.074" class="cls-6" data-name="Path 1049" transform="translate(-14.371 -3.342)"/>
            <path id="Path_1050" d="M179.232 107.868l.889-.753-.136-.27c-.1-.193-.045-.2.057-.281l.469-.349a.372.372 0 0 1 .355-.047l1.407.33h-1.484a.573.573 0 0 0-.567.409l-.1.208-.382.786a.885.885 0 0 0 .144 1.036l.27.321-.547 1.106h.461l.379-.767a2.538 2.538 0 0 0 .706-1.066c-.161-.132-.277-.223-.187-.408l.172-.367c.056-.122.076-.172.239-.139l1.477.319a.509.509 0 0 0 .652-.166c.2-.308.23-.275.7-.228l.754.08a3.969 3.969 0 0 0 2.461-.478 9.725 9.725 0 0 0 .549.814c.048.092-.032.223-.1.384l-.846 2.022h1.305l.739-1.845a1.1 1.1 0 0 1 .244-.388l-.424 2.233h1.267l.336-2.209c.074-.491.03-.65-.206-.852-.528-.445-.516-1.381-.686-1.949a.5.5 0 0 1 .318-.064c.277.025.484.73.809 1.184.648.911 1.533 1.916 2.546.5a3.2 3.2 0 0 0-.326-.449l-.283-.332c-.165-.183-.949-1.08-1.276-1.4a1.9 1.9 0 0 0-2.339-.272 3.5 3.5 0 0 0-2.374.006l-1.774-.107a.349.349 0 0 1-.29-.171l.33-.108a3.013 3.013 0 0 0-2.44-2.541s-.079-.405-.286-.483l-.4.476a1.311 1.311 0 0 0-.34.1l-1.729-.644 1.3 1.311s-.674.954-.865 1.149a.345.345 0 0 0 .027.488l.251.33c.131.172.272.165.48.058l.285-.147c.124-.1.54.1.719-.063a5.073 5.073 0 0 0-.2 1.017l-1.166-.139a.587.587 0 0 0-.525.12l-.994.766a.865.865 0 0 0-.226 1.1l.4.84m9.623.221l-.79 1.946h-.489l.788-1.884c.082-.244-.073-.357-.271-.623a5.7 5.7 0 0 0 .857.409 1.33 1.33 0 0 0-.1.153m-7.611-4.215l-.225.12c-.156.09-.235.13-.371-.039l-.1-.124a.258.258 0 0 1 .035-.315l.968-1.129-.892-.732 1.136.419.416-.519c.122.1.079.4.079.4a2.31 2.31 0 0 1 1.849 2.33 1.112 1.112 0 0 0 .689.471l1.97.12a2.64 2.64 0 0 1 2.193-.035 2.151 2.151 0 0 1 .841-.32 2.551 2.551 0 0 1 2.112 1.225c.37.469.878 1.188.878 1.188-.218.259-.433.347-.613.281a.919.919 0 0 1-.449-.664 2.15 2.15 0 0 0-.67-.9 4.118 4.118 0 0 1 .306 1.031c-.771-.761-.915-1.693-1.454-1.821a.793.793 0 0 0-.774.341c.272.63.257 1.36.536 1.848.212.365.256.4.351.478.228.162.1.456.064.669l-.293 1.83h-.49l.323-1.791c.1-.546-1.433-.546-2.217-1.586-.669.781-2.542.586-3.352.464a.717.717 0 0 0-.826.294c-.105.18-.282.126-.389.1l-1.469-.32a.354.354 0 0 0-.487.23l-.3.612a.279.279 0 0 0 .056.364l.139.15a1.224 1.224 0 0 1-.35.517l-.322-.363a.64.64 0 0 1-.036-.71l.479-1a.385.385 0 0 1 .359-.23l1.829-.028-.559-.912c-.417-.684.274-1.9.172-2.479-.052.773-.986.42-1.131.525m-1.986 2.3l.866-.659a.548.548 0 0 1 .432-.169l1.223.162a1.983 1.983 0 0 0 .263.579l-1.3-.274a.446.446 0 0 0-.412.111l-.615.466a.3.3 0 0 0-.057.395l.1.214-.43.326-.165-.309c-.167-.332-.178-.632.1-.842" class="cls-6" data-name="Path 1050" transform="translate(-9.571 -13.952)"/>
            <path id="Path_1051" d="M184.639 74.6a9.052 9.052 0 0 0 1.311.676v-.556l-1.846-.708s0 .227.536.588" class="cls-6" data-name="Path 1051" transform="translate(-11.183 -5.848)"/>
            <path id="Path_1052" d="M185.843 73.333v-.557l-2.095-.748a5.08 5.08 0 0 0 .784.63 9.106 9.106 0 0 0 1.311.674" class="cls-6" data-name="Path 1052" transform="translate(-11.076 -5.254)"/>
            <path id="Path_1053" d="M185.757 71.485v-.559l-2.294-.844s.448.363.984.727a8.827 8.827 0 0 0 1.311.676" class="cls-6" data-name="Path 1053" transform="translate(-10.991 -4.67)"/>
            <path id="Path_1054" d="M195.946 82.654h2.346a1.085 1.085 0 0 0-1.148-.685 1.32 1.32 0 0 0-1.2.685" class="cls-6" data-name="Path 1054" transform="translate(-14.734 -8.234)"/>
            <path id="Path_1055" d="M191.459 70.082l-2.291.844v.559a8.849 8.849 0 0 0 1.312-.676c.534-.363.979-.727.979-.727" class="cls-6" data-name="Path 1055" transform="translate(-12.701 -4.67)"/>
            <path id="Path_1056" d="M191.013 74.012l-1.845.708v.557a9.075 9.075 0 0 0 1.312-.676c.533-.361.533-.588.533-.588" class="cls-6" data-name="Path 1056" transform="translate(-12.701 -5.848)"/>
            <path id="Path_1057" d="M191.262 72.029l-2.094.748v.557a8.939 8.939 0 0 0 1.312-.674 5.16 5.16 0 0 0 .782-.63" class="cls-6" data-name="Path 1057" transform="translate(-12.701 -5.254)"/>
            <path id="Path_1058" d="M177.749 81.969a1.086 1.086 0 0 0-1.146.685h2.348a1.327 1.327 0 0 0-1.2-.685" class="cls-6" data-name="Path 1058" transform="translate(-8.934 -8.234)"/>
            <path id="Path_1059" d="M188.019 66.866c0-1.32-2.217-2.5-4.662-2.5s-4.664 1.181-4.664 2.5l.051.323.973 5.606-4.623 2.695a2.757 2.757 0 0 0-1.186 1.886h.844a1.872 1.872 0 0 1 1.951-1.633 2.967 2.967 0 0 1 2.327 1.633l.162.244.232.365h-6.8a7.341 7.341 0 0 1 .974 3.222v14.136c0 3.636 2.794 5.368 5.819 5.368 2.336 0 2.651-.106 3.941 1.183 1.286-1.29 1.6-1.183 3.941-1.183 3.022 0 5.818-1.732 5.818-5.368V81.207a7.34 7.34 0 0 1 .973-3.222h-6.8l.234-.365.162-.244a2.962 2.962 0 0 1 2.327-1.633 1.873 1.873 0 0 1 1.95 1.633h.842a2.749 2.749 0 0 0-1.185-1.886L187 72.8l.975-5.606.048-.323m-8.379.643l3.448 1.172v5.4l-2.54-1.337zm.847 11.455a3.38 3.38 0 0 0 2.061 1.26 1.765 1.765 0 0 0 .6.975 1.737 1.737 0 0 0 1.309 2.1 1.36 1.36 0 0 0 .924 1.039l-.721.833a1.06 1.06 0 0 1-.933.384l-3.221-.367c.139-.358-.232-.772-1.251-.594l1.267-3.542-.773-1.643-1.465 1.25-.107 3.715-.622-.307c-.819-.353-1.057 1.126-.28 1.132h.309a.348.348 0 0 0 .146.372.252.252 0 0 0 0 .435.3.3 0 0 0-.062.489.671.671 0 0 0 .377 1.015c.462.122.751-.377.846-.666l5.013 1.553a1.706 1.706 0 0 0 1.8-.428l1.308-1.144a1.358 1.358 0 0 0 .676 1.645 6.925 6.925 0 0 0-.057.973h-13.059v-8.241a6.515 6.515 0 0 0-.486-2.243zm5.391 3.128a1.694 1.694 0 0 0 .077 1.683l-.216.212c-.94-.118-1.311-1.519-1.311-1.519a2.256 2.256 0 0 0-.028.375 1.314 1.314 0 0 1-.868-1.358 2.172 2.172 0 0 0 .688.24l.065-.41a1.427 1.427 0 0 1-1.189-1.02c-.032 0-.06-.011-.09-.013.118.01.232.019.351.019a3.9 3.9 0 0 0 1.106-.162 1.813 1.813 0 0 0 1.243.721 2.005 2.005 0 0 0 .169 1.223m1.391 3.71a1.456 1.456 0 0 0-.219.433l-.524.481a2.532 2.532 0 0 0-.881-2.043l.557-.547.111.112a1.288 1.288 0 0 0 .956 1.564m-2.531-.242l.433-.423a2.363 2.363 0 0 1 .836 2.056l-.471.432a1.7 1.7 0 0 1-.3.225 2.567 2.567 0 0 0-.5-2.29m-.93.359h.014a.911.911 0 0 0 .476-.066 2.353 2.353 0 0 1 .191 2.208 2.261 2.261 0 0 1-.648-.094l-.163-.049a2.817 2.817 0 0 0 .13-2m-1.09-.135l.609.076a2.969 2.969 0 0 1-.29 1.877l-.707-.205a2.91 2.91 0 0 0 .388-1.748m-1.269-.155l.738.087a2.914 2.914 0 0 1-.344 1.678l-.751-.218a2.416 2.416 0 0 0 .357-1.547m-2.986-.2a.336.336 0 0 1-.481-.348 1.166 1.166 0 0 1 1.171.038c.181.115.332.439.575.642a5.229 5.229 0 0 1-.223.943.719.719 0 0 1-.468-1.153.459.459 0 0 0-.574-.122m-.482 1.346a1.676 1.676 0 0 0 .465.106.269.269 0 0 1-.315.241.25.25 0 0 1-.15-.347m-.68-1.97a.194.194 0 0 1 .1-.361c.207 0 .485.24.758.357a2.569 2.569 0 0 1-.854 0m.7 1.435c.148.142.6.088.6.088l.017.09c-.2.26-.736.142-.612-.178m.6-.3c-.319.127-.646-.046-.545-.253.148.134.562.069.562.069zm.469-3.712l-.61 2.226.208-3.591.946-.809.482 1.056-1.223 3.499.321-2.348c.03-.163-.1-.181-.13-.022m.045 2.7a3.919 3.919 0 0 1 .872.04c.142.059.045.3-.138.27a3.882 3.882 0 0 1-.734-.31m1.067.542l.739.092a2.452 2.452 0 0 1-.314 1.477l-.718-.207a4.594 4.594 0 0 0 .292-1.363m11.957 9.875a4.071 4.071 0 0 1-2.117 3.75l.475-.963h-.459l-.608 1.234a5.989 5.989 0 0 1-2.133.369c-2.413 0-3.051.1-3.941.987-.9-.889-1.532-.987-3.941-.987a6.007 6.007 0 0 1-2.124-.364h.015l.608-1.239h-.457l-.534 1.084a3.556 3.556 0 0 1-.37-.2l.438-.889h-.455l-.326.662a4.112 4.112 0 0 1-1.64-3.448v-5.407h17.565zm.489-16.379a6.348 6.348 0 0 0-.491 2.243v8.245h-.959a5.587 5.587 0 0 1-.8-1.827 2.289 2.289 0 0 0 .291 1.827h-1.234a7.205 7.205 0 0 1-.571-1.878c-.369.421-.135 1.561.094 1.878h-.821a4.167 4.167 0 0 1 .117-1.224c-.43-.079-.886-.3-.885-.782a.643.643 0 0 0 .606.194l.349-.275c-1.157.038-1.211-1.232-.293-1.826-.917.029-1.6-.516-1.268-1.489a1.344 1.344 0 0 1-.4-1.926 1.644 1.644 0 0 1-.183-1.629 1.813 1.813 0 0 1-1.272-.5.741.741 0 0 1-.073.026 3.215 3.215 0 0 0 1.4-1.057zm-3.5-3.969c-.952.166-1.771 1.332-2.441 2.381l-.075.12h-.713v.124a2.323 2.323 0 0 1-2.542 1.911 2.785 2.785 0 0 1-1.782-.567 2.1 2.1 0 0 1-.681-.979 1.62 1.62 0 0 1-.076-.365l-.007-.124h-.71l-.077-.12c-.674-1.05-1.493-2.215-2.441-2.381l2.592-1.5 3.184 1.73 3.18-1.73zm-2.97-2.25l-2.54 1.337v-5.4l3.451-1.172zm-2.8-4.653l-3.77-1.489c.321-.757 1.8-1.4 3.77-1.4s3.447.646 3.767 1.4z" class="cls-6" data-name="Path 1059" transform="translate(-7.742 -2.956)"/>
            <path id="Path_1060" d="M199.226 91.994l.007-.413c-1.269-.029-1.559-1.526-1.559-1.526a1.521 1.521 0 0 0 1.552 1.939" class="cls-6" data-name="Path 1060" transform="translate(-15.227 -10.658)"/>
            <path id="Path_1061" d="M196.855 95.659l-.127-.391c-1.082.277-1.641-1.437-1.641-1.437a1.46 1.46 0 0 0 1.769 1.828" class="cls-6" data-name="Path 1061" transform="translate(-14.458 -11.791)"/>
            <path id="Path_1062" d="M197.921 93.617c-1.293.2-1.823-1.3-1.823-1.3a1.46 1.46 0 0 0 1.243 1.737A1.131 1.131 0 0 0 199 95.29l-.124-.373a.837.837 0 0 1-.954-1.3" class="cls-6" data-name="Path 1062" transform="translate(-14.772 -11.337)"/>
            <path id="Path_1063" d="M196.907 87.215l.011-.414c-1.7-.351-1.563-1.526-1.563-1.526a1.523 1.523 0 0 0 1.552 1.94" class="cls-6" data-name="Path 1063" transform="translate(-14.533 -9.225)"/>
            <path id="Path_1064" d="M181.91 112.588l-.611 1.239h.459l.609-1.239h-.457" class="cls-6" data-name="Path 1064" transform="translate(-10.342 -17.414)"/>
            <path id="Path_1065" d="M183.224 112.588l-.608 1.239h.463l.6-1.239h-.459" class="cls-6" data-name="Path 1065" transform="translate(-10.737 -17.414)"/>
            <path id="Path_1066" d="M188.5 112.588l-.608 1.239h.458l.609-1.239h-.459" class="cls-6" data-name="Path 1066" transform="translate(-12.319 -17.414)"/>
            <path id="Path_1067" d="M189.819 112.588l-.613 1.239h.462l.606-1.239h-.456" class="cls-6" data-name="Path 1067" transform="translate(-12.713 -17.414)"/>
            <path id="Path_1068" d="M187.183 112.588l-.611 1.239h.459l.61-1.239h-.458" class="cls-6" data-name="Path 1068" transform="translate(-11.923 -17.414)"/>
            <path id="Path_1069" d="M195.146 113.827h.46l.609-1.239h-.459l-.61 1.239" class="cls-6" data-name="Path 1069" transform="translate(-14.494 -17.414)"/>
            <path id="Path_1070" d="M184.545 112.588l-.608 1.239h.459l.61-1.239h-.461" class="cls-6" data-name="Path 1070" transform="translate(-11.133 -17.414)"/>
            <path id="Path_1071" d="M185.859 112.588l-.609 1.239h.462l.609-1.239h-.462" class="cls-6" data-name="Path 1071" transform="translate(-11.527 -17.414)"/>
            <path id="Path_1072" d="M183.071 103.082a.189.189 0 1 0 .16.187.176.176 0 0 0-.16-.187" class="cls-6" data-name="Path 1072" transform="translate(-10.826 -14.564)"/>
            <path id="Path_1073" d="M185.667 61.576a6.948 6.948 0 0 1 4.245 1.3 8.461 8.461 0 0 1 1.1-2.822l-1.526.171-.8-1.7-1.534.8-1.487-1.476-1.487 1.476-1.537-.8-.8 1.7-1.524-.171a8.387 8.387 0 0 1 1.1 2.822 6.953 6.953 0 0 1 4.249-1.3m-3.561-.675l.727-1.54 1.346.716 1.487-1.468 1.487 1.468 1.346-.716.719 1.54.895-.137a6.781 6.781 0 0 0-.562 1.332 7.975 7.975 0 0 0-7.773 0 6.869 6.869 0 0 0-.565-1.332z" class="cls-6" data-name="Path 1073" transform="translate(-10.049 -1.002)"/>
            <path id="Path_1074" d="M190.021 58.329a.407.407 0 0 0 .437-.368 2.518 2.518 0 0 0-.3-.812s-.485.522-.5.744a.406.406 0 0 0 .365.436" class="cls-6" data-name="Path 1074" transform="translate(-12.847 -.792)"/>
            <path id="Path_1075" d="M193.655 59.685a.4.4 0 0 0 .543-.17 2.467 2.467 0 0 0 .037-.863s-.643.291-.75.488a.41.41 0 0 0 .169.545" class="cls-6" data-name="Path 1075" transform="translate(-13.983 -1.243)"/>
            <path id="Path_1076" d="M185.539 58.329a.405.405 0 0 0 .369-.436c-.021-.222-.5-.744-.5-.744a2.535 2.535 0 0 0-.3.812.4.4 0 0 0 .433.368" class="cls-6" data-name="Path 1076" transform="translate(-11.483 -.792)"/>
            <path id="Path_1077" d="M181.9 59.685a.4.4 0 0 0 .166-.545c-.1-.2-.748-.488-.748-.488a2.461 2.461 0 0 0 .039.863.4.4 0 0 0 .543.17" class="cls-6" data-name="Path 1077" transform="translate(-10.342 -1.243)"/>
            <path id="Path_1078" d="M221.716 76.637a2.159 2.159 0 0 0 1.149-1.166c-1.355-.195-4.952-1.706-7.911-.475 1.108-1.052 2.1-1.187 2.2-2.7a1.068 1.068 0 0 0 1.672-.272c-.305-.9-1.075-.172-1.183-.419-.15-.345.972.106 1.211-1.064-.872-.3-1.134.413-1.289.248s.554-.458.041-1.4c-.909.531-.436 1.131-.627 1.2-.233.092-.05-.639-1.054-.606-.1 1.08.943 1.113.772 1.285-.207.209-.479-.62-1.237-.2a1.121 1.121 0 0 0 1.448 1.144c-.12 1.656-1.637 1.347-2.768 3.212 2.395 1.228 3.478 3.37 4.952 4.851a8.533 8.533 0 0 0 1.319-1.881 1.934 1.934 0 0 0 2.716 0c-.549-.563-.569-.99-1.409-1.757m-2.325.3a2.7 2.7 0 0 1-.288 2.608 10.912 10.912 0 0 0-3.1-3.954c-.216-.141.12-.388.73-.468 1.841-.349 4 .43 5.029.7a2.666 2.666 0 0 1-1.356.58 8.218 8.218 0 0 1 1.677 1.747c-.724.179-1.131-.279-2.69-1.217" class="cls-6" data-name="Path 1078" transform="translate(-20.188 -4.461)"/>
            <path id="Path_1079" d="M191.739 118.744v-2.022a18.467 18.467 0 0 1-6.107 1.526l-.116.723c.217.03.493.057.86.081a21.082 21.082 0 0 1-5.685 0c.366-.024.639-.05.857-.081l-.116-.723a18.426 18.426 0 0 1-6.105-1.526v2.022l-2.12.869a25.66 25.66 0 0 0 5.465 2.019l-.248.847a18.741 18.741 0 0 0 10.219 0l-.246-.847a25.718 25.718 0 0 0 5.465-2.019l-2.122-.869m-17.4.917l1.429-.576v-1.647a24.192 24.192 0 0 0 3.854 1.08l-.812 2.641a23.491 23.491 0 0 1-4.471-1.5m9.2 3.044a19.29 19.29 0 0 1-4.536-.572l.857-2.771a22.213 22.213 0 0 0 7.357 0l.86 2.771a19.374 19.374 0 0 1-4.537.572m4.722-1.545l-.813-2.641a24.2 24.2 0 0 0 3.854-1.08v1.647l1.427.576a23.306 23.306 0 0 1-4.469 1.5" class="cls-6" data-name="Path 1079" transform="translate(-7.916 -18.654)"/>
            <path id="Path_1080" d="M151.651 78.388a8.571 8.571 0 0 0 1.317 1.88c1.477-1.479 2.561-3.621 4.954-4.849-1.132-1.865-2.653-1.552-2.765-3.212a1.121 1.121 0 0 0 1.445-1.144c-.761-.418-1.033.413-1.238.2-.17-.175.872-.205.773-1.284-1-.031-.821.7-1.057.606-.188-.069.284-.667-.628-1.2-.512.947.188 1.243.043 1.4s-.418-.547-1.29-.248c.236 1.17 1.364.719 1.211 1.064-.106.247-.877-.482-1.179.419a1.064 1.064 0 0 0 1.667.273c.1 1.517 1.09 1.644 2.2 2.7-2.958-1.23-6.556.28-7.915.478a2.156 2.156 0 0 0 1.152 1.16c-.84.774-.859 1.2-1.408 1.761a1.933 1.933 0 0 0 2.716 0m-1.675-.233a8.122 8.122 0 0 1 1.68-1.745 2.7 2.7 0 0 1-1.36-.582c1.029-.274 3.193-1.053 5.036-.7.6.08.947.327.725.467a10.926 10.926 0 0 0-3.1 3.954 2.713 2.713 0 0 1-.288-2.607c-1.556.939-1.961 1.4-2.69 1.217" class="cls-6" data-name="Path 1080" transform="translate(-.638 -4.461)"/>
            <path id="Path_1081" d="M186.1 80.632v.891a1.11 1.11 0 0 1 .9-.3v1.281a1.906 1.906 0 0 1-.244.9h1.283a1.915 1.915 0 0 1-.244-.9v-1.278a1.109 1.109 0 0 1 .9.3v-.891H186.1" class="cls-6" data-name="Path 1081" transform="translate(-11.783 -7.833)"/>
        </g>
    </g>
</svg>
