<svg xmlns="http://www.w3.org/2000/svg" width="176" height="72" viewBox="0 0 176 72">
    <defs>
        <style>
            .cls-1{fill:none}
        </style>
    </defs>
    <g id="Group_326" data-name="Group 326" transform="translate(-466 -4084)">
        <path id="Rectangle_369" d="M0 0h176v72H0z" class="cls-1" data-name="Rectangle 369" transform="translate(466 4084)"/>
        <g id="Group_327" data-name="Group 327" transform="translate(985.625 4198.428)">
            <path id="Path_855" d="M-229.934-64.7a5.113 5.113 0 0 1-.917-.009c-.437-.1-1.159-.159-1.233-.4a4.392 4.392 0 0 1 0-1.865c.019-.129.532-.3.789-.26 1.057.16 1.406-.22 1.409-1.3.007-3.563 1.774-5.311 5.4-5.371 1.846-.031 2.1.435 1.554 2.666-.6-.04-1.216-.086-1.837-.121a2.687 2.687 0 0 0-2.418 3.681 1.173 1.173 0 0 0 .895.419c2.18.028 4.362-.044 6.541.02.9.026 1.188-.339 1.259-1.145a5.807 5.807 0 0 1 1.236-3.646 5.4 5.4 0 0 1 6.494-1.287l-.532 2.031c-1.328-.185-2.587-.415-3.648.656-.888.9-.7 1.976-.647 3.029.008.157.472.385.743.415a12.842 12.842 0 0 0 1.546-.013c1.318-.015 1.708.4 1.468 1.7a1.143 1.143 0 0 1-.725.724 4.617 4.617 0 0 1-1.788.083c-1.169-.2-1.353.346-1.338 1.341.054 3.687.051 7.374.057 11.061 0 .475-.075.951-.118 1.469a7.794 7.794 0 0 1-1.311.226c-.834 0-1.419-.207-1.411-1.3.028-3.781-.079-7.564-.042-11.345.011-1.125-.385-1.46-1.448-1.44-1.945.037-3.891-.035-5.837-.043-1.217-.005-1.479.343-1.469 1.6.031 3.845.011 7.69.044 11.534.011 1.285-1.018.734-1.569.878-.489.127-1.17.032-1.168-.809q.013-5.219.018-10.437c.005-.87.003-1.742.003-2.742z" data-name="Path 855" transform="translate(-218.067 -16.15)"/>
            <path id="Path_856" d="M-469.914-24.936v-5.268c-.011-4.813 3.929-7.315 8.15-6.363a6.271 6.271 0 0 1 4.123 4.84 10.534 10.534 0 0 1-5.9 11.2 47.018 47.018 0 0 1-4.959 1.977c-1.1.391-1.353.131-1.34-1 .022-1.8.006-3.593.006-5.39z" data-name="Path 856" transform="translate(-37.541 -44.352)"/>
            <path id="Path_857" d="M9.073-44.019c.74-.779 1.292-1.428 1.915-2a4.934 4.934 0 0 1 4.928-.963 3.921 3.921 0 0 1 2.994 3.535c.095 1.393.238 2.786.265 4.181.045 2.318.036 4.637.009 6.956-.021 1.761-.109 1.813-1.85 1.69-.234-.017-.47 0-.893 0v-4.944c0-1.884 0-3.767-.027-5.65-.032-2.342-.462-3.181-1.739-3.489a3.639 3.639 0 0 0-4.275 2.248A23.962 23.962 0 0 0 9.267-36.9a38.545 38.545 0 0 0-.035 5.39c.048 1.332-.937.962-1.575 1-.666.041-.99-.287-.96-1.127.078-2.156-.029-4.318-.05-6.477-.013-1.352-.039-2.705.005-4.055a2.467 2.467 0 0 0-1.714-2.5 2.968 2.968 0 0 0-3.12.635 6.916 6.916 0 0 0-2.186 5.28c-.079 2.36-.12 4.728-.017 7.086.061 1.394-.858 1.054-1.572 1.132-.841.092-1.1-.366-1.1-1.159.024-4.68.018-9.36.025-14.04 0-.576-.21-1.369.768-1.251.735.089 1.948-.385 1.819 1.16A9 9 0 0 0-.3-44.46c1.49-1.54 2.878-2.747 4.984-2.676a4.3 4.3 0 0 1 4.389 3.117z" data-name="Path 857" transform="translate(-392.067 -36.392)"/>
            <path id="Path_858" d="M-289.962-35.674l2.132 1.137c-1.369 3.325-3.89 4.821-7.085 4.557-4.231-.35-6.842-3.29-6.983-7.594a10.515 10.515 0 0 1 1.546-6.481c1.886-2.859 5.958-3.422 8.531-2.4 3.257 1.289 4.647 4.414 4.61 7.68-.009.805-.435.985-1.159.979-3.2-.03-6.4.021-9.6-.047-.988-.021-1.247.394-1.072 1.207.43 1.988 1.3 3.687 3.486 4.106 1.932.371 3.67.114 4.964-2.174.172-.31.383-.596.63-.97zm-4.722-4.552v-.074c1.2 0 2.4.059 3.584-.042.3-.025.843-.712.777-.844a6.348 6.348 0 0 0-1.533-2.368c-2.644-1.913-5.371-1.078-6.813 1.926-.461.96-.22 1.368.873 1.4 1.036.028 2.074.002 3.112.002z" data-name="Path 858" transform="translate(-165.121 -36.635)"/>
            <path id="Path_859" d="M116.768-30.393l-.588-1.586c-1.182.607-2.221 1.218-3.32 1.688a5.97 5.97 0 0 1-6.26-1.723 4.923 4.923 0 0 1 2.378-7.475 34.247 34.247 0 0 1 5.263-.733 14.912 14.912 0 0 0 1.924-.548c-.313-.962-.351-2.2-.991-2.832-1.792-1.753-4.574-1.119-6 .987-.257.378-1.269.436-1.88.331-.7-.12-.765-.739-.552-1.434.429-1.4 1.618-1.848 2.733-2.478 2.47-1.394 7.493-.691 8.619 2.342a9.494 9.494 0 0 1 .618 3.023c.068 2.943 0 5.889-.014 8.834-.008 1.779-.028 1.797-1.93 1.604zm-5.131-2.04c2.545-.035 3.962-1.43 4.426-4.246.129-.786-.074-1.147-.865-1.157-1.157-.015-2.318-.084-3.472-.028a3.238 3.238 0 0 0-3.075 3.084c.043 1.458 1.205 2.372 2.986 2.347z" data-name="Path 859" transform="translate(-474.656 -36.671)"/>
            <path id="Path_860" d="M-509.826-34.5a28.534 28.534 0 0 1-3.761-1.6 21.867 21.867 0 0 1-3.488-2.693c-2.563-2.36-2.6-5.456-1.861-8.46a3.96 3.96 0 0 1 3.963-2.944 4.589 4.589 0 0 1 4.077 1.961c1.417 1.851 1.013 3.92 1.057 5.943.053 2.457.013 4.912.013 7.793z" data-name="Path 860" transform="translate(0 -34.155)"/>
            <path id="Path_861" d="M-139.635-37.614c.065-3.508.735-5.623 2.563-7.338a7.907 7.907 0 0 1 10.446-.09c2.837 2.456 3.274 7.791 1.52 11.1a7.936 7.936 0 0 1-10.312 3.106 7.753 7.753 0 0 1-4.217-6.778zm13.2-.65a29.832 29.832 0 0 0-1.023-3.639 4.286 4.286 0 0 0-4.05-2.655 4.39 4.39 0 0 0-4.433 2.232 7.287 7.287 0 0 0-.459 6.56c.71 1.681 1.828 3.072 3.871 3.3a4.505 4.505 0 0 0 4.812-2.389 24.43 24.43 0 0 0 1.284-3.409z" data-name="Path 861" transform="translate(-288.348 -36.607)"/>
            <path id="Path_862" d="M-461.852-95.164a5.4 5.4 0 0 1 5.48 5.77 5.749 5.749 0 0 1-5.421 5.83 5.742 5.742 0 0 1-5.984-6.014 5.41 5.41 0 0 1 5.925-5.586z" data-name="Path 862" transform="translate(-39.163)"/>
            <path id="Path_863" d="M175-72.762c0 1.78.069 3.485-.024 5.18-.065 1.194.659 1.285 1.489 1.326.434.021.872-.054 1.309-.073 1.456-.063 1.942.547 1.445 1.935-.087.244-.575.456-.9.483a13.846 13.846 0 0 1-2.262-.011c-.913-.072-1.067.46-1.063 1.178.015 2.624-.005 5.249.051 7.873.053 2.494 1.575 3.438 4.021 2.37a8.8 8.8 0 0 1 .449 1.922c.006.259-.5.706-.831.769-3.461.662-6-1.044-6.135-4.474-.108-2.709-.187-5.422-.171-8.133.007-1.147-.363-1.675-1.513-1.506-.815.12-1.284-.036-1.307-1.008-.021-.919.169-1.5 1.228-1.407a1.533 1.533 0 0 0 .809-.018c.337-.2.769-.5.84-.827a7.354 7.354 0 0 0 .032-1.91c-.119-2.448-.018-2.607 2.533-3.669z" data-name="Path 863" transform="translate(-523.142 -17.019)"/>
            <path id="Path_864" d="M-346.572-30.243a7.877 7.877 0 0 0-.989.051c-1.111.215-1.483-.219-1.473-1.347.043-4.633.022-9.267-.005-13.9 0-.7-.056-1.341.914-1.255.722.064 1.712-.279 1.677 1.061a2.737 2.737 0 0 0 .356.939 4.287 4.287 0 0 0 .822-.56c1.487-1.623 3.36-1.817 5.377-1.5.818.13.461.652.46 1.169 0 1.3-.488 1.538-1.686 1.194-1.577-.452-3.226.593-4.187 2.425a11.462 11.462 0 0 0-1.076 5.226c-.038 1.791-.012 3.583-.033 5.374a8.974 8.974 0 0 1-.157 1.123z" data-name="Path 864" transform="translate(-129.33 -36.672)"/>
            <path id="Path_865" d="M-57.392-30.247v-9.471c0-1.76.016-3.519.028-5.279.013-1.861-.2-1.8 1.589-1.731.231.008.463 0 .808 0l.216 2.274a10.05 10.05 0 0 0 1.613-1.165c1.4-1.546 3.2-1.455 4.978-1.208 1.116.154.516 1.094.415 1.654a1.2 1.2 0 0 1-.872.769c-3.614-.131-5.584 1.533-5.853 5.2-.177 2.415-.219 4.842-.252 7.265-.015 1.1-.122 1.922-1.551 1.583a4.417 4.417 0 0 0-1.119.109z" data-name="Path 865" transform="translate(-350.801 -36.607)"/>
        </g>
    </g>
</svg>
