<svg xmlns="http://www.w3.org/2000/svg" width="658.642" height="1238.288" viewBox="0 0 1158.642 1238.288">
    <defs>
        <style>
            .cls-1{fill:#fff4f4}.cls-2{fill:#fa0000}
        </style>
    </defs>
    <g id="Group_297" data-name="Group 297" transform="translate(-417.057 -769.019)">
        <path id="Path_754" d="M207.011 833.623L662.8 67.307l531.63 749L872.056 657.5l19.325-10.391s13.7 1.406 23.479-3.838c2.639-1.416 6.375-6.566 12.457-10.509 3.578-2.317 9.193-7.97 16.193-12.122 10.566-6.266 20.683-13.79 20.683-13.79L662.8 320.282l-56.218 55.024-14.533 14.224s-21.748 16.99-36.305 30.291c-12.442 11.368-24.012 18.707-28.452 23.193-7.743 7.823-8.838 16.307-9.37 23.305a45.627 45.627 0 0 0 1.316 15.653z" class="cls-1" data-name="Path 754" transform="rotate(120 578.18 1004.848)"/>
        <path id="Path_757" d="M1210.865 1636.188l919.964-83.8 6.579 10.864-940.281 81.795z" class="cls-2" data-name="Path 757" transform="translate(-780.071 3)"/>
    </g>
</svg>
