<svg xmlns="http://www.w3.org/2000/svg" width="96" height="96" viewBox="0 0 96 96">
    <defs>
        <style>
            .prefix__cls-2{fill:#fff;stroke-linecap:round;stroke-linejoin:round}.prefix__cls-3{fill:#58af32}.prefix__cls-4,.prefix__cls-5{stroke:none}.prefix__cls-5{fill:#d8d8d8}
        </style>
    </defs>
    <g id="prefix__Group_314" data-name="Group 314" transform="translate(-330 -42)">
        <path id="prefix__Rectangle_358" d="M0 0H96V96H0z" data-name="Rectangle 358" transform="translate(330 42)" style="fill:none"/>
        <g id="prefix__Path_820" class="prefix__cls-2" data-name="Path 820">
            <path d="M45.983 70.471c-7.875-2.403-15.834-3.622-23.666-3.622-7.165 0-12.897 1.041-16.443 1.915-2.622.645-4.446 1.286-5.374 1.643V3.433c.69-.41 2.895-1.655 6.209-2.887 3.708-1.378 9.603-3.02 16.63-3.02 7.817 0 15.434 1.992 22.644 5.922v67.023z" class="prefix__cls-4" transform="translate(377.517 53)"/>
            <path d="M23.338-1.975c-6.938 0-12.762 1.62-16.426 2.98C3.942 2.104 1.872 3.218 1 3.72v65.969c1.042-.373 2.646-.892 4.754-1.41 3.573-.88 9.348-1.93 16.563-1.93 7.667 0 15.454 1.16 23.166 3.45V3.745c-7.058-3.796-14.506-5.72-22.145-5.72m0-1c6.887 0 14.824 1.53 23.145 6.126V71.15c-9.086-2.85-17.28-3.8-24.166-3.8C8.543 67.35 0 71.15 0 71.15V3.152s9.567-6.127 23.338-6.127z" class="prefix__cls-5" transform="translate(377.517 53)"/>
        </g>
        <g id="prefix__Path_821" class="prefix__cls-2" data-name="Path 821">
            <path d="M45.983 70.471c-7.875-2.403-15.834-3.622-23.666-3.622-7.165 0-12.897 1.041-16.443 1.915-2.622.645-4.446 1.286-5.374 1.643V3.433c.69-.41 2.895-1.655 6.209-2.887 3.708-1.378 9.603-3.02 16.63-3.02 7.817 0 15.434 1.992 22.644 5.922v67.023z" class="prefix__cls-4" transform="translate(332.247 53)"/>
            <path d="M23.338-1.975c-6.938 0-12.762 1.62-16.426 2.98C3.942 2.104 1.872 3.218 1 3.72v65.969c1.042-.373 2.646-.892 4.754-1.41 3.573-.88 9.348-1.93 16.563-1.93 7.667 0 15.454 1.16 23.166 3.45V3.745c-7.058-3.796-14.506-5.72-22.145-5.72m0-1c6.887 0 14.824 1.53 23.145 6.126V71.15c-9.086-2.85-17.28-3.8-24.166-3.8C8.543 67.35 0 71.15 0 71.15V3.152s9.567-6.127 23.338-6.127z" class="prefix__cls-5" transform="translate(332.247 53)"/>
        </g>
        <rect id="prefix__Rectangle_361" width="32" height="2" class="prefix__cls-3" data-name="Rectangle 361" rx="1" transform="translate(339 70)"/>
        <rect id="prefix__Rectangle_368" width="32" height="2" class="prefix__cls-3" data-name="Rectangle 368" rx="1" transform="translate(385 70)"/>
        <rect id="prefix__Rectangle_362" width="32" height="2" class="prefix__cls-3" data-name="Rectangle 362" rx="1" transform="translate(339 80)"/>
        <rect id="prefix__Rectangle_367" width="32" height="2" class="prefix__cls-3" data-name="Rectangle 367" rx="1" transform="translate(385 80)"/>
        <rect id="prefix__Rectangle_363" width="32" height="2" class="prefix__cls-3" data-name="Rectangle 363" rx="1" transform="translate(339 90)"/>
        <rect id="prefix__Rectangle_366" width="32" height="2" class="prefix__cls-3" data-name="Rectangle 366" rx="1" transform="translate(385 90)"/>
        <rect id="prefix__Rectangle_364" width="32" height="2" class="prefix__cls-3" data-name="Rectangle 364" rx="1" transform="translate(339 100)"/>
        <rect id="prefix__Rectangle_365" width="32" height="2" class="prefix__cls-3" data-name="Rectangle 365" rx="1" transform="translate(385 100)"/>
    </g>
</svg>
