<svg xmlns="http://www.w3.org/2000/svg" width="96" height="97.705" viewBox="0 0 96 97.705">
    <defs>
        <style>
            .prefix__cls-2,.prefix__cls-3{fill:none}.prefix__cls-3{stroke:#58af32;stroke-linecap:round;stroke-width:2px}
        </style>
    </defs>
    <g id="prefix__Group_312" data-name="Group 312" transform="translate(-138 -40.295)">
        <g id="prefix__Group_311" data-name="Group 311" transform="translate(-6.283 -5.98)">
            <g id="prefix__Symbol_4_1" data-name="Symbol 4 – 1" transform="rotate(-17 312.14 -446.842)">
                <path id="prefix__Path_814" d="M59 10.268a14 14 0 0 1-.8 2.228 13.664 13.664 0 0 1-2.019 2.436c-1.775 1.845-3.655 3.62-5.43 5.465a6.747 6.747 0 0 1-9.711.035c-.452-.487-.94-.975-1.427-1.427a2.96 2.96 0 0 0-2.367-.8 10.178 10.178 0 0 0-4.595 1.74 43.668 43.668 0 0 0-10.442 9.468 19.392 19.392 0 0 0-3.272 5.117 11.966 11.966 0 0 0-.7 2.715 3.024 3.024 0 0 0 1.079 2.645 17.423 17.423 0 0 1 2.158 2.367 6.465 6.465 0 0 1-.87 8.249c-2.158 2.158-4.316 4.281-6.474 6.439a6.7 6.7 0 0 1-4.351 2.019.819.819 0 0 0-.278.07h-.173a2.037 2.037 0 0 0-.452-.07 7.245 7.245 0 0 1-2.68-.8A12.434 12.434 0 0 1 3.69 56a10.741 10.741 0 0 1-3.272-5.565c-.139-.7-.278-1.392-.418-2.123v-2.75a.5.5 0 0 0 .07-.209 27.275 27.275 0 0 1 1.392-6.439A44.848 44.848 0 0 1 6.927 27.95c1.5-2.228 3.133-4.351 4.8-6.439a49.066 49.066 0 0 1 4.038-4.455c1.845-1.845 3.759-3.655 5.778-5.325 2.123-1.74 4.316-3.376 6.613-4.908a43.131 43.131 0 0 1 9.607-4.908A28.551 28.551 0 0 1 44.135.278c.87-.1 1.74-.174 2.611-.278h.278l.94.1a13.4 13.4 0 0 1 5.047 1.323 17.032 17.032 0 0 1 4.107 3.446 6.665 6.665 0 0 1 1.775 3.341c.035.1.07.244.1.348.007.596.007 1.153.007 1.71z" data-name="Path 814" transform="rotate(-74.99 39.006 28.102)" style="fill:#fff;stroke:#d8d8d8"/>
                <path id="prefix__Rectangle_333" d="M0 0H73.051V73.051H0z" class="prefix__cls-2" data-name="Rectangle 333"/>
            </g>
            <path id="prefix__Path_816" d="M0 5.566C2.774-.393 12.15-1.923 17.488 2.72" class="prefix__cls-3" data-name="Path 816" transform="rotate(52 26.26 244.856)"/>
            <path id="prefix__Path_817" d="M0 9.395C4.683-.663 20.509-3.245 29.519 4.591" class="prefix__cls-3" data-name="Path 817" transform="rotate(52 39.627 242.166)"/>
            <path id="prefix__Path_818" d="M0 13.219C6.59-.933 28.857-4.566 41.533 6.46" class="prefix__cls-3" data-name="Path 818" transform="rotate(52 55.925 239.502)"/>
        </g>
        <path id="prefix__Rectangle_356" d="M0 0H96V96H0z" class="prefix__cls-2" data-name="Rectangle 356" transform="translate(138 42)"/>
    </g>
</svg>
