<svg xmlns="http://www.w3.org/2000/svg" width="96" height="96" viewBox="0 0 96 96">
    <defs>
        <style>
            .prefix__cls-2{fill:none}.prefix__cls-4{stroke:none}
        </style>
    </defs>
    <g id="prefix__Group_313" data-name="Group 313" transform="translate(-234 -42)">
        <g id="prefix__Path_819" data-name="Path 819" style="fill:#fff">
            <path d="M25.22 73.077c-1.492-2.094-6.87-9.739-12.186-18.54-3.65-6.043-6.556-11.439-8.64-16.038C1.81 32.792.5 28.325.5 25.219c0-3.337.654-6.574 1.942-9.621C3.687 12.654 5.47 10.01 7.74 7.74c2.27-2.27 4.914-4.053 7.858-5.298C18.645 1.154 21.882.5 25.22.5c3.337 0 6.574.654 9.622 1.942 2.943 1.245 5.587 3.028 7.857 5.298 2.27 2.27 4.053 4.914 5.298 7.858 1.29 3.047 1.943 6.284 1.943 9.622 0 3.105-1.31 7.572-3.895 13.279-2.083 4.6-4.99 9.995-8.64 16.037-5.316 8.802-10.693 16.447-12.185 18.54z" class="prefix__cls-4" transform="translate(257 53.095)"/>
            <path d="M25.22 1c-3.27 0-6.442.64-9.427 1.903-2.884 1.22-5.475 2.966-7.7 5.19-2.224 2.225-3.97 4.816-5.19 7.7C1.64 18.778 1 21.95 1 25.22c0 5.511 4.308 15.557 12.459 29.052 4.904 8.12 9.86 15.254 11.76 17.941 1.901-2.687 6.858-9.822 11.762-17.94C45.13 40.776 49.44 30.73 49.44 25.22c0-3.27-.64-6.442-1.903-9.427-1.22-2.884-2.967-5.475-5.191-7.7-2.225-2.224-4.815-3.97-7.699-5.19C31.662 1.64 28.49 1 25.22 1m0-1c13.928 0 25.22 11.291 25.22 25.22 0 13.928-25.22 48.715-25.22 48.715S0 39.148 0 25.22C0 11.29 11.291 0 25.22 0z" style="fill:#d8d8d8;stroke:none" transform="translate(257 53.095)"/>
        </g>
        <path id="prefix__Rectangle_357" d="M0 0H96V96H0z" class="prefix__cls-2" data-name="Rectangle 357" transform="translate(234 42)"/>
        <g id="prefix__Ellipse_14" data-name="Ellipse 14" transform="translate(273 68)" style="stroke:#58af32;stroke-width:2px;fill:#fff">
            <circle cx="9" cy="9" r="9" class="prefix__cls-4"/>
            <circle cx="9" cy="9" r="8" class="prefix__cls-2"/>
        </g>
    </g>
</svg>
