<svg xmlns="http://www.w3.org/2000/svg" width="176" height="72" viewBox="0 0 176 72">
    <defs>
        <style>
            .cls-1{fill:none}.cls-2{fill:#e0952c}.cls-3{fill:#151515}
        </style>
    </defs>
    <g id="Group_332" data-name="Group 332" transform="translate(-466 -4084)">
        <path id="Rectangle_369" d="M0 0h176v72H0z" class="cls-1" data-name="Rectangle 369" transform="translate(466 4084)"/>
        <g id="Group_333" data-name="Group 333" transform="translate(2009.712 4014.23)">
            <path id="Path_883" d="M-1534.949 315.375a32.917 32.917 0 0 1 3.626-.08c.364-.013.509.2.532.523.018.257.016.516.016.774v21.371c0 1.207 0 1.2 1.167 1.2 3.562 0 7.124.018 10.685-.011.67-.005.93.17.88.867a18.141 18.141 0 0 0 0 2.4c.042.68-.2.891-.881.888-4.749-.024-9.5-.011-14.247-.013-.592 0-1.185-.023-1.778-.036z" class="cls-2" data-name="Path 883" transform="translate(0 -205.066)"/>
            <path id="Path_884" d="M-568.579 373.171a1.226 1.226 0 0 0-.285-.089c-1.394-.079-1.394-.077-1.394-1.509 0-.438-.009-.877 0-1.315.02-.719-.324-1.02-1.038-1.013-1.728.019-3.457.016-5.185 0-.687-.005-.994.305-.981.984.014.7.019 1.393 0 2.089-.017.644.281.966.916.97.954.006 1.909.008 2.863 0a.825.825 0 0 0 .9-.926c.009-.7.03-1.394-.007-2.089-.024-.449.136-.6.566-.555a3.935 3.935 0 0 0 .7 0c.336-.023.447.116.44.45-.021.928.017 1.858-.021 2.786a2.016 2.016 0 0 1-2.1 2.023q-1.934.039-3.869 0a1.985 1.985 0 0 1-2.062-2.117q-.015-1.586 0-3.173a1.948 1.948 0 0 1 2.059-2.107c1.96-.026 3.922.028 5.88-.039a2.55 2.55 0 0 1 2.617 1.444z" class="cls-3" data-name="Path 884" transform="translate(-807.731 -249.228)"/>
            <path id="Path_885" d="M-578.021 460.457c.06-.255-.174-.282-.3-.382a2.009 2.009 0 0 1-.8-1.677c0-1.11-.016-2.22.007-3.33a1.9 1.9 0 0 1 1.866-1.981 61.063 61.063 0 0 1 4.258-.005 1.922 1.922 0 0 1 1.89 1.889c.054 1.211.033 2.426 0 3.638-.025.895-.681 1.381-1.333 1.848zm2.857-1.687c.489 0 .977-.007 1.465 0a.8.8 0 0 0 .921-.886c.015-.745.019-1.491 0-2.236a.817.817 0 0 0-.908-.906h-2.005c-1.756 0-1.756 0-1.756 1.74.002 2.475-.222 2.292 2.283 2.288z" class="cls-3" data-name="Path 885" transform="translate(-807.739 -321.487)"/>
            <path id="Path_886" d="M-1281.845 72.629a112.276 112.276 0 0 1 19.886 1.5 82.676 82.676 0 0 1 23.635 7.549 55.84 55.84 0 0 1 14.766 10.592 43.419 43.419 0 0 1 8.308 11.755c.513 1.066.9 2.193 1.348 3.291.16.392.058.64-.363.758-.6.167-1.193.333-1.779.531-.5.17-.763-.016-.933-.491a34.507 34.507 0 0 0-3-6.185 39.869 39.869 0 0 0-7.378-8.892 53.365 53.365 0 0 0-13.119-8.661 74 74 0 0 0-15.1-5.23 98.452 98.452 0 0 0-12.739-2.079 108.5 108.5 0 0 0-15-.326 117.3 117.3 0 0 0-18.781 2.34 131.357 131.357 0 0 0-18.081 5.076q-4.589 1.644-9.016 3.691c-1.053.486-1.057.487-1.634-.538-.493-.877-.94-1.782-1.475-2.632-.341-.542-.147-.761.341-.972 2.107-.91 4.223-1.794 6.371-2.6a131.4 131.4 0 0 1 13.108-4.2 133.889 133.889 0 0 1 16.379-3.223 135.376 135.376 0 0 1 14.256-1.054z" class="cls-2" data-name="Path 886" transform="translate(-171.107)"/>
            <path id="Path_887" d="M-1073.374 322.163c-.766 1.936-1.538 3.871-2.3 5.81q-2.877 7.345-5.732 14.7a.807.807 0 0 1-.9.629 48.236 48.236 0 0 0-3.019 0c-.7.024-.773-.242-.536-.828 1.138-2.821 2.253-5.652 3.38-8.478q2.648-6.645 5.3-13.29c.639-1.6 1.278-3.21 1.9-4.821a.794.794 0 0 1 .855-.609c.773.028 1.549.018 2.323.007a.769.769 0 0 1 .823.546c1.627 4.1 3.273 8.188 4.905 12.284q2.862 7.182 5.713 14.369c.319.8.316.808-.533.812-.955 0-1.912-.038-2.865.015a1.021 1.021 0 0 1-1.134-.8c-.633-1.635-1.334-3.244-1.944-4.887a.958.958 0 0 0-1.094-.7c-2.736.026-5.472.019-8.208.017-1.036 0-1.063-.053-.685-.979.331-.812.682-1.618.955-2.45a.948.948 0 0 1 1.085-.73c1.755.032 3.51.015 5.266.019.4 0 .75-.014.522-.6q-1.956-5.005-3.894-10.019z" class="cls-2" data-name="Path 887" transform="translate(-379.415 -205.057)"/>
            <path id="Path_888" d="M-848.678 386.585c-1.627 0-3.253.009-4.88 0-3.576-.025-5.567-1.739-5.74-5.3a79.411 79.411 0 0 1 .051-9.906 4.86 4.86 0 0 1 5.058-4.819q4.1-.11 8.209.005a5.039 5.039 0 0 1 5.091 5.154 8.606 8.606 0 0 1-.534 4.026 4.664 4.664 0 0 1-3.989 2.782c-2.648.3-5.313.091-7.97.134-.378.006-.582-.142-.581-.542 0-1.033.01-2.066 0-3.1-.008-.588.384-.574.787-.574h6.119c1.392 0 1.959-.492 1.976-1.691.02-1.42-.566-2.072-1.948-2.086q-3.059-.029-6.119 0c-1.4.015-1.987.592-2 1.98q-.029 3.911 0 7.823c.011 1.388.6 1.963 2.012 1.971 3.253.016 6.507.02 9.76-.006.675-.005.992.144.933.9a21.951 21.951 0 0 0-.008 2.555c.021.552-.2.708-.728.7-1.833-.019-3.666-.005-5.499-.006z" class="cls-2" data-name="Path 888" transform="translate(-570.869 -248.352)"/>
            <path id="Path_889" d="M-1212.35 366.445a52.407 52.407 0 0 1 5.494.089c3.043.389 4.67 2.18 4.731 5.235q.1 4.8 0 9.6a4.844 4.844 0 0 1-4.913 5.053 48.065 48.065 0 0 1-9.043-.068 4.808 4.808 0 0 1-4.4-4.794 8.8 8.8 0 0 1 .505-4.259 4.6 4.6 0 0 1 3.907-2.774 72.386 72.386 0 0 1 7.736-.163c.591-.007.886.212.847.873-.052.875-.022 1.755-.006 2.632.008.446-.15.634-.624.661-2.14.124-4.281-.02-6.421.056-1.354.048-1.856.59-1.843 1.927a1.676 1.676 0 0 0 1.9 1.842q3.136.035 6.273 0c1.411-.017 1.959-.593 1.966-2.012.012-2.581.008-5.163 0-7.744 0-1.39-.568-1.992-1.964-2a528.895 528.895 0 0 0-9.757 0c-.77.009-1.073-.183-1-.987a16.614 16.614 0 0 0 0-2.4c-.038-.631.214-.791.806-.781 1.78.034 3.562.014 5.806.014z" class="cls-2" data-name="Path 889" transform="translate(-265.71 -248.272)"/>
            <path id="Path_890" d="M-1352.694 382.4a1.544 1.544 0 0 0 .927.127c3.407 0 6.815.017 10.222-.01.657-.005.941.152.888.861a18.168 18.168 0 0 0 0 2.4c.039.668-.177.9-.871.894-4.027-.028-8.054-.012-12.081-.011-1.575 0-3.15-.022-4.724.013-.614.013-.754-.185-.891-.8-.547-2.478 1.156-3.746 2.585-5.2q4.5-4.582 8.957-9.2c.167-.172.509-.334.365-.6-.126-.235-.473-.121-.722-.122-3.408-.006-6.815-.02-10.222.008-.7.006-.983-.187-.939-.914.051-.849.031-1.7 0-2.555-.017-.5.176-.7.673-.688 1.135.017 2.271 0 3.407 0h13.4c1.049 0 .948.016 1.074 1a4.6 4.6 0 0 1-1.719 4.168c-3.355 3.238-6.566 6.626-9.831 9.958a1.613 1.613 0 0 0-.498.671z" class="cls-2" data-name="Path 890" transform="translate(-148.411 -248.426)"/>
            <path id="Path_891" d="M-1298.322 135.228q-14.21 13.653-28.418 27.309-2.623 2.522-5.195 5.1a.847.847 0 0 1-1.08.226q-7.2-3.005-14.424-5.975l-24.241-10.026c-1.845-.763-3.687-1.533-5.358-2.228-.079-.095-.028.025.032.03 1.777.157 3.346 1.016 5.024 1.477 3.226.888 6.376 2 9.556 3.018q14.927 4.786 29.824 9.664a1.118 1.118 0 0 0 1.246-.234q9.047-7.874 18.122-15.715l14.676-12.717c.078.022.158.043.236.071z" class="cls-3" data-name="Path 891" transform="translate(-133.413 -52.843)"/>
            <path id="Path_892" d="M-647.77 335.231c0-2.321-.019-4.643.012-6.964.009-.652-.1-1.051-.865-.932-.595.091-.75-.227-.729-.772.032-.85.031-1.7 0-2.553-.022-.588.177-.9.795-.81.681.1.806-.232.8-.842-.031-2.115 0-4.23-.02-6.345-.006-.549.134-.8.731-.767a22.225 22.225 0 0 0 2.4-.006c.634-.035.851.174.84.829-.037 2.089.013 4.179-.026 6.267-.013.672.169.938.864.877.64-.056 1.289 0 1.933-.02.457-.015.656.157.645.63a60.685 60.685 0 0 0-.005 2.862c.012.526-.24.669-.71.657-.67-.016-1.342.028-2.011-.007-.55-.028-.712.192-.708.722.017 2.682 0 5.365 0 8.047 0 2.089-.027 4.179.023 6.267.018.736-.237.945-.927.9a16.711 16.711 0 0 0-2.242 0c-.666.046-.819-.223-.811-.844.031-2.4.013-4.8.013-7.2zm6.242-9.662c0-1.076 0-1.083-.923-1.077-1.3.008-1.183-.146-1.194.961-.011 1.167 0 1.173 1.007 1.165 1.275-.009 1.09.082 1.11-1.049z" class="cls-2" data-name="Path 892" transform="translate(-748.398 -205.028)"/>
            <path id="Path_893" d="M-902.135 329.247v13c0 .988 0 .992-.986.993-.877 0-1.755-.014-2.632.007-.436.01-.611-.175-.6-.592.008-.361 0-.722 0-1.084 0-8.463.007-16.927-.021-25.39 0-.75.2-1.017.953-.958.718.056 1.444.013 2.166.011 1.121 0 1.121 0 1.121 1.082v12.927z" class="cls-2" data-name="Path 893" transform="translate(-531.197 -205.012)"/>
            <path id="Path_894" d="M-717.561 379.193c0 2.194-.021 4.388.013 6.581.01.666-.186.935-.878.9-.9-.048-1.807-.026-2.709-.005-.482.011-.721-.158-.714-.664.072-4.8-.143-9.6.12-14.4a4.984 4.984 0 0 1 5.158-4.979c1.031-.038 2.065-.006 3.1-.032.471-.012.639.175.629.639-.022.98-.019 1.962 0 2.942.008.465-.186.645-.645.632a43.527 43.527 0 0 0-2.168 0c-1.363.026-1.88.531-1.889 1.879-.014 2.168 0 4.336 0 6.5z" class="cls-2" data-name="Path 894" transform="translate(-687.12 -248.43)"/>
            <path id="Path_895" d="M-1408.871 376.192c0-3.019.027-6.039-.017-9.058-.012-.8.245-1.044 1.018-.986a24.727 24.727 0 0 0 2.476 0c.552-.014.79.2.789.771q-.016 9.368 0 18.736c0 .569-.241.7-.749.687-.9-.028-1.808-.051-2.709 0-.676.037-.828-.25-.824-.862.026-3.094.014-6.191.016-9.288z" class="cls-2" data-name="Path 895" transform="translate(-106.531 -248.044)"/>
            <path id="Path_896" d="M-1395.25 152.813c.292.009.391.21.5.376.72 1.1 1.43 2.206 2.148 3.307.21.321.286.573-.143.807q-3.966 2.168-7.916 4.364a.416.416 0 0 1-.644-.163c-.752-1.169-1.522-2.327-2.286-3.488-.2-.309-.214-.543.166-.749 2.625-1.43 5.243-2.874 7.863-4.312.111-.06.232-.105.312-.142z" class="cls-2" data-name="Path 896" transform="translate(-110.89 -67.766)"/>
            <path id="Path_897" d="M-1450.521 198.749a3.275 3.275 0 0 1-.336-.314c-.845-1.041-1.672-2.1-2.531-3.126-.347-.415-.313-.678.141-.975q2.492-1.631 4.955-3.306a.576.576 0 0 1 .917.129c.807 1.031 1.63 2.05 2.441 3.078.213.271.413.529-.027.82-1.763 1.166-3.511 2.355-5.266 3.533-.085.056-.179.098-.294.161z" class="cls-2" data-name="Path 897" transform="translate(-68.727 -99.917)"/>
            <path id="Path_898" d="M-1523.876 258.226a4.622 4.622 0 0 1-.367.447q-1.689 1.579-3.387 3.149a.512.512 0 0 1-.8.008 261.097 261.097 0 0 0-3.312-3c-.443-.39-.4-.672.031-1.052a111.14 111.14 0 0 0 3.127-2.857c.41-.387.715-.45 1.164-.014 1.013.984 2.083 1.909 3.126 2.862.141.139.266.294.418.457z" class="cls-2" data-name="Path 898" transform="translate(-2.44 -153.793)"/>
            <path id="Path_899" d="M-1490.475 223.585a4.554 4.554 0 0 1 .41.339c.963 1 1.913 2.014 2.886 3 .338.344.3.592-.062.876q-1.795 1.394-3.569 2.814a.5.5 0 0 1-.794-.051c-.989-1.047-1.988-2.084-2.983-3.126-.191-.2-.346-.4-.046-.642l3.859-3.073a1.582 1.582 0 0 1 .299-.137z" class="cls-2" data-name="Path 899" transform="translate(-33.927 -127.574)"/>
            <path id="Path_900" d="M-1406.742 317.64c0 .644-.015 1.29 0 1.934.014.469-.191.635-.647.63q-1.972-.024-3.945 0c-.418 0-.614-.132-.609-.574q.02-2.05 0-4.1c0-.432.167-.595.594-.59q2.011.023 4.022.006c.432 0 .6.185.592.6-.013.7 0 1.392 0 2.088z" class="cls-2" data-name="Path 900" transform="translate(-103.953 -204.777)"/>
            <path id="Path_901" d="M-956.048 275.318a1.858 1.858 0 0 0-.231 0c-2.022.257-2.382-.718-1.935-2.891a1.325 1.325 0 0 0-.03-.842c-.589-1.535.113-2.541 1.737-2.543a7.587 7.587 0 0 0 .772 0c2.006-.209 2.168 1.277 1.765 2.626a1.052 1.052 0 0 0 .026.756 3.623 3.623 0 0 1 .021 2.13 1.024 1.024 0 0 1-1.043.762c-.36.014-.72 0-1.081 0zm-.042-.992c1.256.005 1.2 0 1.275-.837.07-.8-.229-1.069-.993-.967a8.03 8.03 0 0 1-1 .008c-.179 0-.407-.015-.463.184a2.311 2.311 0 0 0-.013 1.358c.134.4.57.219.883.254a2.45 2.45 0 0 0 .311 0zm-.032-2.834h.385c.513.023.941.055.934-.721-.008-.806-.488-.685-.97-.681a7.85 7.85 0 0 1-.847 0c-.517-.052-.732.116-.734.679 0 .586.211.8.77.729a3.59 3.59 0 0 1 .462-.006z" class="cls-3" data-name="Path 901" transform="translate(-487.187 -165.969)"/>
            <path id="Path_902" d="M-1000.509 275.44h-.154c-.624-.041-1.422.231-1.8-.364a3 3 0 0 1-.157-2.542.95.95 0 0 0 0-.766c-.646-1.549.067-2.6 1.723-2.6h.772c1.669 0 2.359 1 1.768 2.585-.089.238-.207.42-.054.706a3.061 3.061 0 0 1 .142 1.893c-.1.785-.495 1.075-1.322 1.089-.309.005-.618 0-.927 0zm0-.991c1.29 0 1.29 0 1.3-.825.009-.972.009-.972-.984-.974a6.47 6.47 0 0 1-.77-.005c-.674-.082-.818.247-.812.856.006.594.049 1.038.805.949a3.591 3.591 0 0 1 .461-.001zm.047-2.836h.23c.475-.026 1.032.193 1.04-.687.008-.862-.515-.708-1.011-.712-.282 0-.566.024-.845 0-.526-.054-.73.14-.726.689 0 .518.141.782.7.719a5.418 5.418 0 0 1 .612-.009z" class="cls-3" data-name="Path 902" transform="translate(-449.667 -166.091)"/>
            <path id="Path_903" d="M-817.627 272.2c0-.618-.017-1.237 0-1.854a1.18 1.18 0 0 1 1.2-1.243 19.386 19.386 0 0 1 2.008 0 1.215 1.215 0 0 1 1.273 1.337c.015 1.21.017 2.421 0 3.632a1.164 1.164 0 0 1-1.29 1.291c-.669.013-1.34.02-2.009 0a1.1 1.1 0 0 1-1.173-1.155c-.03-.668-.006-1.339-.006-2.009zm3.453.086v-.386c-.055-2.131.364-1.7-1.877-1.765-.434-.012-.615.158-.615.574v3.087c0 .365.148.547.542.588 1.88.2 1.948.147 1.948-1.713l.002-.387z" class="cls-3" data-name="Path 903" transform="translate(-606.188 -166.017)"/>
            <path id="Path_904" d="M-780.374 272.252c0 .644.016 1.289-.005 1.932a1.085 1.085 0 0 1-1.164 1.154q-1.043.032-2.087 0a1.158 1.158 0 0 1-1.226-1.211q-.047-1.893 0-3.788a1.2 1.2 0 0 1 1.2-1.258 16.355 16.355 0 0 1 2.086 0 1.159 1.159 0 0 1 1.188 1.314c.02.62.009 1.238.008 1.857zm-3.432-.094v1.622c0 .231-.035.519.29.533.615.028 1.233.027 1.847 0 .3-.013.332-.281.333-.521q.005-1.583 0-3.166c0-.334-.14-.486-.509-.519-1.964-.173-1.963-.184-1.962 1.741l.002.31z" class="cls-3" data-name="Path 904" transform="translate(-633.869 -165.995)"/>
            <path id="Path_905" d="M-574.61 425.324h-2.474a2.01 2.01 0 0 1-2.219-2.193 2.713 2.713 0 0 0 0-.463c-.141-.773.148-1.006.939-.97.625.028.776.207.761.8-.026 1 .141 1.134 1.177 1.137 1.521 0 3.042.041 4.561-.01.9-.03.543.585.605.991.074.485-.036.762-.641.725-.9-.055-1.8-.014-2.705-.014z" class="cls-3" data-name="Path 905" transform="translate(-807.564 -294.991)"/>
            <path id="Path_906" d="M-887.035 272.263v1.394a1.769 1.769 0 0 1-2.4 1.873c-.1-.022-.182-.1-.279-.118-1.765-.313-1.765-.312-1.769-2.067 0-.929-.008-1.859 0-2.788.009-.963.45-1.4 1.423-1.424a28.34 28.34 0 0 1 1.7 0 1.2 1.2 0 0 1 1.321 1.352c.009.591.004 1.184.004 1.778zm-.959.028v-1.617c0-.346-.154-.573-.508-.49-.649.152-1.416-.4-1.962.327-.026.035-.014.1-.014.151 0 1.078.007 2.156 0 3.234a.435.435 0 0 0 .423.51c1.754.317 2.065.075 2.064-1.654l-.003-.461z" class="cls-3" data-name="Path 906" transform="translate(-543.775 -166.054)"/>
            <path id="Path_907" d="M-924.627 272.216c0-.645.014-1.29 0-1.935-.022-.815.464-1.158 1.173-1.214a15.424 15.424 0 0 1 2.088-.007 1.205 1.205 0 0 1 1.213 1.324q.027 1.819 0 3.638a1.163 1.163 0 0 1-1.286 1.3 46.23 46.23 0 0 1-1.935 0c-.9-.02-1.176-.288-1.242-1.172-.025-.334-.024-.67-.029-1.005v-.929zm3.47.063v-.385c0-1.9 0-1.886-1.9-1.8-.425.018-.611.161-.608.584.008 1.027 0 2.055.006 3.082 0 .237.015.512.312.538a3.664 3.664 0 0 0 2.042-.091c.382-.206.1-.858.142-1.307.022-.209.004-.416.005-.621z" class="cls-3" data-name="Path 907" transform="translate(-515.75 -165.977)"/>
            <path id="Path_908" d="M-708.429 271.19c0-.465-.007-.929 0-1.393.007-.333-.141-.738.483-.716s.445.443.452.764c.016.8-.009 1.6.011 2.4.01.4-.158.856.3 1.175a3.943 3.943 0 0 1-.422 1.875 1.487 1.487 0 0 1-.6.06c-.266-.01-.251-.235-.225-.4.086-.569-.233-.629-.683-.614-.67.022-1.342-.013-2.012.013-.385.015-.519-.139-.475-.5a2.178 2.178 0 0 1 .087-.527c.5-1.27 1.031-2.53 1.52-3.805a.594.594 0 0 1 .62-.439c.529-.028.626.115.409.609-.445 1.014-.825 2.056-1.256 3.077-.177.419-.071.518.368.53 1.417.041 1.416.058 1.416-1.334q.006-.388.007-.775z" class="cls-3" data-name="Path 908" transform="translate(-695.793 -166.02)"/>
            <path id="Path_909" d="M-740.248 270.807c0-1.7 0-1.7 1.727-1.7.361 0 .724.022 1.083-.005.437-.033.652.062.649.578 0 .543-.317.484-.656.479a7.431 7.431 0 0 1-1-.01c-.75-.114-.846.27-.816.89.02.413.16.507.544.526 2.179.106 2.425.392 2.278 2.537a1.2 1.2 0 0 1-1.324 1.28c-.645.012-1.29-.014-1.934.007-.363.012-.568-.039-.56-.485.007-.41.141-.539.541-.518.566.029 1.135.015 1.7 0 .841-.015.5-.66.558-1.083.06-.445-.039-.78-.6-.715a3.425 3.425 0 0 1-.387 0c-1.802.001-1.802.001-1.803-1.781z" class="cls-3" data-name="Path 909" transform="translate(-671.573 -166.031)"/>
            <path id="Path_910" d="M-667.167 270.835c0-1.72 0-1.72 1.725-1.716.386 0 .774.026 1.158 0 .433-.035.584.116.581.561s-.187.524-.562.5c-.359-.024-.721-.006-1.081 0-.818 0-1.007.262-.83 1.083.047.218.137.316.352.313.077 0 .155.006.232 0 2.068-.11 2.449.395 2.149 2.9a1.007 1.007 0 0 1-1.073.914c-.746.022-1.494-.009-2.24.015-.373.012-.415-.177-.416-.474 0-.322.032-.544.45-.525.591.028 1.184 0 1.776 0 .76 0 .56-.565.586-1s.014-.855-.614-.8c-.153.013-.309 0-.463 0-1.731-.006-1.731-.006-1.73-1.771z" class="cls-3" data-name="Path 910" transform="translate(-733.34 -166.046)"/>
            <path id="Path_911" d="M-636.893 275.4c-1.879 0-1.879 0-1.858-1.9.018-1.641.291-1.91 1.956-1.928.815-.009.974-.191.879-.933a.461.461 0 0 0-.556-.472c-.438.018-.877-.007-1.315.007-.368.011-.651 0-.65-.509 0-.468.2-.569.613-.549.489.024.98-.007 1.47.008.918.03 1.312.4 1.373 1.308a6.458 6.458 0 0 1-.005 1 1.138 1.138 0 0 1-1.25 1.172c-.18.007-.361 0-.542 0-.972 0-.963.041-1.025.977-.047.709.213.91.876.831a11.958 11.958 0 0 1 1.315-.01c.34 0 .664-.061.669.478 0 .508-.258.528-.633.514-.439-.003-.878.006-1.317.006z" class="cls-3" data-name="Path 911" transform="translate(-757.355 -166.057)"/>
            <path id="Path_912" d="M-845.113 269.128h1.316c.721 0 .886.207.657.936-.177.563-.432 1.1-.655 1.649-.438 1.072-.882 2.142-1.315 3.216-.1.243-.158.47-.5.481-.487.015-.812.018-.524-.641.568-1.3 1.065-2.623 1.613-3.927.205-.488.155-.709-.44-.672s-1.187-.011-1.78.014c-.421.018-.443-.216-.444-.535s.034-.549.45-.528c.535.027 1.08.007 1.622.007z" class="cls-3" data-name="Path 912" transform="translate(-581.211 -166.054)"/>
            <path id="Path_913" d="M-870 128.867c-.079-.024-.158-.048-.236-.074a5.37 5.37 0 0 1 1.387-1.166.538.538 0 0 1 .069.054 4.5 4.5 0 0 1-1.22 1.186z" class="cls-2" data-name="Path 913" transform="translate(-561.736 -46.482)"/>
            <path id="Path_914" d="M-861.284 127.232a.833.833 0 0 1 .136-.072c.06.079-.012.1-.067.125a.533.533 0 0 0-.069-.053z" class="cls-2" data-name="Path 914" transform="translate(-569.3 -46.087)"/>
            <path id="Path_915" d="M-610.4 376.035c-.02 1.133.165 1.04-1.111 1.05-1.011.008-1.018 0-1.007-1.165.011-1.108-.1-.953 1.194-.961.924-.006.924 0 .924 1.076z" class="cls-3" data-name="Path 915" transform="translate(-779.526 -255.494)"/>
        </g>
    </g>
</svg>
