<svg xmlns="http://www.w3.org/2000/svg" width="27.383" height="24" viewBox="0 0 27.383 24">
    <defs>
        <style>
            .cls-1{fill:#484848}
        </style>
    </defs>
    <g id="Group_624" data-name="Group 624" transform="translate(0 -2.553)">
        <path id="Path_809" d="M34.31 23.858c-.019.007-.052.009-.056.02-.679 2.037-2.168 2.7-4.214 2.675-5.291-.053-10.583-.017-15.875-.018a3.5 3.5 0 0 1-3.824-3.794c0-.872.008-1.744 0-2.616 0-.279.019-.422.376-.431 1.333-.031 1.333-.048 1.333 1.3 0 .689-.01 1.379 0 2.068a1.713 1.713 0 0 0 1.764 1.76q8.516.009 17.031 0a1.692 1.692 0 0 0 1.758-1.76q.009-8.516 0-17.031a1.7 1.7 0 0 0-1.759-1.76q-8.516-.009-17.031 0a1.711 1.711 0 0 0-1.763 1.761c-.011.973-.015 1.947 0 2.919.007.333-.073.443-.428.446-1.284.012-1.3.027-1.279-1.281a15.822 15.822 0 0 1 .07-2.669 3.358 3.358 0 0 1 3.387-2.88q8.516-.03 17.031 0a3.374 3.374 0 0 1 3.359 2.617c.022.08.024.157.122.176z" class="cls-1" data-name="Path 809" transform="translate(-6.926)"/>
        <path id="Path_810" d="M0 24.862c.3-.509.778-.544 1.3-.544q8.665.009 17.329 0h.605a1.1 1.1 0 0 0-.4-.516c-1.285-1.294-2.578-2.58-3.864-3.874-.439-.442-.486-.916-.149-1.281a.868.868 0 0 1 1.291.032q2.916 2.888 5.8 5.8a.939.939 0 0 1 0 1.356Q19 28.783 16.063 31.694a.864.864 0 0 1-1.244-.011.848.848 0 0 1 .1-1.241c1.3-1.31 2.607-2.609 3.907-3.917.136-.137.322-.239.383-.455-.191-.124-.4-.057-.588-.057q-8.665-.007-17.329 0A1.354 1.354 0 0 1 0 25.471z" class="cls-1" data-name="Path 810" transform="translate(0 -10.619)"/>
    </g>
</svg>
