<svg xmlns="http://www.w3.org/2000/svg" width="200" height="40.654" viewBox="0 0 200 40.654">
    <defs>
        <style>
            .cls-1{fill:#484848}.cls-2{fill:#368c43}.cls-3{fill:#3fa34e}
        </style>
    </defs>
    <g id="Symbol_1" data-name="Symbol 1" transform="translate(546.698 561.288)">
        <g id="Group_296" data-name="Group 296" transform="translate(-483.064 -550.528)">
            <path id="Path_787" d="M122.075 32.4v-1.725a6.885 6.885 0 0 1-2.131 1.5 8.144 8.144 0 0 1-2.879.461 8.967 8.967 0 0 1-2.995-.4 5.447 5.447 0 0 1-2.07-1.273 5.618 5.618 0 0 1-1.5-4.031 6.282 6.282 0 0 1 1.612-4.434 6.885 6.885 0 0 1 4.895-1.727h5.01v-1.152a2.206 2.206 0 0 0-.979-2.131 4.632 4.632 0 0 0-3.167-.864 6.013 6.013 0 0 0-2.476.4 4.764 4.764 0 0 0-1.67 1.44l-2.476-2.361a6.6 6.6 0 0 1 2.879-2.131 10.812 10.812 0 0 1 3.916-.576c5.183 0 7.774 2.188 7.774 6.507v12.672h-3.743zm-.058-8.637h-4.434a3.914 3.914 0 0 0-2.534.691 2.453 2.453 0 0 0-.864 2.015 2.453 2.453 0 0 0 .864 2.015 4.166 4.166 0 0 0 2.649.691 9.9 9.9 0 0 0 1.958-.175 3.1 3.1 0 0 0 1.612-.921 4.025 4.025 0 0 0 .806-2.822v-1.5z" class="cls-1" data-name="Path 787" transform="translate(-110.5 -13.227)"/>
            <path id="Path_788" d="M162.273 32.487V20.395l-4.373 8.637h-2.361l-4.439-8.637v12.15h-3.8V13.6h3.743l5.7 11.286 5.645-11.286h3.743v18.945h-3.858z" class="cls-1" data-name="Path 788" transform="translate(-126.108 -13.312)"/>
            <path id="Path_789" d="M195.029 28.89a5.891 5.891 0 0 1-1.958 2.822 5.679 5.679 0 0 1-3.282.921h-1.555v-3.455h.979a2.954 2.954 0 0 0 1.728-.4 2.976 2.976 0 0 0 .979-1.612l-1.094-2.994L185.7 13.4h4.665l3.916 9.444 4.434-9.444h4.085z" class="cls-1" data-name="Path 789" transform="translate(-142.395 -13.227)"/>
            <path id="Path_790" d="M229.545 32.487v-15.6h-5.471v5.47a28.059 28.059 0 0 1-.4 4.952 9.735 9.735 0 0 1-1.209 3.109 3.9 3.9 0 0 1-1.9 1.612 6.772 6.772 0 0 1-2.476.461H216.3v-3.34h.576a5.136 5.136 0 0 0 1.267-.173 1.936 1.936 0 0 0 1.152-.921 6.889 6.889 0 0 0 .864-2.3 20.336 20.336 0 0 0 .346-4.261V13.6h12.957v18.945h-3.916z" class="cls-1" data-name="Path 790" transform="translate(-155.373 -13.312)"/>
            <path id="Path_791" d="M258.5 23.983a6.152 6.152 0 0 0 1.152 3.858c.749.979 2.016 1.44 3.8 1.44a5.345 5.345 0 0 0 2.419-.518 7.6 7.6 0 0 0 2.015-1.5l2.361 2.3a11.535 11.535 0 0 1-3.167 2.246 9.34 9.34 0 0 1-3.8.691c-2.879 0-5.01-.806-6.45-2.476-1.44-1.612-2.131-4.088-2.131-7.313a12.627 12.627 0 0 1 .576-4.031 7.862 7.862 0 0 1 1.612-2.994 7 7 0 0 1 2.534-1.9 7.878 7.878 0 0 1 3.34-.691 8.551 8.551 0 0 1 3.282.633 6.7 6.7 0 0 1 2.534 1.843 8.708 8.708 0 0 1 1.612 2.879 10.872 10.872 0 0 1 .576 3.743v1.727H258.5zm8.523-3.109a6.314 6.314 0 0 0-.345-1.5 4.867 4.867 0 0 0-.749-1.555 3.879 3.879 0 0 0-1.267-1.094 3.954 3.954 0 0 0-1.958-.4 3.852 3.852 0 0 0-3.282 1.5 4.867 4.867 0 0 0-.749 1.555 6.274 6.274 0 0 0-.288 1.5z" class="cls-1" data-name="Path 791" transform="translate(-171.659 -13.1)"/>
            <path id="Path_792" d="M291.5 32.487V13.6h3.858v9.041l7.2-9.041h4.549l-7.544 8.868 8.12 10.019h-4.664l-7.661-9.787v9.789z" class="cls-1" data-name="Path 792" transform="translate(-187.267 -13.312)"/>
            <path id="Path_793" d="M336.442 29.941a12.982 12.982 0 0 1-1.5 1.324 7.236 7.236 0 0 1-1.324.749 8.517 8.517 0 0 1-3.4.633 7.987 7.987 0 0 1-6.277-2.534c-1.5-1.727-2.246-4.088-2.246-7.2a10.451 10.451 0 0 1 2.246-7.083 7.944 7.944 0 0 1 6.219-2.534 8.934 8.934 0 0 1 3.4.633 7.238 7.238 0 0 1 1.325.749 12.282 12.282 0 0 1 1.5 1.324l-2.591 2.476a7.787 7.787 0 0 0-1.612-1.324 4.171 4.171 0 0 0-2.015-.461 3.878 3.878 0 0 0-3.455 1.612 7.947 7.947 0 0 0-1.152 4.664c0 4.2 1.555 6.277 4.607 6.277a4.012 4.012 0 0 0 2.015-.461 10.237 10.237 0 0 0 1.612-1.324z" class="cls-1" data-name="Path 793" transform="translate(-200.076 -13.185)"/>
        </g>
        <g id="Group_621" data-name="Group 621" transform="translate(-546.698 -561.288)">
            <path id="Path_794" d="M4.2 40.654L27.987 0l29.139 40.654L0 17.275 45.379 30 27.987 12.841z" class="cls-2" data-name="Path 794"/>
            <path id="Path_795" d="M7.3 40.654l23.783-32.88V0z" class="cls-3" data-name="Path 795" transform="translate(-3.096)"/>
            <path id="Path_796" d="M48.6 13.5v5.067l17.391 17.16z" class="cls-3" data-name="Path 796" transform="translate(-20.613 -5.726)"/>
            <path id="Path_797" d="M0 30l49.064 16.757 8.062 6.622" class="cls-3" data-name="Path 797" transform="translate(0 -12.725)"/>
            <path id="Path_798" d="M7.3 46.38l23.783-27.813V13.5z" class="cls-2" data-name="Path 798" transform="translate(-3.096 -5.726)"/>
        </g>
    </g>
</svg>
