<svg xmlns="http://www.w3.org/2000/svg" id="_2" width="116" height="29.449" data-name="2" viewBox="0 0 116 29.449">
    <defs>
        <style>
            .cls-1,.cls-2{fill:#b47eb9}.cls-1{opacity:.47}.cls-3{fill:#505050}
        </style>
    </defs>
    <g id="Group_286" data-name="Group 286">
        <path id="Path_741" d="M34.75 30.654a2.434 2.434 0 0 1-2.434 2.434h-9.061l-3.176 2.518V33.1h-1.025a2.434 2.434 0 0 1-2.426-2.449V17.414a2.434 2.434 0 0 1 2.434-2.434h5.656v-1.76h-5.664a4.2 4.2 0 0 0-4.194 4.194v13.24a4.2 4.2 0 0 0 3.459 4.133v4.469l5.556-4.408h8.418a4.2 4.2 0 0 0 4.217-4.194z" class="cls-1" data-name="Path 741" transform="translate(-14.86 -9.807)"/>
        <path id="Path_742" d="M31.914 21a.88.88 0 0 0 .865-.765l1.531-3.375 1.6 3.628 2.426 5.357a.88.88 0 0 0 .8.513h.069a.88.88 0 0 0 .765-.513L42.169 21h4.446a.88.88 0 0 0 .765-.872v-7.174a4.2 4.2 0 0 0-4.193-4.194H30.024a4.2 4.2 0 0 0-4.194 4.194v3.138a.88.88 0 0 0 1.76 0v-3.138a2.434 2.434 0 0 1 2.434-2.434h13.255a2.434 2.434 0 0 1 2.434 2.434v6.283h-4.079a.88.88 0 0 0-.865.765l-1.531 3.459-1.661-3.661-2.426-5.357v-.046l-.115-.092-.054-.069-.061-.069-.061-.054-.069-.054-.077-.046h-.764l-.069.038-.069.054-.061.054-.061.069-.077.077-.046.084v.046l-2.25 4.814h-4.592a.88.88 0 0 0-.88.88v6.122a4.2 4.2 0 0 0 4.179 4.125h8.418l5.579 4.439v-4.443a4.2 4.2 0 0 0 3.459-4.133V24.02a.88.88 0 0 0-1.76 0v2.22a2.434 2.434 0 0 1-2.434 2.434h-1.033v2.464l-3.176-2.518h-9.053a2.434 2.434 0 0 1-2.434-2.434v-5.2z" class="cls-2" data-name="Path 742" transform="translate(-17.435 -8.76)"/>
    </g>
    <g id="Group_285" data-name="Group 285" transform="translate(39.751 7)">
        <path id="Path_743" d="M63.051 7.09H53.28V8.5h4.076v11.247h1.6V8.5h4.091z" class="cls-3" data-name="Path 743" transform="translate(-53.28 -7.09)"/>
        <path id="Path_744" d="M85.962 20.27a4.665 4.665 0 0 0-4.595 4.9 4.624 4.624 0 0 0 4.749 4.9 5.064 5.064 0 0 0 3.705-1.4l-.7-.946a4.076 4.076 0 0 1-2.879 1.177 3.285 3.285 0 0 1-3.362-3.222h7.565v-.359c0-2.851-1.632-5.05-4.483-5.05zm-3.068 4.308a3.11 3.11 0 0 1 3.047-3.1 3.026 3.026 0 0 1 3.068 3.11z" class="cls-3" data-name="Path 744" transform="translate(-72.101 -17.174)"/>
        <path id="Path_745" d="M97.649 25.195c-.364 2.76-.911 3.768-1.779 3.768v1.2c1.8 0 2.8-1.31 3.222-4.791l.427-3.5h3.768v8.055h1.45V20.6h-6.486z" class="cls-3" data-name="Path 745" transform="translate(-76.447 -17.273)"/>
        <path id="Path_746" d="M116.242 20.27a4.665 4.665 0 0 0-4.595 4.9 4.624 4.624 0 0 0 4.749 4.9 5.064 5.064 0 0 0 3.705-1.4l-.7-.946a4.077 4.077 0 0 1-2.879 1.177 3.285 3.285 0 0 1-3.362-3.222h7.551v-.359c.014-2.851-1.646-5.05-4.469-5.05zm-3.068 4.308a3.117 3.117 0 0 1 3.047-3.1 3.026 3.026 0 0 1 3.068 3.11z" class="cls-3" data-name="Path 746" transform="translate(-81.172 -17.174)"/>
        <path id="Path_747" d="M119.337 16.469l-3.72-9.379h-2.3v12.657h1.688V9.815l3.971 9.932h.707l3.943-9.932v9.932h1.688V7.09H123z" class="cls-3" data-name="Path 747" transform="translate(-71.266 -7.09)"/>
        <path id="Path_748" d="M152.872 20.27a4.665 4.665 0 0 0-4.595 4.9 4.624 4.624 0 0 0 4.749 4.9 5.071 5.071 0 0 0 3.705-1.4l-.7-.946a4.077 4.077 0 0 1-2.879 1.177 3.285 3.285 0 0 1-3.362-3.222h7.551v-.359c.014-2.851-1.646-5.05-4.469-5.05zm-3.072 4.308a3.11 3.11 0 0 1 3.054-3.1 3.026 3.026 0 0 1 3.068 3.11z" class="cls-3" data-name="Path 748" transform="translate(-92.145 -17.174)"/>
        <path id="Path_749" d="M171.647 28.655V20.6h-6.493l-.6 4.595c-.364 2.76-.911 3.383-1.779 3.5v3.572h1.45V29.93h7.046v2.37h1.464v-3.645zm-1.45 0h-5.54c.7-.539 1.121-1.527 1.352-3.285l.427-3.5h3.764z" class="cls-3" data-name="Path 749" transform="translate(-96.492 -17.273)"/>
    </g>
</svg>
