<svg xmlns="http://www.w3.org/2000/svg" width="96" height="96" viewBox="0 0 96 96">
    <defs>
        <style>
            .cls-1,.cls-2,.cls-4{fill:none}.cls-2,.cls-3,.cls-4{stroke:#1f2229}.cls-2,.cls-3{stroke-width:3px}.cls-3{fill:#fff}.cls-4{stroke-width:2px}.cls-5{fill:#1f2229}.cls-6{stroke:none}
        </style>
    </defs>
    <g id="Group_400" data-name="Group 400" transform="translate(-635 -1292)">
        <path id="Rectangle_24" d="M0 0h96v96H0z" class="cls-1" data-name="Rectangle 24" transform="translate(635 1292)"/>
        <g id="Group_378" data-name="Group 378" transform="translate(40.298 126.022)">
            <g id="Rectangle_265" class="cls-2" data-name="Rectangle 265" transform="translate(619.702 1187.978)">
                <rect width="50" height="68" class="cls-6" rx="6"/>
                <rect width="53" height="71" x="-1.5" y="-1.5" class="cls-1" rx="7.5"/>
            </g>
            <g id="Rectangle_267" class="cls-3" data-name="Rectangle 267">
                <path d="M4 0h24a4 4 0 0 1 4 4v8H0V4a4 4 0 0 1 4-4z" class="cls-6" transform="translate(628.702 1180.978)"/>
                <path d="M4 1.5h24A2.5 2.5 0 0 1 30.5 4v5a1.5 1.5 0 0 1-1.5 1.5H3A1.5 1.5 0 0 1 1.5 9V4A2.5 2.5 0 0 1 4 1.5z" class="cls-1" transform="translate(628.702 1180.978)"/>
            </g>
            <g id="Ellipse_56" class="cls-2" data-name="Ellipse 56" transform="translate(638.702 1169.978)">
                <circle cx="6.5" cy="6.5" r="6.5" class="cls-6"/>
                <circle cx="6.5" cy="6.5" r="5" class="cls-1"/>
            </g>
            <g id="Rectangle_268" class="cls-4" data-name="Rectangle 268" transform="translate(628.702 1197.978)">
                <rect width="11" height="11" class="cls-6" rx="2"/>
                <rect width="9" height="9" x="1" y="1" class="cls-1" rx="1"/>
            </g>
            <rect id="Rectangle_269" width="4" height="2" class="cls-5" data-name="Rectangle 269" rx="1" transform="translate(628.702 1214.978)"/>
            <rect id="Rectangle_271" width="4" height="2" class="cls-5" data-name="Rectangle 271" rx="1" transform="translate(628.702 1223.978)"/>
            <rect id="Rectangle_273" width="4" height="2" class="cls-5" data-name="Rectangle 273" rx="1" transform="translate(628.702 1231.978)"/>
            <g id="Rectangle_275" class="cls-4" data-name="Rectangle 275" transform="translate(653.702 1240.978)">
                <rect width="10" height="10" class="cls-6" rx="5"/>
                <rect width="8" height="8" x="1" y="1" class="cls-1" rx="4"/>
            </g>
            <rect id="Rectangle_270" width="28" height="2" class="cls-5" data-name="Rectangle 270" rx="1" transform="translate(634.702 1214.978)"/>
            <rect id="Rectangle_272" width="28" height="2" class="cls-5" data-name="Rectangle 272" rx="1" transform="translate(634.702 1223.978)"/>
            <rect id="Rectangle_274" width="28" height="2" class="cls-5" data-name="Rectangle 274" rx="1" transform="translate(634.702 1231.978)"/>
        </g>
    </g>
</svg>
