<svg xmlns="http://www.w3.org/2000/svg" width="96" height="96" viewBox="0 0 96 96">
    <defs>
        <style>
            .cls-1{fill:#1f2229}.cls-2,.cls-3,.cls-4,.cls-5,.cls-7{fill:none}.cls-2,.cls-3,.cls-4,.cls-5{stroke:#fff}.cls-2,.cls-3{stroke-linecap:round;stroke-linejoin:round}.cls-2,.cls-4{stroke-width:2px}.cls-3,.cls-5{stroke-width:3px}.cls-6{stroke:none}
        </style>
    </defs>
    <g id="Group_454" data-name="Group 454" transform="translate(-635 -2236)">
        <circle id="Ellipse_8" cx="48" cy="48" r="48" class="cls-1" data-name="Ellipse 8" transform="translate(635 2236)"/>
        <g id="Group_453" data-name="Group 453" transform="translate(2.607)">
            <path id="Subtraction_5" d="M8.183 14.791a26.018 26.018 0 0 1-5.611-.552C2.609 11.532 2.324 6.5 0 3.223A6.483 6.483 0 0 1 3.309 0h10.658a5.942 5.942 0 0 1 3.281 2.831 12.413 12.413 0 0 1 1.366 4.254 23.834 23.834 0 0 1 .145 5.567c-1.583 1.239-6.03 2.139-10.576 2.139z" class="cls-2" data-name="Subtraction 5" transform="translate(696.298 2283.815)"/>
            <path id="Subtraction_7" d="M11.989 17.467c-5.409 0-9.7-.921-11.765-2.526a24.573 24.573 0 0 1-.03-6.367 13.8 13.8 0 0 1 1.571-5A7.924 7.924 0 0 1 5.822 0H19.3a7.4 7.4 0 0 1 4.15 3.343 13.988 13.988 0 0 1 1.728 5.024 26.253 26.253 0 0 1 .183 6.574c-1.996 1.459-7.622 2.526-13.372 2.526z" class="cls-3" data-name="Subtraction 7" transform="translate(667.667 2284.744)"/>
            <g id="Ellipse_75" class="cls-4" data-name="Ellipse 75" transform="translate(698.69 2269.226)">
                <ellipse cx="6.098" cy="6.098" class="cls-6" rx="6.098" ry="6.098"/>
                <ellipse cx="6.098" cy="6.098" class="cls-7" rx="5.098" ry="5.098"/>
            </g>
            <g id="Ellipse_77" class="cls-5" data-name="Ellipse 77" transform="translate(671.818 2263.779)">
                <ellipse cx="8.732" cy="8.732" class="cls-6" rx="8.732" ry="8.732"/>
                <ellipse cx="8.732" cy="8.732" class="cls-7" rx="7.232" ry="7.232"/>
            </g>
            <path id="Subtraction_6" d="M8.183 0a26.018 26.018 0 0 0-5.611.552C2.609 3.259 2.324 8.289 0 11.568a6.483 6.483 0 0 0 3.309 3.223h10.658a5.942 5.942 0 0 0 3.281-2.831 12.412 12.412 0 0 0 1.366-4.254 23.834 23.834 0 0 0 .145-5.567C17.176.9 12.729 0 8.183 0z" class="cls-2" data-name="Subtraction 6" transform="rotate(180 332.232 1149.303)"/>
            <g id="Ellipse_76" class="cls-4" data-name="Ellipse 76" transform="translate(649.877 2269.226)">
                <ellipse cx="6.098" cy="6.098" class="cls-6" rx="6.098" ry="6.098"/>
                <ellipse cx="6.098" cy="6.098" class="cls-7" rx="5.098" ry="5.098"/>
            </g>
        </g>
    </g>
</svg>
