<svg xmlns="http://www.w3.org/2000/svg" width="68" height="25.632" viewBox="0 0 68 25.632">
    <g data-name="Group 291">
        <path d="M0 9.025v3.7l9.982-1.1v-4z" data-name="Path 1"/>
        <path d="M3.185 12.951v12.68H6.84V12.578z" data-name="Path 2"/>
        <path d="M11.33 7.434v18.2h3.851V6.892z" data-name="Path 3"/>
        <path d="M15.899 6.791v4.186l5.561-.612V6.01z" data-name="Path 4"/>
        <path d="M15.899 14.093v4.263l3.651-.2v-4.378z" data-name="Path 5"/>
        <path d="M15.899 21.428v4.2h5.561V21.26z" data-name="Path 6"/>
        <path d="M35.843 3.982v21.654h5.048V3.273z" data-name="Path 7"/>
        <path d="M41.832 3.141v4.98l7.357-.809v-5.2z" data-name="Path 8"/>
        <path d="M41.832 11.865v5.072l4.822-.263v-5.222z" data-name="Path 9"/>
        <path d="M41.832 20.644v4.987h7.357v-5.209z" data-name="Path 10"/>
        <path d="M22.931 5.803v19.828h4.387V5.186z" data-name="Path 11"/>
        <path d="M28.136 21.059v4.573h6.368v-4.765z" data-name="Path 12"/>
        <path d="M65.683 1.861A7.687 7.687 0 0 0 59.189.103v5.523a2.2 2.2 0 0 1 2.25 1.1c.591 1.221-.018 3.052-1.456 4.749-2.219 2.618-8.12 7.977-8.12 7.977l8.47-.278c5.176-5.057 7.035-8.126 7.367-11.956a6.546 6.546 0 0 0-2.017-5.357z" data-name="Path 13"/>
        <path d="M50.819 20.37v5.262h17.179v-5.78z" data-name="Path 14"/>
        <path d="M58.202.227c-4.991 1.062-7.442 4.735-7.159 10.727l5.322-.472c-.243-3.385.793-4.188 1.84-4.629z" data-name="Path 15"/>
    </g>
</svg>
