<svg xmlns="http://www.w3.org/2000/svg" width="96" height="96" viewBox="0 0 96 96">
    <defs>
        <style>
            .cls-1{fill:#1f2229}.cls-2,.cls-3,.cls-4,.cls-6{fill:none}.cls-2,.cls-3{stroke:#fff}.cls-2{stroke-width:3px}.cls-3{stroke-linecap:round;stroke-linejoin:round;stroke-width:2px}.cls-5,.cls-7{stroke:none}.cls-7{fill:#fff}
        </style>
    </defs>
    <g id="Group_456" data-name="Group 456" transform="translate(-299 -2237)">
        <circle id="Ellipse_7" cx="48" cy="48" r="48" class="cls-1" data-name="Ellipse 7" transform="translate(299 2237)"/>
        <g id="Group_455" data-name="Group 455" transform="translate(4.334 5)">
            <g id="Ellipse_78" class="cls-2" data-name="Ellipse 78" transform="translate(321.666 2253)">
                <circle cx="20" cy="20" r="20" class="cls-5"/>
                <circle cx="20" cy="20" r="18.5" class="cls-6"/>
            </g>
            <path id="Path_1140" d="M305.68 2203.4c.147-.052 6.866-1.674 6.866-1.674l3.586-6.2 3.609 6.2 6.7 1.674-4.491 4.917.978 7.057-6.796-3.374-6.29 3.372.519-7.057z" class="cls-3" data-name="Path 1140" transform="translate(25.986 66.016)"/>
            <g id="Path_1183" class="cls-4" data-name="Path 1183">
                <path d="M2.521 0l17.233 6.387c.58 0 1.05.762 1.05 1.7l-1.88 5.4.136 5.694c0 .94-.47 1.7-1.05 1.7L0 20.6l5.631-9.345z" class="cls-5" transform="rotate(-60 2144.423 879.978)"/>
                <path d="M5.49 3.233l2.068 7.488.23.829-.444.736-3.837 6.368 13.545.214-.127-5.333-.009-.363.12-.343 1.64-4.709L5.489 3.233M2.521 0l17.233 6.387c.58 0 1.05.762 1.05 1.702l-1.88 5.398.136 5.694c0 .94-.47 1.703-1.05 1.703L0 20.599l5.63-9.345L2.52 0z" class="cls-7" transform="rotate(-60 2144.423 879.978)"/>
            </g>
            <g id="Path_1184" class="cls-4" data-name="Path 1184">
                <path d="M2.521 20.884L19.754 14.5c.58 0 1.05-.762 1.05-1.7l-1.649-5.462-.094-5.638c0-.94-.47-1.7-1.05-1.7L0 .285 5.631 9.63z" class="cls-5" transform="rotate(-120 843.924 1051.13)"/>
                <path d="M5.49 17.65l13.212-4.896-1.462-4.837-.08-.267-.005-.278-.09-5.357-13.558.215 3.837 6.368.443.736-.229.829L5.49 17.65m-2.968 3.233L5.63 9.63 0 .285 18.01 0c.58 0 1.05.762 1.05 1.702l.095 5.636 1.65 5.457c0 .94-.47 1.702-1.05 1.702L2.52 20.884z" class="cls-7" transform="rotate(-120 843.924 1051.13)"/>
            </g>
        </g>
    </g>
</svg>
