<svg xmlns="http://www.w3.org/2000/svg" width="95.506" height="36" viewBox="0 0 95.506 36">
    <defs>
        <style>
            .cls-1{fill:#fff}
        </style>
    </defs>
    <g id="Group_287" data-name="Group 287" transform="translate(-56.693 -56.692)">
        <path id="Path_1" d="M56.693 90.442v5.2l14.02-1.542v-5.629z" class="cls-1" data-name="Path 1" transform="translate(0 -21.072)"/>
        <path id="Path_2" d="M69.971 109.652v17.809H75.1v-18.334z" class="cls-1" data-name="Path 2" transform="translate(-8.804 -34.768)"/>
        <path id="Path_3" d="M103.925 86.186v25.559h5.409v-26.32z" class="cls-1" data-name="Path 3" transform="translate(-31.319 -19.052)"/>
        <path id="Path_4" d="M122.969 82.844v5.879l7.81-.859v-6.117z" class="cls-1" data-name="Path 4" transform="translate(-43.946 -16.613)"/>
        <path id="Path_5" d="M122.969 114.575v5.987l5.127-.28v-6.148z" class="cls-1" data-name="Path 5" transform="translate(-43.946 -38.088)"/>
        <path id="Path_6" d="M122.969 145.556v5.9h7.81v-6.136z" class="cls-1" data-name="Path 6" transform="translate(-43.946 -58.767)"/>
        <path id="Path_7" d="M206.1 71.333v30.407h7.09v-31.4z" class="cls-1" data-name="Path 7" transform="translate(-99.067 -9.047)"/>
        <path id="Path_8" d="M231.074 66.927v6.994l10.333-1.136v-7.31z" class="cls-1" data-name="Path 8" transform="translate(-115.628 -5.823)"/>
        <path id="Path_9" d="M231.074 105.014v7.123l6.773-.37v-7.334z" class="cls-1" data-name="Path 9" transform="translate(-115.628 -31.655)"/>
        <path id="Path_10" d="M231.074 142.139v7h10.333v-7.316z" class="cls-1" data-name="Path 10" transform="translate(-115.628 -56.451)"/>
        <path id="Path_11" d="M152.283 79.18v27.849h6.161V78.314z" class="cls-1" data-name="Path 11" transform="translate(-63.383 -14.337)"/>
        <path id="Path_12" d="M173.982 143.949v6.422h8.944v-6.692z" class="cls-1" data-name="Path 12" transform="translate(-77.772 -57.679)"/>
        <path id="Path_13" d="M292.3 59.307a10.8 10.8 0 0 0-9.12-2.469V64.6a3.094 3.094 0 0 1 3.16 1.546c.83 1.715-.026 4.287-2.045 6.67-3.117 3.678-11.4 11.2-11.4 11.2l11.9-.39c7.27-7.1 9.88-11.413 10.347-16.793a9.194 9.194 0 0 0-2.842-7.526z" class="cls-1" data-name="Path 13" transform="translate(-143.355)"/>
        <path id="Path_14" d="M268.535 140.176v7.39h24.127v-8.118z" class="cls-1" data-name="Path 14" transform="translate(-140.467 -54.873)"/>
        <path id="Path_15" d="M279.462 57.641c-7.01 1.492-10.452 6.65-10.055 15.066l7.475-.663c-.341-4.754 1.113-5.882 2.585-6.5z" class="cls-1" data-name="Path 15" transform="translate(-141.025 -.629)"/>
    </g>
</svg>
