<svg xmlns="http://www.w3.org/2000/svg" width="120.295" height="45.344" viewBox="0 0 120.295 45.344">
    <g data-name="Group 1">
        <path d="M0 15.967v6.547l17.659-1.943v-7.086z" data-name="Path 1"/>
        <path d="M5.635 22.912v22.432h6.466V22.251z" data-name="Path 2"/>
        <path d="M20.044 13.151v32.193h6.812V12.193z" data-name="Path 3"/>
        <path d="M28.126 12.014v7.405l9.837-1.082v-7.705z" data-name="Path 4"/>
        <path d="M28.126 24.932v7.541l6.458-.352v-7.744z" data-name="Path 5"/>
        <path d="M28.126 37.908v7.436h9.837v-7.733z" data-name="Path 6"/>
        <path d="M63.406 7.045v38.3h8.93V5.79z" data-name="Path 7"/>
        <path d="M74.003 5.552v8.809l13.015-1.431V3.727z" data-name="Path 8"/>
        <path d="M74.003 20.99v8.972l8.531-.466v-9.238z" data-name="Path 9"/>
        <path d="M74.003 36.521v8.822h13.015v-9.215z" data-name="Path 10"/>
        <path d="M40.566 10.266v35.077h7.76V9.175z" data-name="Path 11"/>
        <path d="M49.774 37.254v8.089h11.265v-8.429z" data-name="Path 12"/>
        <path d="M116.195 3.293c-2.821-2.667-6.961-3.761-11.487-3.11v9.771a3.9 3.9 0 0 1 3.98 1.948c1.045 2.16-.032 5.4-2.576 8.4-3.926 4.632-14.364 14.112-14.364 14.112l14.985-.492c9.156-8.945 12.445-14.375 13.033-21.151a11.58 11.58 0 0 0-3.571-9.478z" data-name="Path 13"/>
        <path d="M89.9 36.035l.005 9.308h30.39V35.119z" data-name="Path 14"/>
        <path d="M102.96.402c-8.829 1.88-13.165 8.376-12.665 18.976l9.415-.836c-.429-5.988 1.4-7.409 3.255-8.19z" data-name="Path 15"/>
    </g>
</svg>
