<svg xmlns="http://www.w3.org/2000/svg" id="Symbol_5" width="141.805" height="36" data-name="Symbol 5" viewBox="0 0 141.805 36">
    <defs>
        <style>
            .cls-1,.cls-2{fill:#fff}.cls-1{opacity:.47}
        </style>
    </defs>
    <g id="Group_286" data-name="Group 286">
        <path id="Path_741" d="M39.175 34.532a2.975 2.975 0 0 1-2.975 2.975H25.123l-3.883 3.078v-3.059h-1.253a2.975 2.975 0 0 1-2.966-2.994V18.347A2.975 2.975 0 0 1 20 15.372h6.91V13.22h-6.923a5.136 5.136 0 0 0-5.127 5.127v16.185a5.136 5.136 0 0 0 4.229 5.052v5.464l6.792-5.389h10.291a5.136 5.136 0 0 0 5.155-5.127z" class="cls-1" data-name="Path 741" transform="translate(-14.86 -9.047)"/>
        <path id="Path_742" d="M33.268 23.729a1.076 1.076 0 0 0 1.057-.936l1.875-4.126 1.951 4.433 2.966 6.549a1.076 1.076 0 0 0 .982.627h.084a1.076 1.076 0 0 0 .936-.627l2.681-5.92h5.44a1.076 1.076 0 0 0 .936-1.067v-8.775a5.136 5.136 0 0 0-5.128-5.127H30.957a5.136 5.136 0 0 0-5.127 5.127v3.836a1.076 1.076 0 0 0 2.152 0v-3.836a2.975 2.975 0 0 1 2.975-2.975h16.2a2.975 2.975 0 0 1 2.975 2.975v7.681h-4.983a1.076 1.076 0 0 0-1.057.936l-1.871 4.229-2.03-4.481-2.966-6.552v-.056l-.14-.112-.065-.084-.075-.084-.075-.065-.084-.065-.094-.056h-.936l-.084.047-.084.065-.075.065-.075.084-.094.094-.056.1v.056l-2.751 5.885h-5.612a1.076 1.076 0 0 0-1.076 1.076v7.484a5.136 5.136 0 0 0 5.108 5.043h10.291l6.82 5.426V35.18a5.136 5.136 0 0 0 4.232-5.052v-2.713a1.076 1.076 0 0 0-2.152 0v2.713A2.975 2.975 0 0 1 47.17 33.1h-1.263v3.012l-3.883-3.078H30.957a2.975 2.975 0 0 1-2.975-2.975V23.7z" class="cls-2" data-name="Path 742" transform="translate(-15.567 -8.76)"/>
    </g>
    <g id="Group_285" data-name="Group 285" transform="translate(48.594 8.557)">
        <path id="Path_743" d="M65.225 7.09H53.28v1.721h4.983v13.751h1.961V8.811h5z" class="cls-2" data-name="Path 743" transform="translate(-53.28 -7.09)"/>
        <path id="Path_744" d="M86.986 20.27a5.7 5.7 0 0 0-5.617 5.994 5.653 5.653 0 0 0 5.805 5.994 6.191 6.191 0 0 0 4.53-1.712l-.856-1.156a4.983 4.983 0 0 1-3.519 1.438 4.016 4.016 0 0 1-4.11-3.939h9.247v-.445c0-3.485-1.995-6.174-5.48-6.174zm-3.75 5.266a3.8 3.8 0 0 1 3.725-3.785 3.7 3.7 0 0 1 3.75 3.8z" class="cls-2" data-name="Path 744" transform="translate(-70.041 -16.485)"/>
        <path id="Path_745" d="M98.045 26.217c-.445 3.374-1.113 4.607-2.175 4.607v1.464c2.2 0 3.425-1.6 3.939-5.857l.522-4.281h4.607V32h1.772V20.6h-7.929z" class="cls-2" data-name="Path 745" transform="translate(-72.126 -16.533)"/>
        <path id="Path_746" d="M117.266 20.27a5.7 5.7 0 0 0-5.617 5.994 5.653 5.653 0 0 0 5.805 5.994 6.191 6.191 0 0 0 4.53-1.712l-.856-1.156a4.983 4.983 0 0 1-3.519 1.438 4.016 4.016 0 0 1-4.11-3.939h9.23v-.445c.017-3.485-2.013-6.174-5.463-6.174zm-3.75 5.266a3.81 3.81 0 0 1 3.725-3.785 3.7 3.7 0 0 1 3.75 3.8z" class="cls-2" data-name="Path 746" transform="translate(-74.394 -16.485)"/>
        <path id="Path_747" d="M120.675 18.555L116.128 7.09h-2.808v15.472h2.064V10.421l4.855 12.141h.865l4.821-12.141v12.141h2.064V7.09h-2.834z" class="cls-2" data-name="Path 747" transform="translate(-61.911 -7.09)"/>
        <path id="Path_748" d="M153.9 20.27a5.7 5.7 0 0 0-5.617 5.994 5.653 5.653 0 0 0 5.805 5.994 6.2 6.2 0 0 0 4.53-1.712l-.856-1.156a4.983 4.983 0 0 1-3.519 1.438 4.016 4.016 0 0 1-4.11-3.939h9.23v-.445c.013-3.485-2.017-6.174-5.463-6.174zm-3.75 5.266a3.8 3.8 0 0 1 3.733-3.785 3.7 3.7 0 0 1 3.75 3.8z" class="cls-2" data-name="Path 748" transform="translate(-79.66 -16.485)"/>
        <path id="Path_749" d="M173.62 30.447V20.6h-7.937l-.728 5.617c-.445 3.374-1.113 4.136-2.175 4.281v4.367h1.772v-2.86h8.614v2.9h1.79v-4.458zm-1.772 0h-6.773c.856-.659 1.37-1.867 1.652-4.016l.522-4.281h4.607z" class="cls-2" data-name="Path 749" transform="translate(-81.745 -16.533)"/>
    </g>
</svg>
