<svg xmlns="http://www.w3.org/2000/svg" id="Symbol_4_1" width="220" height="55.852" data-name="Symbol 4 – 1" viewBox="0 0 220 55.852">
    <defs>
        <style>
            .cls-1,.cls-2{fill:#b47eb9}.cls-1{opacity:.47}.cls-3{fill:#000b0a}
        </style>
    </defs>
    <g id="Group_286" data-name="Group 286">
        <path id="Path_741" d="M52.583 46.284a4.616 4.616 0 0 1-4.616 4.616H30.782l-6.023 4.775v-4.747h-1.945a4.616 4.616 0 0 1-4.6-4.645V21.174a4.616 4.616 0 0 1 4.616-4.616h10.725V13.22H22.814a7.968 7.968 0 0 0-7.954 7.954v25.11a7.968 7.968 0 0 0 6.561 7.838V62.6l10.537-8.36h15.966a7.968 7.968 0 0 0 8-7.954z" class="cls-1" data-name="Path 741" transform="translate(-14.86 -6.747)"/>
        <path id="Path_742" d="M37.369 31.983a1.669 1.669 0 0 0 1.64-1.451l2.9-6.4 3.034 6.88 4.6 10.16a1.669 1.669 0 0 0 1.524.972h.133a1.669 1.669 0 0 0 1.451-.972l4.166-9.188h8.433a1.669 1.669 0 0 0 1.45-1.656V16.714a7.968 7.968 0 0 0-7.951-7.954H33.784a7.968 7.968 0 0 0-7.954 7.954v5.951a1.669 1.669 0 0 0 3.338 0v-5.951a4.616 4.616 0 0 1 4.616-4.614h25.139a4.616 4.616 0 0 1 4.616 4.616V28.63H55.8a1.669 1.669 0 0 0-1.64 1.451l-2.9 6.561-3.15-6.952-4.6-10.16v-.087l-.218-.174-.1-.131-.116-.131-.116-.1-.131-.1-.145-.087H41.23l-.131.073-.131.1-.116.1-.116.131-.145.145-.087.16v.087l-4.267 9.13h-8.709a1.669 1.669 0 0 0-1.669 1.669v11.61a7.968 7.968 0 0 0 7.925 7.823H49.75l10.581 8.418v-8.417a7.968 7.968 0 0 0 6.561-7.838V37.7a1.669 1.669 0 0 0-3.338 0v4.209a4.616 4.616 0 0 1-4.616 4.616h-1.96V51.2l-6.023-4.775H33.784a4.616 4.616 0 0 1-4.616-4.616V31.94z" class="cls-2" data-name="Path 742" transform="translate(-9.908 -8.76)"/>
    </g>
    <g id="Group_285" data-name="Group 285" transform="translate(75.391 13.276)">
        <path id="Path_743" d="M71.811 7.09H53.28v2.67h7.731v21.334h3.042V9.76h7.758z" class="cls-3" data-name="Path 743" transform="translate(-53.28 -7.09)"/>
        <path id="Path_744" d="M90.087 20.27a8.847 8.847 0 0 0-8.714 9.3c0 5.526 3.773 9.3 9.007 9.3a9.6 9.6 0 0 0 7.027-2.657l-1.328-1.793a7.731 7.731 0 0 1-5.46 2.232 6.23 6.23 0 0 1-6.376-6.111h14.346v-.691c0-5.409-3.095-9.58-8.502-9.58zm-5.818 8.17a5.9 5.9 0 0 1 5.779-5.872 5.739 5.739 0 0 1 5.818 5.9z" class="cls-3" data-name="Path 744" transform="translate(-63.798 -14.398)"/>
        <path id="Path_745" d="M99.244 29.314c-.691 5.234-1.727 7.147-3.374 7.147v2.272c3.414 0 5.314-2.484 6.111-9.086l.81-6.642h7.147v15.276h2.75V20.6h-12.3z" class="cls-3" data-name="Path 745" transform="translate(-59.034 -14.29)"/>
        <path id="Path_746" d="M120.367 20.27a8.847 8.847 0 0 0-8.714 9.3c0 5.526 3.773 9.3 9.007 9.3a9.6 9.6 0 0 0 7.027-2.657l-1.328-1.793a7.731 7.731 0 0 1-5.46 2.232 6.23 6.23 0 0 1-6.376-6.111h14.32v-.691c.026-5.409-3.122-9.58-8.476-9.58zm-5.818 8.17a5.911 5.911 0 0 1 5.779-5.872 5.739 5.739 0 0 1 5.818 5.9z" class="cls-3" data-name="Path 746" transform="translate(-53.854 -14.398)"/>
        <path id="Path_747" d="M124.731 24.877L117.677 7.09h-4.357v24h3.2V12.257l7.532 18.837h1.348l7.479-18.837v18.837h3.2v-24h-4.4z" class="cls-3" data-name="Path 747" transform="translate(-33.563 -7.09)"/>
        <path id="Path_748" d="M157 20.27a8.847 8.847 0 0 0-8.714 9.3c0 5.526 3.773 9.3 9.007 9.3a9.618 9.618 0 0 0 7.027-2.657l-1.328-1.793a7.731 7.731 0 0 1-5.46 2.232 6.23 6.23 0 0 1-6.376-6.111h14.32v-.691c.024-5.409-3.125-9.58-8.476-9.58zm-5.818 8.17a5.9 5.9 0 0 1 5.792-5.872 5.739 5.739 0 0 1 5.818 5.9z" class="cls-3" data-name="Path 748" transform="translate(-41.825 -14.398)"/>
        <path id="Path_749" d="M179.6 35.877V20.6h-12.317l-1.129 8.714c-.691 5.234-1.727 6.416-3.374 6.642v6.775h2.75v-4.437h13.364v4.5h2.776v-6.917zm-2.75 0h-10.51c1.328-1.023 2.125-2.9 2.564-6.23l.81-6.642h7.147z" class="cls-3" data-name="Path 749" transform="translate(-37.06 -14.29)"/>
    </g>
</svg>
