<svg xmlns="http://www.w3.org/2000/svg" width="24" height="24" viewBox="0 0 24 24">
    <g id="prefix__call-24px" transform="translate(4 4)">
        <circle id="prefix__Ellipse_35" cx="12" cy="12" r="12" data-name="Ellipse 35" transform="translate(-4 -4)" style="fill:#58af32"/>
        <path id="prefix__Path_90" d="M-1156.47 453.549a10.183 10.183 0 0 1-7.133-3.029 9.953 9.953 0 0 1-2.829-5.918 6.9 6.9 0 0 1-.052-1.181 1.081 1.081 0 0 1 .3-.731c.218-.222.448-.433.658-.663a1.563 1.563 0 0 1 2.618.573 10.117 10.117 0 0 1 .489 1.821 1.428 1.428 0 0 1-.411 1.236c-.131.142-.27.278-.41.412a.239.239 0 0 0-.067.279 5.969 5.969 0 0 0 3.985 4 .265.265 0 0 0 .313-.083c.118-.127.241-.248.367-.367a1.5 1.5 0 0 1 1.472-.4q.745.185 1.481.4a1.633 1.633 0 0 1 1.148 1.941 1.381 1.381 0 0 1-.368.64c-.176.177-.363.343-.526.531a1.311 1.311 0 0 1-1.035.539z" data-name="Path 90" transform="translate(1168.49 -439.53)" style="fill:#fff"/>
        <path id="prefix__Path_65" d="M0 0h16v16H0z" data-name="Path 65" style="fill:none"/>
    </g>
</svg>
