<svg xmlns="http://www.w3.org/2000/svg" width="56" height="56" viewBox="0 0 56 56">
    <g id="prefix__Group_177" data-name="Group 177" transform="translate(-838 -351)">
        <g id="prefix__Group_141" data-name="Group 141" transform="translate(605 86)">
            <g id="prefix__Rectangle_165" data-name="Rectangle 165" transform="translate(233 265)" style="fill:#fff;stroke:#c4c4c4">
                <rect width="56" height="56" rx="28" style="stroke:none"/>
                <rect width="55" height="55" x=".5" y=".5" rx="27.5" style="fill:none"/>
            </g>
        </g>
        <path id="prefix__Path_153" d="M.7 0v-1.6q1.162-1.079 2.121-2.02t1.653-1.766a9.65 9.65 0 0 0 1.083-1.539 2.839 2.839 0 0 0 .39-1.358 1.864 1.864 0 0 0-.456-1.359 1.675 1.675 0 0 0-1.254-.465 1.96 1.96 0 0 0-1.178.37 6.5 6.5 0 0 0-.969.865l-1.52-1.5a6.942 6.942 0 0 1 1.824-1.434 4.759 4.759 0 0 1 2.223-.484 4.578 4.578 0 0 1 1.624.276 3.723 3.723 0 0 1 1.264.779 3.4 3.4 0 0 1 .817 1.207 4.164 4.164 0 0 1 .285 1.577 4.066 4.066 0 0 1-.323 1.549 8.457 8.457 0 0 1-.864 1.573 16.769 16.769 0 0 1-1.235 1.576Q5.491-2.964 4.75-2.2q.456-.057 1.016-.1t1-.047H9.2V0zm14.348.228a3.821 3.821 0 0 1-1.767-.409 3.731 3.731 0 0 1-1.359-1.206 6.177 6.177 0 0 1-.874-1.976 10.609 10.609 0 0 1-.314-2.717 10.387 10.387 0 0 1 .314-2.7 6.071 6.071 0 0 1 .874-1.947 3.592 3.592 0 0 1 1.359-1.173 3.974 3.974 0 0 1 1.767-.389 3.974 3.974 0 0 1 1.767.389 3.592 3.592 0 0 1 1.359 1.178 6.071 6.071 0 0 1 .874 1.947 10.387 10.387 0 0 1 .313 2.7 10.609 10.609 0 0 1-.313 2.717 6.177 6.177 0 0 1-.874 1.976 3.731 3.731 0 0 1-1.359 1.201 3.82 3.82 0 0 1-1.767.409zm0-2.166a1.279 1.279 0 0 0 .665-.181 1.471 1.471 0 0 0 .532-.655 4.641 4.641 0 0 0 .355-1.273 13.715 13.715 0 0 0 .12-2.033 13.516 13.516 0 0 0-.12-2.02 4.213 4.213 0 0 0-.352-1.235 1.416 1.416 0 0 0-.532-.617 1.333 1.333 0 0 0-.665-.171 1.3 1.3 0 0 0-.646.171 1.416 1.416 0 0 0-.532.617 4.387 4.387 0 0 0-.364 1.235 12.566 12.566 0 0 0-.133 2.023 12.75 12.75 0 0 0 .133 2.033 4.843 4.843 0 0 0 .361 1.273 1.471 1.471 0 0 0 .532.655 1.245 1.245 0 0 0 .646.178z" data-name="Path 153" transform="translate(846 386)" style="fill:#58af32"/>
        <path id="prefix__Path_155" d="M20.767 0v-1.6q1.159-1.083 2.118-2.024t1.653-1.767a9.65 9.65 0 0 0 1.083-1.539 2.839 2.839 0 0 0 .39-1.358 1.864 1.864 0 0 0-.456-1.359 1.675 1.675 0 0 0-1.254-.465 1.96 1.96 0 0 0-1.178.37 6.5 6.5 0 0 0-.969.865l-1.52-1.5a6.942 6.942 0 0 1 1.824-1.434 4.759 4.759 0 0 1 2.223-.484 4.578 4.578 0 0 1 1.625.276 3.723 3.723 0 0 1 1.264.779 3.4 3.4 0 0 1 .817 1.207 4.164 4.164 0 0 1 .285 1.577 4.066 4.066 0 0 1-.323 1.549 8.457 8.457 0 0 1-.865 1.577 16.769 16.769 0 0 1-1.235 1.577q-.693.789-1.434 1.549.456-.057 1.017-.1t1-.047h2.428V0zm14.345.228a3.821 3.821 0 0 1-1.767-.409 3.731 3.731 0 0 1-1.359-1.206 6.177 6.177 0 0 1-.874-1.976A10.608 10.608 0 0 1 30.8-6.08a10.387 10.387 0 0 1 .314-2.7 6.071 6.071 0 0 1 .874-1.947 3.592 3.592 0 0 1 1.357-1.173 3.974 3.974 0 0 1 1.767-.389 3.974 3.974 0 0 1 1.767.389 3.592 3.592 0 0 1 1.358 1.178 6.071 6.071 0 0 1 .874 1.947 10.387 10.387 0 0 1 .313 2.7 10.609 10.609 0 0 1-.313 2.717 6.177 6.177 0 0 1-.874 1.976 3.731 3.731 0 0 1-1.358 1.201 3.821 3.821 0 0 1-1.767.409zm0-2.166a1.279 1.279 0 0 0 .665-.181 1.471 1.471 0 0 0 .532-.655 4.641 4.641 0 0 0 .351-1.273 13.715 13.715 0 0 0 .124-2.033 13.516 13.516 0 0 0-.124-2.02 4.213 4.213 0 0 0-.351-1.235 1.416 1.416 0 0 0-.532-.617 1.333 1.333 0 0 0-.665-.171 1.3 1.3 0 0 0-.646.171 1.416 1.416 0 0 0-.532.617 4.387 4.387 0 0 0-.361 1.235 12.566 12.566 0 0 0-.133 2.02 12.75 12.75 0 0 0 .133 2.033 4.843 4.843 0 0 0 .361 1.273 1.471 1.471 0 0 0 .532.655 1.245 1.245 0 0 0 .646.181z" data-name="Path 155" transform="translate(846 386)" style="fill:gray"/>
    </g>
</svg>
