<svg xmlns="http://www.w3.org/2000/svg" width="56" height="56" viewBox="0 0 56 56">
    <defs>
        <style>
            .prefix__cls-2{fill:gray}.prefix__cls-3{fill:#58af32}.prefix__cls-4,.prefix__cls-6{fill:none}.prefix__cls-4{stroke:gray;stroke-width:2px}.prefix__cls-7,.prefix__cls-9{stroke:none}.prefix__cls-9{fill:#707070}
        </style>
    </defs>
    <g id="prefix__Group_141" data-name="Group 141" transform="translate(-233 -265)">
        <g id="prefix__Path_159" data-name="Path 159" style="fill:#fff">
            <path d="M28 55.5c-3.713 0-7.314-.727-10.704-2.16-3.275-1.386-6.216-3.369-8.741-5.895-2.526-2.525-4.51-5.466-5.894-8.74C1.227 35.314.5 31.712.5 28s.727-7.314 2.16-10.704C4.047 14.02 6.03 11.08 8.556 8.555c2.525-2.526 5.466-4.51 8.74-5.894C20.686 1.227 24.288.5 28 .5s7.314.727 10.704 2.16c3.275 1.386 6.216 3.369 8.741 5.895 2.526 2.525 4.51 5.466 5.894 8.74C54.773 20.686 55.5 24.288 55.5 28s-.727 7.314-2.16 10.704c-1.386 3.275-3.369 6.216-5.895 8.741-2.525 2.526-5.466 4.51-8.74 5.894C35.314 54.773 31.712 55.5 28 55.5z" class="prefix__cls-7" transform="translate(233 265)"/>
            <path d="M28 1c-3.645 0-7.181.714-10.51 2.121-3.214 1.36-6.102 3.307-8.582 5.787-2.48 2.48-4.427 5.368-5.787 8.583C1.714 20.819 1 24.355 1 28c0 3.645.714 7.181 2.121 10.51 1.36 3.214 3.307 6.102 5.787 8.582 2.48 2.48 5.368 4.427 8.583 5.787C20.819 54.286 24.355 55 28 55c3.645 0 7.181-.714 10.51-2.121 3.214-1.36 6.102-3.307 8.582-5.787 2.48-2.48 4.427-5.368 5.787-8.583C54.286 35.181 55 31.645 55 28c0-3.645-.714-7.181-2.121-10.51-1.36-3.214-3.307-6.102-5.787-8.582-2.48-2.48-5.368-4.427-8.583-5.787C35.181 1.714 31.645 1 28 1m0-1c15.464 0 28 12.536 28 28S43.464 56 28 56 0 43.464 0 28 12.536 0 28 0z" style="fill:#c4c4c4;stroke:none" transform="translate(233 265)"/>
        </g>
        <path id="prefix__Path_149" d="M6.015 16.675L1.893 8.54l2.531.266 4.811 6.932" class="prefix__cls-2" data-name="Path 149" transform="scale(-1) rotate(-6.02 -2939.396 2426.774)"/>
        <path id="prefix__Path_142" d="M-13276.584-66.733h-11.537a.881.881 0 0 1-.881-.879v-14.939a.881.881 0 0 1 .881-.879h15.054c-.438.886-.816 1.666-1.155 2.386h-12.346v11.928h11.045l-1.061 2.383z" class="prefix__cls-3" data-name="Path 142" transform="translate(13533.002 371.439)"/>
        <path id="prefix__Path_143" d="M3.6 0a4.331 4.331 0 0 1-.913 2.629A4.7 4.7 0 0 1 0 3.6" class="prefix__cls-4" data-name="Path 143" transform="translate(247.603 291.609)"/>
        <path id="prefix__Path_144" d="M3.6 3.6A4.331 4.331 0 0 0 2.689.973 4.7 4.7 0 0 0 0 0" class="prefix__cls-4" data-name="Path 144" transform="translate(247.603 297.784)"/>
        <path id="prefix__Path_145" d="M1.5 0h11.534a.881.881 0 0 1 .88.879v14.939a.881.881 0 0 1-.88.879H-1.654c.439-.886.817-1.666 1.155-2.386H11.48V2.383H.435L1.5 0z" class="prefix__cls-3" data-name="Path 145" transform="translate(264.277 287.987)"/>
        <path id="prefix__Path_146" d="M0 3.6A4.331 4.331 0 0 1 .913.973 4.7 4.7 0 0 1 3.6 0" class="prefix__cls-4" data-name="Path 146" transform="translate(270.986 297.482)"/>
        <path id="prefix__Path_147" d="M0 0a4.331 4.331 0 0 0 .913 2.629A4.7 4.7 0 0 0 3.6 3.6" class="prefix__cls-4" data-name="Path 147" transform="translate(270.986 291.307)"/>
        <path id="prefix__Path_148" d="M13897.273 372.3l-6.147 19.285 2.922-2.279 5.992-15.408" class="prefix__cls-2" data-name="Path 148" transform="rotate(6.02 7911.789 -129149.5)"/>
        <path id="prefix__Path_160" d="M1.5 0A1.5 1.5 0 1 1 0 1.5 1.5 1.5 0 0 1 1.5 0z" data-name="Path 160" transform="translate(263 282)" style="fill:#fff"/>
        <g id="prefix__Path_161" class="prefix__cls-6" data-name="Path 161">
            <path d="M3 0a3 3 0 1 1-3 3 3 3 0 0 1 3-3z" class="prefix__cls-7" transform="translate(258 275)"/>
            <path d="M3 1c-1.103 0-2 .897-2 2s.897 2 2 2 2-.897 2-2-.897-2-2-2m0-1c1.657 0 3 1.343 3 3S4.657 6 3 6 0 4.657 0 3s1.343-3 3-3z" class="prefix__cls-9" transform="translate(258 275)"/>
        </g>
        <g id="prefix__Path_162" class="prefix__cls-6" data-name="Path 162">
            <path d="M3 0a3 3 0 1 1-3 3 3 3 0 0 1 3-3z" class="prefix__cls-7" transform="translate(265 275)"/>
            <path d="M3 1c-1.103 0-2 .897-2 2s.897 2 2 2 2-.897 2-2-.897-2-2-2m0-1c1.657 0 3 1.343 3 3S4.657 6 3 6 0 4.657 0 3s1.343-3 3-3z" class="prefix__cls-9" transform="translate(265 275)"/>
        </g>
    </g>
</svg>
