<svg xmlns="http://www.w3.org/2000/svg" id="prefix__rkn15g" width="129.149" height="22.004" viewBox="0 0 129.149 22.004">
    <defs>
        <style>
            .prefix__cls-1{fill:#58af32}
        </style>
    </defs>
    <g id="prefix__Group_15" data-name="Group 15">
        <path id="prefix__Path_50" d="M-775.367 1044.892c.024.4.923.406 1.438.585a2.189 2.189 0 0 0 .282.046c.252.044.658.071.619.2-.047.153-.459.068-.706.089a3.263 3.263 0 0 1-1.374-.065.757.757 0 0 0-.544.037c-.158.074-.136.157-.07.244a8.188 8.188 0 0 0 2.806.661 3.338 3.338 0 0 1 1.4.036c.123.008.245.043.242.106s-.147.083-.263.1a4.368 4.368 0 0 1-1.263-.013 3.843 3.843 0 0 0-1.178-.068l1.224.209c-.478.179-.478.179-1.938.116a4.222 4.222 0 0 0 2.227.347 9.922 9.922 0 0 1 2.6.093 22.735 22.735 0 0 0 2.376.2c2.646.175 5.29.356 7.945.5 1.3.072 2.622.055 3.934.081 3.735.072 7.476.087 11.21.164 2.444.051 4.874.244 7.332.168 2.222-.068 4.441 0 6.661.008a25.124 25.124 0 0 0 3.278-.207 8.111 8.111 0 0 1 .9-.043c.91-.011 1.82 0 2.724-.059a3.825 3.825 0 0 1 1.238.1 5.5 5.5 0 0 0 1.384.143h2.882a2.442 2.442 0 0 0 1.271-.207 1.233 1.233 0 0 1 .891-.054 4.615 4.615 0 0 0 1.824.1c1.328-.161 2.713-.1 4.043-.239a5.786 5.786 0 0 1 1.272.055 3.2 3.2 0 0 0 .511.056c2.269-.1 4.431.359 6.7.234a3.646 3.646 0 0 0 1.489-.234 6.287 6.287 0 0 1 2.371-.353 11.12 11.12 0 0 0 2.033-.1c-.8-.1-1.534 0-2.308-.13.613-.177 1.266-.1 1.879-.23a5.953 5.953 0 0 0-1.386-.39 7.277 7.277 0 0 1 2.015-.114c2.345-.013 4.688-.1 7.036-.031 1.184.035 2.356-.036 3.539-.094 1.919-.094 3.87-.087 5.808-.087 2.38 0 4.727-.135 7.088-.226 1.906-.074 3.8-.164 5.69-.293.174-.012.348-.026.516-.048a1 1 0 0 0 .2-.071 5.488 5.488 0 0 0-2.157-.213 6.415 6.415 0 0 1 1.5-.086c.276.011.621-.022.649-.164s-.355-.212-.589-.188c-1.112.111-2.279-.02-3.36.13a17.5 17.5 0 0 1-2.472.1c-.165 0-.416.012-.408-.092s.258-.079.424-.092c1.4-.1 2.83-.014 4.253-.156-.282-.123-.708-.062-1.007-.2 1.288-.1 2.61-.047 3.922-.095-.427.039-.857.075-1.282.119-.155.016-.409.011-.338.125.046.073.246.076.39.063 1.493-.144 3.063-.064 4.531-.294.421-.066.9-.064 1.329-.12.539-.069 1.154-.1 1.226-.438.025-.115.376-.129.616-.159 1.366-.166 2.413-.613 3.779-.736-.009-.187-.371-.085-.459-.18a.616.616 0 0 1 .157-.055c.646-.07 1.183-.24 1.781-.354.185-.035.715-.1.072-.229-.359-.074-.058-.18.1-.254.19-.09.689-.106.559-.261s-.6-.108-.942-.129c-.12-.007-.242-.011-.476-.022a5.357 5.357 0 0 1 1.218-.4c.486-.1.309-.175-.015-.26a1.5 1.5 0 0 0-.582-.034c-1.348.177-2.748.118-4.124.163-.214.007-.476.031-.606-.082-.113-.1.034-.162.189-.223.095-.037.181-.082.147-.141-.154-.274.367-.29.673-.245a2.741 2.741 0 0 0 1.878-.276c.1-.057.321-.065.385-.153a2.844 2.844 0 0 0-.712.012c-.119-.006-.265.018-.327-.047-.191-.2-.188-.207-.633-.209-.772 0-1.544 0-2.328-.039 1.384-.082 2.7-.259 4.135-.4-.547-.216-1.113-.011-1.641-.109.647-.231 1.534-.176 2.228-.415a4.4 4.4 0 0 0-1.622.052 4.88 4.88 0 0 1-.642.1c-.413.051-.847.081-.97-.158s.414-.192.7-.24a5.046 5.046 0 0 0 .952-.146 5.626 5.626 0 0 0-1.588-.244c-.175-.016-.475.008-.46-.115.011-.09.267-.087.436-.09.45-.009.673-.108.757-.295.135-.3.641-.443 1.253-.556a4.64 4.64 0 0 0 1.667-.489 7.362 7.362 0 0 0-1.911.352 6.3 6.3 0 0 1-3.209.005c1.065-.261 1.915-.6 3.093-.8-2.336.133-4.588 0-6.82.141.751-.253 1.784-.088 2.515-.367-.941-.058-1.862.1-2.945.029a5.13 5.13 0 0 1 1.534-.223 31.128 31.128 0 0 0 4.47-.347l-.015-.082c-.42.008-.839.014-1.259.024-.452.012-.9.028-1.356.043-.126 0-.252.017-.377.015-.268-.005-.636.027-.713-.115s.391-.1.527-.195c-.084-.139-.481-.016-.608-.132a13.054 13.054 0 0 1 1.38-.267h-1.5c1.113-.2 2.093-.212 3.03-.306.2-.02.4-.031.589-.06.214-.033.46-.08.4-.2s-.318-.125-.552-.109-.443.044-.667.06c-.167.012-.393.054-.476-.037-.264-.288-.79-.254-1.322-.212-.874.07-1.792 0-2.622.064-1.017.075-2.036.127-3.058.176a50.866 50.866 0 0 1-6.774.09c-.173-.015-.349-.025-.521-.043a1.436 1.436 0 0 1-.193-.047 1.814 1.814 0 0 1 .96-.147c2.911.047 5.8-.168 8.7-.144a11.212 11.212 0 0 0 1.962-.373l-4.968.252-.067-.1a9.858 9.858 0 0 1 2.546-.444 18.694 18.694 0 0 0 2.839-.283 17.363 17.363 0 0 0 1.965-.233c.192-.046.5-.1.433-.2-.076-.119-.412-.11-.654-.093-.872.063-1.739.136-2.609.2a3.675 3.675 0 0 1-.94 0 10.775 10.775 0 0 0 1.51-.2c-.2-.132-.513-.053-.779-.134a10.5 10.5 0 0 1 1.331-.1c.545-.068 1.216-.033 1.487-.353.132-.156.714-.077.97-.227-.33-.129-.672.019-1.165-.034a15.434 15.434 0 0 1 1.67-.5c.552-.082 1.1-.2 1.182-.551-.465.047-.915.092-1.365.14-.208.022-.395.044-.472-.083-.089-.148.174-.142.35-.142a19.214 19.214 0 0 0 3.508-.685c.164-.025.209-.091.189-.161-.033-.11-.207-.045-.337-.052a19.246 19.246 0 0 0-2.478.317 21.669 21.669 0 0 1-2.171.218c-1.149-.049-2.3.087-3.453-.018a19.944 19.944 0 0 1 2.922-.312c.147-.012.3-.006.453-.014.249-.013.678-.1.6-.127-.333-.116.132-.391-.545-.425a20.419 20.419 0 0 0-2.519-.166c-.019 0-.3.053-.14-.053a.958.958 0 0 1 .219-.03c-.2-.083-.514 0-.718-.131a19.086 19.086 0 0 0 1.95-.173l-1.034-.237a21.018 21.018 0 0 1 2.35-.316 4.5 4.5 0 0 0-2.779-.559c-.8.035-1.612.019-2.423-.012-.411-.016-.67-.029-.685-.235-.009-.13-.172-.233-.514-.234s-.409.121-.429.226c-.047.257-.328.332-.907.274a34.526 34.526 0 0 0-3.837.17c-1.648.014-3.285.121-4.95 0-.788-.059-1.387-.31-2.209-.3-.278 0-.389-.13-.4-.244-.023-.224-.358-.268-.779-.254-1.456.051-2.906.139-4.461.1a1.979 1.979 0 0 0 .507.425c.36.231.165.412-.466.418-1.264.011-2.528.005-3.792 0-.459 0-.815-.053-.371-.286.075-.039.163-.1.144-.142-.145-.319.4-.285.8-.265a10.22 10.22 0 0 0 1.817-.124c-.791-.169-1.571-.022-2.281-.126.171-.145.581-.065.734-.226-.451-.02-.882-.046-1.316-.057-.238-.006-.543-.026-.514.152 0 .025-.053.06-.105.078a15.632 15.632 0 0 1-2.657-.052 2.463 2.463 0 0 0-1.574-.137 6.863 6.863 0 0 1-1.681.047c-.775-.073-1.609-.042-2.4-.039-2.923.013-5.839-.085-8.776.03a26.463 26.463 0 0 1-5.131-.161 6.386 6.386 0 0 0-1.774.088 4.98 4.98 0 0 1-.909.045c-.059-.1.507-.114.169-.246a1.81 1.81 0 0 0-.955-.129c-.294.037-.342.1-.216.218.172.159-.112.168-.344.153-1.488-.1-3-.139-4.461-.3a2.107 2.107 0 0 0-.578-.033 2.694 2.694 0 0 1-1.724-.01 1.776 1.776 0 0 0-.727-.01 8.825 8.825 0 0 1-2.863.154c-1.9-.1-3.779.032-5.667.011-4.242-.048-8.486-.075-12.728-.133-4.037-.055-8.063 0-12.091.12-3.881.117-7.736.339-11.609.483a4.319 4.319 0 0 0-1.171.278 6.544 6.544 0 0 1-3.528.3c-.469-.11-.827.163-1.338.2.8.163.834.413.206.637a10.11 10.11 0 0 0-1.326.518 3.683 3.683 0 0 1-1.475.2 19.929 19.929 0 0 1-3.145.014 1.148 1.148 0 0 0-1.152.357c-.115.14.276.305.562.341a9.759 9.759 0 0 0 1.426.024c.906-.026 1.8-.106 2.718-.076a2.926 2.926 0 0 1 .816.063c-.482.158-1.139.072-1.806.285.841-.064 1.345-.007 1.486.334-.587.049-1.2.105-1.81.15a1.528 1.528 0 0 1-.916-.174.534.534 0 0 0-.736.047.887.887 0 0 1-.614.308c-.176.021-.176.094-.126.163.129.181.037.361-.081.533-.171.248.083.4.6.417.555.014.715.194.738.327.03.177-.479.17-.772.176a7.752 7.752 0 0 1-1.562.015.41.41 0 0 0-.269 0c-.091.05-.061.1.041.144.222.089.418.17.444.321.016.1.294.1.5.081a1.54 1.54 0 0 1 .692 0c-.239.177-.672.082-.982.133-.243.04-.633.024-.592.189.034.138.37.124.616.126.3 0 .607 0 .907-.014a1.562 1.562 0 0 0 .48-.072c.1-.36.848-.256 1.305-.36.535-.121 1.042-.264 1.626-.342a1.5 1.5 0 0 1 .9.021c.238.151-.207.208-.363.308a6.843 6.843 0 0 1-2.443.436 14.829 14.829 0 0 1-3.7.11c-.136-.015-.29 0-.568 0a5.015 5.015 0 0 0 2.449.5c1.21-.026 2.417-.085 3.633-.052.331.009.6.022.672.191.038.09.195.147.371.2.26.072.747.1.278.31-.169.077.127.127.291.128.352 0 .7-.017 1.054-.03a6.483 6.483 0 0 1 1.193-.036c-1.728.144-3.444.325-5.292.321.19-.206.549-.124.8-.158.171-.023.379-.061.359-.144-.025-.1-.266-.083-.432-.078-.506.016-.951.145-1.47.146-.145 0-.247.051-.073.1.262.077.089.121-.048.169-.194.067-.44.118-.27.26a1.083 1.083 0 0 0 .7.214c1.125.049 2.235-.011 3.378-.042-.919.09-1.583.4-2.5.5a1.293 1.293 0 0 1-.833-.169 1 1 0 0 0-.773-.118c-.307.082-.006.192.04.289.1.206.419.477-.587.348a.615.615 0 0 0-.487.123c-.252.256-.154.522.133.75a.816.816 0 0 0 .849 0 1.4 1.4 0 0 1 .9-.134c.376.02.423.158.438.3a.914.914 0 0 0 .1.288c.05.1.2.213-.058.3a1.675 1.675 0 0 1-.917.062 2.429 2.429 0 0 0-.84-.086 4.989 4.989 0 0 1-1.578.351c-.373.083-.142.231.19.284a3.094 3.094 0 0 0 1.181-.035c.607-.15 1.3-.177 1.935-.275a2.787 2.787 0 0 1 .592-.031c.3.022.761-.007.809.168s-.4.119-.633.157c-.2.031-.408.056-.359.172s-.029.18-.3.159a.853.853 0 0 1-.579-.235c-.064-.073.333-.006.4-.126-.464-.066-.912-.141-1.118.15-.12.171-.644.121-.789.279.145.115.549-.078.606.079.05.136-.287.159-.5.208-.175.041-.366.071-.552.1-.163.029-.477-.1-.489.041s.352.12.594.124a4 4 0 0 0 1-.137 1.67 1.67 0 0 1 1.163.01c.283.173.47.4-.119.623.544-.03 1.1-.044 1.629-.094.373-.034.764-.031 1.115-.073a3.44 3.44 0 0 1 2.055.354c.222.1.143.137-.076.19a3.952 3.952 0 0 1-1.171.1 5.292 5.292 0 0 0-2.512.529 2.124 2.124 0 0 0 1.132-.153 3.8 3.8 0 0 1 1.838-.22c-.047.049-.058.069-.084.085-.161.1-.662 0-.639.161s.444.186.712.264.873.03.809.223c-.077.232-.7.2-1.073.2a19.724 19.724 0 0 0-3.335.28 9.132 9.132 0 0 0 2.675.121c0-.164-.318-.168-.478-.3h1.2c.527 0 .79.091.71.339s-.4.3-.9.275c-.785-.04-1.571-.073-2.375-.11.02.236.533.14.666.266-.226.161-.466.041-.708.012-.431-.052-.912-.17-.937.192-.013.176-.484.181-.705.123-.634-.167-.965.02-1.106.2-.158.2.231.28.7.319.8.066.193.289.1.389-.357.371-.4.368.569.45a2.195 2.195 0 0 1 .727.158 2.116 2.116 0 0 0 .943.17c-.112-.252.252-.272.679-.248a9.473 9.473 0 0 0 1.558.085 23.294 23.294 0 0 1 2.994-.044c.469 0 1.122.049 1.146-.228.021-.24-.612-.19-1.016-.217a8.638 8.638 0 0 1-2.772-.514 2.3 2.3 0 0 0-1.063-.119 4.674 4.674 0 0 1-1.4-.118 9.173 9.173 0 0 1 3.5.263 9.622 9.622 0 0 0 2.867.264c1.161-.071 1.235.408 1.581.73.053.05.138.088.083.144a.478.478 0 0 1-.115.084 1.813 1.813 0 0 1-1.187.255c-.592-.05-1.185-.089-1.775-.152a36 36 0 0 0-5.085-.195zm95.755-14.7c-.817.2-1.656.072-2.3.214a6.359 6.359 0 0 0 2.875.814c-1.556.222-3.015-.056-4.618.015.344-.1.708-.009.934-.173l-.743-.023c-.878-.025-1.757-.047-2.635-.073-.232-.007-.492-.029-.525-.145-.038-.132.251-.143.463-.166a4.793 4.793 0 0 1 1.554-.028c.8.207 1.265-.115 1.912-.118-1.026-.277-2.168.049-3.266-.147a3.746 3.746 0 0 1 1.52-.193 1.658 1.658 0 0 0 1.069-.226.572.572 0 0 1 .725 0 1.848 1.848 0 0 0 .978.191 17 17 0 0 1 2.057.059zm-91.684 7.3c-.328.153-.353.351-.891.348a10 10 0 0 0-2.87.306 1.152 1.152 0 0 1-.764-.02c-.364-.185-.292-.547.124-.72a2.314 2.314 0 0 0-.783-.06c-.2-.011-.439-.008-.509-.1s.169-.147.335-.186a8 8 0 0 1 2.769-.162 6.974 6.974 0 0 0 2.054-.018c.467-.08.945-.149 1.412-.23a1.592 1.592 0 0 1 .9.025 5.169 5.169 0 0 1-2.56.468 13.343 13.343 0 0 0-1.943.039c-.227.043-.541.07-.458.211.07.118.368.1.583.09.826-.051 1.65.01 2.597.01zm60.4-9.055h-5.241c-.2 0-.444.015-.537-.08-.114-.116.141-.168.3-.234a2.3 2.3 0 0 1 1.012-.17c.4.014.8-.02 1.2-.043a4.921 4.921 0 0 1 2.348 0 .923.923 0 0 0 .295 0 15.711 15.711 0 0 1 3.684-.169c.557.07.647.007.924.27a9.515 9.515 0 0 0-2.474-.044 6.169 6.169 0 0 0-1.9.342c-.052.022-.048.025.385.13zm43.22 2.059c-.447.141-1.008.032-1.428.212.86.048 1.643-.1 2.407.022.138.021.336.006.375.082s-.123.146-.278.174a8.012 8.012 0 0 1-2.07.243c-1.271-.072-2.5-.271-3.814-.218-.017 0-.042-.032-.089-.071a18.2 18.2 0 0 0 2.76-.17h-.494c-1.006-.01-2.013.062-3.02.007-.2-.011-.426-.021-.434-.138-.005-.082.137-.1.309-.1 1.524-.044 3.047-.093 4.571-.137a3.98 3.98 0 0 1 1.201.098zm-26.5.705c.17-.193.727-.131.778-.331.069-.268-.4-.341-.811-.372-.581-.044-.2-.311-.578-.387-.025-.005.1-.073.208-.07a3.985 3.985 0 0 0 .678-.123 3.6 3.6 0 0 1 1.714.077 3.345 3.345 0 0 0 1.3.2 20.484 20.484 0 0 1 2.2.068 16.812 16.812 0 0 0-1.87.189 1.573 1.573 0 0 1-1.366-.129c.013.174-.224.252-.463.32a1.52 1.52 0 0 0 .532.08c.4.055.2.2.228.3s-.014.206-.331.2c-.725.008-1.452.05-2.221-.023zm21.376-1.618c.1-.116.277-.112.411-.115 2.051-.043 4.069-.251 6.135-.214.165 0 .326.01.331.093.007.108-.024.219-.254.29a.5.5 0 0 1-.345 0c-.2-.1.29-.137.143-.257a8.383 8.383 0 0 1-1.407 0 1.016 1.016 0 0 0-.715.124c-.18.164-.413.138-.739.09-.514-.075-1-.086-1.188.213-.083.132-.386.149-.624.109-.597-.099-1.173-.216-1.748-.331zm-99.249 16.605a24.555 24.555 0 0 1 4.527.092 1.131 1.131 0 0 1 .379.1c.238.119.634.267.361.409a1.4 1.4 0 0 1-1.009-.063 4.946 4.946 0 0 0-1.873-.268 12.606 12.606 0 0 1-2.387-.268zm109.282-3.99a70.9 70.9 0 0 1-9.391.175c3.258-.151 6.339-.063 9.389-.173zm-29.929-13.821c-.534-.13-1.207-.288-1.863-.459-.136-.035-.143-.126.019-.164a5.2 5.2 0 0 1 1.812-.135c.451.054.409.246.459.4.013.042.014.094.072.123.461.236.077.239-.503.237z" class="prefix__cls-1" data-name="Path 50" transform="translate(781.353 -1026.74)"/>
        <path id="prefix__Path_51" d="M-745.951 1310.243a10.306 10.306 0 0 0 2.2-.384 2.415 2.415 0 0 0 .575-.374.126.126 0 0 0 .026-.207c-.008-.009-.014-.022-.024-.025-.221-.058.072-.375-.2-.4a1.105 1.105 0 0 0-.826.18c-.348.333-.791.271-1.175.424-.158.063-.34.066-.5.12-.131.043-.385-.047-.326.254 0 .01-.074.038-.116.053-.087.032-.247-.032-.24.12.005.125.143.172.257.2s.249.027.349.039z" class="prefix__cls-1" data-name="Path 51" transform="translate(869.84 -1290.75)"/>
        <path id="prefix__Path_52" d="M-746.068 1334.715a6.8 6.8 0 0 0 4.617-1.06 5.416 5.416 0 0 1-1.56.172.41.41 0 0 0-.2.052 5.716 5.716 0 0 1-2.164.623 1.8 1.8 0 0 0-.693.213z" class="prefix__cls-1" data-name="Path 52" transform="translate(868.15 -1313.84)"/>
        <path id="prefix__Path_53" d="M-568.118 1340.683c-.235-.124-.455-.336-.72-.1-.082.074-.138-.035-.185-.1a1.032 1.032 0 0 0-1.485.06c-.1.179.018.3.2.308a6.636 6.636 0 0 0 .866.006c.229-.015.455-.083.683-.115.21-.024.426-.042.641-.059z" class="prefix__cls-1" data-name="Path 53" transform="translate(664.547 -1319.933)"/>
        <path id="prefix__Path_54" d="M-654.589 1337.848a2.316 2.316 0 0 1-.552-.129.5.5 0 0 0-.558.036.42.42 0 0 1-.477.077.26.26 0 0 0-.317.037c-.038.04-.091.09-.09.134 0 .063.076.08.134.082a4.351 4.351 0 0 0 1.86-.237z" class="prefix__cls-1" data-name="Path 54" transform="translate(756.426 -1317.56)"/>
        <path id="prefix__Path_55" d="M54.712 1105.385a.9.9 0 0 0 .488.634.282.282 0 0 0 .406-.15c.1-.185-.111-.205-.2-.238-.211-.076-.378-.165-.4-.417-.006-.074-.066-.141-.141-.07-.059.056-.214.016-.153.241z" class="prefix__cls-1" data-name="Path 55" transform="translate(-54.568 -1100.033)"/>
    </g>
</svg>
