<svg xmlns="http://www.w3.org/2000/svg" width="32" height="32" viewBox="0 0 32 32">
    <g id="prefix__round-close-24px" style="opacity:.497">
        <path id="prefix__Path_58" d="M0 0h32v32H0z" data-name="Path 58" style="fill:none"/>
        <path id="prefix__Path_59" d="M22.6 5.811a1.328 1.328 0 0 0-1.88 0l-6.52 6.507L7.678 5.8A1.329 1.329 0 0 0 5.8 7.678l6.52 6.52-6.52 6.52a1.329 1.329 0 0 0 1.88 1.88l6.52-6.52 6.52 6.52a1.329 1.329 0 0 0 1.88-1.88l-6.52-6.52 6.52-6.52a1.336 1.336 0 0 0 0-1.867z" data-name="Path 59" transform="translate(1.802 1.802)" style="fill:#161616"/>
    </g>
</svg>
