<svg xmlns="http://www.w3.org/2000/svg" width="32" height="32" viewBox="0 0 32 32">
    <defs>
        <style>
            .cls-1,.cls-2,.cls-3{fill:none}.cls-2{stroke:#383838}.cls-4,.cls-5{stroke:none}.cls-5{fill:#383838}
        </style>
    </defs>
    <g id="Group_769" data-name="Group 769" transform="translate(-238 -14)">
        <g id="Group_767" data-name="Group 767" transform="translate(-702.622 -43)">
            <g id="Subtraction_1" class="cls-1" data-name="Subtraction 1">
                <path d="M8.811 12.185a17.712 17.712 0 0 1-6.058-.941C.952 10.559 0 9.583 0 8.419a9.243 9.243 0 0 1 1.535-5.128A8.866 8.866 0 0 1 5.481 0a4.8 4.8 0 0 0 3.33 1.348A4.8 4.8 0 0 0 12.141 0a8.862 8.862 0 0 1 3.946 3.291 9.243 9.243 0 0 1 1.535 5.128c0 1.163-.952 2.14-2.753 2.824a17.712 17.712 0 0 1-6.058.942z" class="cls-4" transform="translate(948 71.543)"/>
                <path d="M8.811 11.185c2.19 0 4.215-.311 5.702-.876.788-.3 2.11-.943 2.11-1.89a8.245 8.245 0 0 0-1.37-4.575 7.899 7.899 0 0 0-2.955-2.667 5.773 5.773 0 0 1-6.974 0 7.903 7.903 0 0 0-2.956 2.667A8.245 8.245 0 0 0 1 8.42c0 .947 1.321 1.59 2.108 1.89 1.489.565 3.514.876 5.703.876m0 1c-2.308 0-4.46-.334-6.058-.941C.953 10.559 0 9.583 0 8.419c0-1.84.53-3.615 1.535-5.128A8.866 8.866 0 0 1 5.48.001a4.796 4.796 0 0 0 3.33 1.348c1.24 0 2.422-.48 3.33-1.349a8.862 8.862 0 0 1 3.946 3.291 9.243 9.243 0 0 1 1.535 5.128c0 1.164-.952 2.14-2.753 2.825-1.599.607-3.75.941-6.058.941z" class="cls-5" transform="translate(948 71.543)"/>
            </g>
            <g id="Ellipse_59" class="cls-2" data-name="Ellipse 59" transform="translate(952.622 62)">
                <circle cx="4.5" cy="4.5" r="4.5" class="cls-4"/>
                <circle cx="4.5" cy="4.5" r="4" class="cls-3"/>
            </g>
        </g>
        <path id="Rectangle_798" d="M0 0h32v32H0z" class="cls-3" data-name="Rectangle 798" transform="translate(238 14)"/>
    </g>
</svg>
