<svg xmlns="http://www.w3.org/2000/svg" width="32" height="32" viewBox="0 0 32 32">
    <defs>
        <style>
            .cls-1{fill:#383838}.cls-2{fill:none}
        </style>
    </defs>
    <g id="Group_770" data-name="Group 770" transform="translate(-198 -14)">
        <g id="phone-icon" transform="translate(-141.989 -58.99)">
            <path id="Path_1068" d="M358.988 99.718c-2.489 0-5.058-2.73-7.868-8.27-4.416-8.832-2.489-11.24-.241-12.445 0 0 1.746-.9 1.847-.963a.422.422 0 0 1 .562.161l2.971 5.861c.1.2.045.414-.241.562l-1.766.883c-.321.161-.321.883-.08 1.927.562 2.328 2.489 5.138 3.452 5.138h.161c.08 0 .723-.4 1.2-.642a4.777 4.777 0 0 1 .562-.241.386.386 0 0 1 .482.161L363 97.711a.412.412 0 0 1-.206.529l-1.779.946a4.254 4.254 0 0 1-2.027.532zM352.726 79c-.562.321-1.445.723-1.445.723-1.2.642-4.014 2.168.642 11.4 2.569 5.138 4.978 7.788 7.146 7.788a3.288 3.288 0 0 0 1.638-.452s1-.544 1.485-.858l-2.562-5.113-.161.08c-.482.241-1.054.532-1.224.617a.969.969 0 0 1-.462.105c-1.686 0-3.693-3.452-4.255-5.7-.482-1.847 0-2.569.482-2.81l1.445-.723z" class="cls-1" data-name="Path 1068"/>
        </g>
        <path id="Rectangle_799" d="M0 0h32v32H0z" class="cls-2" data-name="Rectangle 799" transform="translate(198 14)"/>
    </g>
</svg>
