<svg xmlns="http://www.w3.org/2000/svg" width="14" height="13.088" viewBox="0 0 14 13.088">
    <defs>
        <style>
            .cls-1{fill:none;stroke-linecap:round;stroke-linejoin:round}.cls-2,.cls-3{stroke:none}.cls-3{fill:#f4e10b}
        </style>
    </defs>
    <g id="Path_2474" class="cls-1" data-name="Path 2474">
        <path d="M2207.387 382.5l1.909-3.673 1.939 3.673 4.07.49-3.136 3.034 1.018 3.891-3.891-2.434-3.772 2.434 1.048-3.891-3.267-3.034z" class="cls-2" transform="translate(-2202.305 -377.829)"/>
        <path d="M2209.296 378.83l-1.909 3.672-4.082.49 3.267 3.034-1.048 3.891 3.772-2.433 3.892 2.433-1.019-3.891 3.136-3.034-4.07-.49-1.939-3.673m0-1a1 1 0 0 1 .885.533l1.694 3.21 3.55.427a1 1 0 0 1 .576 1.712l-2.716 2.627.87 3.326a1 1 0 0 1-1.498 1.1l-3.352-2.096-3.239 2.09a.998.998 0 0 1-1.131-.033 1 1 0 0 1-.376-1.068l.89-3.309-2.824-2.623a1 1 0 0 1 .561-1.726l3.558-.427 1.665-3.204a1 1 0 0 1 .884-.539h.003z" class="cls-3" transform="translate(-2202.305 -377.829)"/>
    </g>
</svg>
